Chonburi-Regular.ufo
<glyph name="exclam" format="1">
  <advance width="284"/>
  <unicode hex="0021"/>
  <outline>
    <contour>
      <point x="188" y="-8"/>
      <point x="226" y="28"/>
      <point x="226" y="74" type="curve" smooth="yes"/>
      <point x="226" y="120"/>
      <point x="188" y="156"/>
      <point x="142" y="156" type="curve" smooth="yes"/>
      <point x="96" y="156"/>
      <point x="58" y="120"/>
      <point x="58" y="74" type="curve" smooth="yes"/>
      <point x="58" y="28"/>
      <point x="96" y="-8"/>
      <point x="142" y="-8" type="curve" smooth="yes"/>
    </contour>
    <contour>
      <point x="158" y="221" type="line"/>
      <point x="236" y="675" type="line"/>
      <point x="221" y="697"/>
      <point x="187" y="710"/>
      <point x="142" y="710" type="curve" smooth="yes"/>
      <point x="97" y="710"/>
      <point x="63" y="697"/>
      <point x="48" y="675" type="curve"/>
      <point x="126" y="221" type="line"/>
    </contour>
  </outline>
</glyph>
<glyph name="quotedbl" format="1">
  <advance width="460"/>
  <unicode hex="0022"/>
  <outline>
    <contour>
      <point x="137" y="431" type="line"/>
      <point x="198" y="699" type="line"/>
      <point x="179" y="706"/>
      <point x="155" y="710"/>
      <point x="125" y="710" type="curve" smooth="yes"/>
      <point x="95" y="710"/>
      <point x="71" y="706"/>
      <point x="52" y="699" type="curve"/>
      <point x="113" y="431" type="line"/>
    </contour>
    <contour>
      <point x="347" y="431" type="line"/>
      <point x="408" y="699" type="line"/>
      <point x="389" y="706"/>
      <point x="365" y="710"/>
      <point x="335" y="710" type="curve" smooth="yes"/>
      <point x="305" y="710"/>
      <point x="281" y="706"/>
      <point x="262" y="699" type="curve"/>
      <point x="323" y="431" type="line"/>
    </contour>
  </outline>
</glyph>
<glyph name="numbersign" format="1">
  <advance width="648"/>
  <unicode hex="0023"/>
  <outline>
    <contour>
      <point x="62" y="456" type="line"/>
      <point x="214" y="454" type="line"/>
      <point x="184" y="246" type="line"/>
      <point x="28" y="244" type="line"/>
      <point x="28" y="220" type="line"/>
      <point x="180" y="218" type="line"/>
      <point x="149" y="0" type="line"/>
      <point x="181" y="0" type="line"/>
      <point x="212" y="217" type="line"/>
      <point x="415" y="215" type="line"/>
      <point x="385" y="0" type="line"/>
      <point x="417" y="0" type="line"/>
      <point x="447" y="214" type="line"/>
      <point x="586" y="213" type="line"/>
      <point x="586" y="251" type="line"/>
      <point x="452" y="249" type="line"/>
      <point x="481" y="450" type="line"/>
      <point x="620" y="449" type="line"/>
      <point x="620" y="487" type="line"/>
      <point x="486" y="485" type="line"/>
      <point x="517" y="700" type="line"/>
      <point x="485" y="700" type="line"/>
      <point x="454" y="485" type="line"/>
      <point x="249" y="482" type="line"/>
      <point x="281" y="700" type="line"/>
      <point x="249" y="700" type="line"/>
      <point x="218" y="482" type="line"/>
      <point x="62" y="480" type="line"/>
    </contour>
    <contour>
      <point x="245" y="453" type="line"/>
      <point x="449" y="451" type="line"/>
      <point x="420" y="249" type="line"/>
      <point x="216" y="246" type="line"/>
    </contour>
  </outline>
</glyph>
<glyph name="dollar" format="1">
  <advance width="680"/>
  <unicode hex="0024"/>
  <outline>
    <contour>
      <point x="315" y="-100" type="line"/>
      <point x="345" y="-100" type="line"/>
      <point x="345" y="-11" type="line"/>
      <point x="540" y="-6"/>
      <point x="624" y="63"/>
      <point x="624" y="186" type="curve" smooth="yes"/>
      <point x="624" y="323"/>
      <point x="540" y="359"/>
      <point x="390" y="432" type="curve" smooth="yes"/>
      <point x="345" y="453" type="line"/>
      <point x="345" y="685" type="line"/>
      <point x="455" y="680"/>
      <point x="491" y="618"/>
      <point x="528" y="513" type="curve"/>
      <point x="557" y="513" type="line"/>
      <point x="571" y="666" type="line"/>
      <point x="521" y="689"/>
      <point x="436" y="711"/>
      <point x="345" y="712" type="curve"/>
      <point x="345" y="800" type="line"/>
      <point x="315" y="800" type="line"/>
      <point x="315" y="711" type="line"/>
      <point x="131" y="706"/>
      <point x="56" y="638"/>
      <point x="56" y="519" type="curve" smooth="yes"/>
      <point x="56" y="378"/>
      <point x="144" y="337"/>
      <point x="285" y="275" type="curve" smooth="yes"/>
      <point x="315" y="261" type="line"/>
      <point x="315" y="15" type="line"/>
      <point x="208" y="15"/>
      <point x="138" y="52"/>
      <point x="107" y="212" type="curve"/>
      <point x="79" y="212" type="line"/>
      <point x="62" y="36" type="line"/>
      <point x="119" y="8"/>
      <point x="234" y="-11"/>
      <point x="315" y="-12" type="curve"/>
    </contour>
    <contour>
      <point x="198" y="659"/>
      <point x="247" y="681"/>
      <point x="315" y="684" type="curve"/>
      <point x="315" y="468" type="line"/>
      <point x="231" y="511"/>
      <point x="198" y="538"/>
      <point x="198" y="599" type="curve" smooth="yes"/>
    </contour>
    <contour>
      <point x="454" y="56"/>
      <point x="412" y="23"/>
      <point x="345" y="16" type="curve"/>
      <point x="345" y="247" type="line"/>
      <point x="421" y="208"/>
      <point x="454" y="174"/>
      <point x="454" y="112" type="curve" smooth="yes"/>
    </contour>
  </outline>
</glyph>
<glyph name="parenleft" format="1">
  <advance width="390"/>
  <unicode hex="0028"/>
  <outline>
    <contour>
      <point x="66" y="123"/>
      <point x="163" y="-8"/>
      <point x="343" y="-114" type="curve"/>
      <point x="358" y="-99" type="line"/>
      <point x="230" y="-14"/>
      <point x="203" y="105"/>
      <point x="203" y="340" type="curve" smooth="yes"/>
      <point x="203" y="575"/>
      <point x="230" y="694"/>
      <point x="358" y="779" type="curve"/>
      <point x="343" y="794" type="line"/>
      <point x="163" y="688"/>
      <point x="66" y="557"/>
      <point x="66" y="340" type="curve" smooth="yes"/>
    </contour>
  </outline>
</glyph>
<glyph name="parenright" format="1">
  <advance width="390"/>
  <unicode hex="0029"/>
  <outline>
    <contour>
      <point x="324" y="557"/>
      <point x="227" y="688"/>
      <point x="47" y="794" type="curve"/>
      <point x="32" y="779" type="line"/>
      <point x="160" y="694"/>
      <point x="187" y="575"/>
      <point x="187" y="340" type="curve" smooth="yes"/>
      <point x="187" y="105"/>
      <point x="160" y="-14"/>
      <point x="32" y="-99" type="curve"/>
      <point x="47" y="-114" type="line"/>
      <point x="227" y="-8"/>
      <point x="324" y="123"/>
      <point x="324" y="340" type="curve" smooth="yes"/>
    </contour>
  </outline>
</glyph>
<glyph name="asterisk" format="1">
  <advance width="552"/>
  <unicode hex="002A"/>
  <outline>
    <contour>
      <point x="319" y="743" type="line"/>
      <point x="307" y="748"/>
      <point x="292" y="750"/>
      <point x="276" y="750" type="curve" smooth="yes"/>
      <point x="260" y="750"/>
      <point x="245" y="748"/>
      <point x="233" y="743" type="curve"/>
      <point x="267" y="540" type="line"/>
      <point x="72" y="608" type="line"/>
      <point x="62" y="591"/>
      <point x="56" y="567"/>
      <point x="56" y="544" type="curve" smooth="yes"/>
      <point x="56" y="537"/>
      <point x="57" y="530"/>
      <point x="58" y="523" type="curve"/>
      <point x="262" y="523" type="line"/>
      <point x="110" y="387" type="line"/>
      <point x="121" y="363"/>
      <point x="150" y="341"/>
      <point x="175" y="333" type="curve"/>
      <point x="276" y="510" type="line"/>
      <point x="377" y="333" type="line"/>
      <point x="402" y="341"/>
      <point x="431" y="363"/>
      <point x="442" y="387" type="curve"/>
      <point x="289" y="523" type="line"/>
      <point x="494" y="523" type="line"/>
      <point x="495" y="530"/>
      <point x="496" y="537"/>
      <point x="496" y="544" type="curve" smooth="yes"/>
      <point x="496" y="567"/>
      <point x="490" y="591"/>
      <point x="480" y="608" type="curve"/>
      <point x="284" y="540" type="line"/>
    </contour>
  </outline>
</glyph>
<glyph name="plus" format="1">
  <advance width="570"/>
  <unicode hex="002B"/>
  <outline>
    <contour>
      <point x="496" y="342" type="line"/>
      <point x="300" y="342" type="line"/>
      <point x="300" y="539" type="line"/>
      <point x="270" y="539" type="line"/>
      <point x="270" y="342" type="line"/>
      <point x="74" y="342" type="line"/>
      <point x="74" y="314" type="line"/>
      <point x="270" y="314" type="line"/>
      <point x="270" y="117" type="line"/>
      <point x="300" y="117" type="line"/>
      <point x="300" y="314" type="line"/>
      <point x="496" y="314" type="line"/>
    </contour>
  </outline>
</glyph>
<glyph name="comma" format="1">
  <advance width="268"/>
  <unicode hex="002C"/>
  <outline>
    <contour>
      <point x="144" y="-36"/>
      <point x="127" y="-77"/>
      <point x="79" y="-128" type="curve"/>
      <point x="99" y="-149" type="line"/>
      <point x="163" y="-99"/>
      <point x="220" y="-13"/>
      <point x="220" y="68" type="curve" smooth="yes"/>
      <point x="220" y="127"/>
      <point x="183" y="156"/>
      <point x="132" y="156" type="curve" smooth="yes"/>
      <point x="78" y="156"/>
      <point x="48" y="120"/>
      <point x="48" y="76" type="curve" smooth="yes"/>
      <point x="48" y="32"/>
      <point x="76" y="-7"/>
      <point x="144" y="2" type="curve"/>
    </contour>
  </outline>
</glyph>
<glyph name="period" format="1">
  <advance width="268"/>
  <unicode hex="002E"/>
  <outline>
    <contour>
      <point x="180" y="-8"/>
      <point x="218" y="28"/>
      <point x="218" y="74" type="curve" smooth="yes"/>
      <point x="218" y="120"/>
      <point x="180" y="156"/>
      <point x="134" y="156" type="curve" smooth="yes"/>
      <point x="88" y="156"/>
      <point x="50" y="120"/>
      <point x="50" y="74" type="curve" smooth="yes"/>
      <point x="50" y="28"/>
      <point x="88" y="-8"/>
      <point x="134" y="-8" type="curve" smooth="yes"/>
    </contour>
  </outline>
</glyph>
<glyph name="slash" format="1">
  <advance width="300"/>
  <unicode hex="002F"/>
  <outline>
    <contour>
      <point x="240" y="712" type="line"/>
      <point x="30" y="-12" type="line"/>
      <point x="60" y="-12" type="line"/>
      <point x="270" y="712" type="line"/>
    </contour>
  </outline>
</glyph>
<glyph name="one" format="1">
  <advance width="514"/>
  <unicode hex="0031"/>
  <outline>
    <contour>
      <point x="163" y="53" type="line" smooth="yes"/>
      <point x="163" y="37"/>
      <point x="158" y="34"/>
      <point x="139" y="30" type="curve"/>
      <point x="60" y="20" type="line"/>
      <point x="60" y="0" type="line"/>
      <point x="460" y="0" type="line"/>
      <point x="460" y="20" type="line"/>
      <point x="390" y="30" type="line" smooth="yes"/>
      <point x="372" y="33"/>
      <point x="367" y="37"/>
      <point x="367" y="52" type="curve" smooth="yes"/>
      <point x="367" y="702" type="line"/>
      <point x="347" y="712" type="line"/>
      <point x="261" y="676"/>
      <point x="166" y="651"/>
      <point x="63" y="639" type="curve"/>
      <point x="63" y="617" type="line"/>
      <point x="163" y="617" type="line"/>
    </contour>
  </outline>
</glyph>
<glyph name="two" format="1">
  <advance width="660"/>
  <unicode hex="0032"/>
  <outline>
    <contour>
      <point x="582" y="632"/>
      <point x="522" y="712"/>
      <point x="350" y="712" type="curve" smooth="yes"/>
      <point x="217" y="712"/>
      <point x="116" y="662"/>
      <point x="48" y="613" type="curve"/>
      <point x="60" y="594" type="line"/>
      <point x="122" y="634"/>
      <point x="181" y="662"/>
      <point x="258" y="662" type="curve" smooth="yes"/>
      <point x="335" y="662"/>
      <point x="372" y="608"/>
      <point x="372" y="521" type="curve" smooth="yes"/>
      <point x="372" y="384"/>
      <point x="295" y="199"/>
      <point x="32" y="20" type="curve"/>
      <point x="41" y="0" type="line"/>
      <point x="602" y="0" type="line"/>
      <point x="602" y="207" type="line"/>
      <point x="582" y="207" type="line"/>
      <point x="574" y="170" type="line" smooth="yes"/>
      <point x="570" y="151"/>
      <point x="568" y="146"/>
      <point x="552" y="146" type="curve" smooth="yes"/>
      <point x="251" y="146" type="line"/>
      <point x="381" y="214"/>
      <point x="582" y="335"/>
      <point x="582" y="514" type="curve" smooth="yes"/>
    </contour>
  </outline>
</glyph>
<glyph name="five" format="1">
  <advance width="634"/>
  <unicode hex="0035"/>
  <outline>
    <contour>
      <point x="464" y="-10"/>
      <point x="586" y="50"/>
      <point x="586" y="213" type="curve" smooth="yes"/>
      <point x="586" y="337"/>
      <point x="512" y="427"/>
      <point x="262" y="427" type="curve" smooth="yes"/>
      <point x="198" y="427"/>
      <point x="160" y="422"/>
      <point x="105" y="408" type="curve"/>
      <point x="116" y="554" type="line"/>
      <point x="528" y="554" type="line"/>
      <point x="528" y="700" type="line"/>
      <point x="95" y="700" type="line"/>
      <point x="71" y="380" type="line"/>
      <point x="99" y="380" type="line"/>
      <point x="139" y="391"/>
      <point x="171" y="396"/>
      <point x="216" y="396" type="curve" smooth="yes"/>
      <point x="347" y="396"/>
      <point x="378" y="312"/>
      <point x="378" y="204" type="curve" smooth="yes"/>
      <point x="378" y="93"/>
      <point x="336" y="18"/>
      <point x="241" y="18" type="curve" smooth="yes"/>
      <point x="130" y="18"/>
      <point x="97" y="104"/>
      <point x="69" y="197" type="curve"/>
      <point x="46" y="197" type="line"/>
      <point x="32" y="31" type="line"/>
      <point x="80" y="6"/>
      <point x="168" y="-10"/>
      <point x="261" y="-10" type="curve" smooth="yes"/>
    </contour>
  </outline>
</glyph>
<glyph name="six" format="1">
  <advance width="702"/>
  <unicode hex="0036"/>
  <outline>
    <contour>
      <point x="531" y="713" type="line"/>
      <point x="195" y="677"/>
      <point x="56" y="491"/>
      <point x="56" y="282" type="curve" smooth="yes"/>
      <point x="56" y="111"/>
      <point x="174" y="-12"/>
      <point x="371" y="-12" type="curve" smooth="yes"/>
      <point x="550" y="-12"/>
      <point x="664" y="78"/>
      <point x="664" y="230" type="curve" smooth="yes"/>
      <point x="664" y="354"/>
      <point x="575" y="443"/>
      <point x="414" y="443" type="curve" smooth="yes"/>
      <point x="374" y="443"/>
      <point x="334" y="438"/>
      <point x="288" y="419" type="curve"/>
      <point x="312" y="568"/>
      <point x="380" y="655"/>
      <point x="539" y="690" type="curve"/>
    </contour>
    <contour>
      <point x="458" y="404"/>
      <point x="479" y="321"/>
      <point x="479" y="209" type="curve" smooth="yes"/>
      <point x="479" y="86"/>
      <point x="446" y="14"/>
      <point x="374" y="14" type="curve" smooth="yes"/>
      <point x="286" y="14"/>
      <point x="276" y="130"/>
      <point x="276" y="241" type="curve" smooth="yes"/>
      <point x="276" y="294"/>
      <point x="278" y="343"/>
      <point x="283" y="386" type="curve"/>
      <point x="306" y="397"/>
      <point x="330" y="404"/>
      <point x="363" y="404" type="curve" smooth="yes"/>
    </contour>
  </outline>
</glyph>
<glyph name="eight" format="1">
  <advance width="682"/>
  <unicode hex="0038"/>
  <outline>
    <contour>
      <point x="48" y="39"/>
      <point x="163" y="-12"/>
      <point x="328" y="-12" type="curve" smooth="yes"/>
      <point x="487" y="-12"/>
      <point x="634" y="45"/>
      <point x="634" y="186" type="curve" smooth="yes"/>
      <point x="634" y="274"/>
      <point x="586" y="331"/>
      <point x="463" y="389" type="curve" smooth="yes"/>
      <point x="422" y="408" type="line"/>
      <point x="510" y="428"/>
      <point x="592" y="469"/>
      <point x="592" y="553" type="curve" smooth="yes"/>
      <point x="592" y="660"/>
      <point x="476" y="712"/>
      <point x="335" y="712" type="curve" smooth="yes"/>
      <point x="181" y="712"/>
      <point x="75" y="645"/>
      <point x="75" y="517" type="curve" smooth="yes"/>
      <point x="75" y="444"/>
      <point x="109" y="376"/>
      <point x="211" y="322" type="curve"/>
      <point x="107" y="296"/>
      <point x="48" y="231"/>
      <point x="48" y="152" type="curve" smooth="yes"/>
    </contour>
    <contour>
      <point x="342" y="257" type="line" smooth="yes"/>
      <point x="427" y="215"/>
      <point x="472" y="185"/>
      <point x="472" y="122" type="curve" smooth="yes"/>
      <point x="472" y="50"/>
      <point x="423" y="14"/>
      <point x="342" y="14" type="curve" smooth="yes"/>
      <point x="247" y="14"/>
      <point x="200" y="74"/>
      <point x="200" y="167" type="curve" smooth="yes"/>
      <point x="200" y="227"/>
      <point x="214" y="273"/>
      <point x="248" y="303" type="curve"/>
    </contour>
    <contour>
      <point x="221" y="663"/>
      <point x="272" y="686"/>
      <point x="339" y="686" type="curve" smooth="yes"/>
      <point x="413" y="686"/>
      <point x="462" y="648"/>
      <point x="462" y="566" type="curve" smooth="yes"/>
      <point x="462" y="490"/>
      <point x="430" y="446"/>
      <point x="398" y="419" type="curve"/>
      <point x="347" y="444" type="line" smooth="yes"/>
      <point x="272" y="480"/>
      <point x="221" y="506"/>
      <point x="221" y="593" type="curve" smooth="yes"/>
    </contour>
  </outline>
</glyph>
<glyph name="semicolon" format="1">
  <advance width="292"/>
  <unicode hex="003B"/>
  <outline>
    <contour>
      <point x="192" y="334"/>
      <point x="230" y="370"/>
      <point x="230" y="416" type="curve" smooth="yes"/>
      <point x="230" y="462"/>
      <point x="192" y="498"/>
      <point x="146" y="498" type="curve" smooth="yes"/>
      <point x="100" y="498"/>
      <point x="62" y="462"/>
      <point x="62" y="416" type="curve" smooth="yes"/>
      <point x="62" y="370"/>
      <point x="100" y="334"/>
      <point x="146" y="334" type="curve" smooth="yes"/>
    </contour>
    <contour>
      <point x="156" y="-36"/>
      <point x="139" y="-77"/>
      <point x="91" y="-128" type="curve"/>
      <point x="111" y="-149" type="line"/>
      <point x="175" y="-99"/>
      <point x="232" y="-13"/>
      <point x="232" y="68" type="curve" smooth="yes"/>
      <point x="232" y="127"/>
      <point x="195" y="156"/>
      <point x="144" y="156" type="curve" smooth="yes"/>
      <point x="90" y="156"/>
      <point x="60" y="120"/>
      <point x="60" y="76" type="curve" smooth="yes"/>
      <point x="60" y="32"/>
      <point x="88" y="-7"/>
      <point x="156" y="2" type="curve"/>
    </contour>
  </outline>
</glyph>
<glyph name="less" format="1">
  <advance width="570"/>
  <unicode hex="003C"/>
  <outline>
    <contour>
      <point x="86" y="268" type="line"/>
      <point x="454" y="46" type="line"/>
      <point x="470" y="73" type="line"/>
      <point x="123" y="278" type="line"/>
      <point x="470" y="483" type="line"/>
      <point x="454" y="510" type="line"/>
      <point x="86" y="288" type="line"/>
    </contour>
  </outline>
</glyph>
<glyph name="equal" format="1">
  <advance width="572"/>
  <unicode hex="003D"/>
  <outline>
    <contour>
      <point x="496" y="432" type="line"/>
      <point x="74" y="432" type="line"/>
      <point x="74" y="404" type="line"/>
      <point x="496" y="404" type="line"/>
    </contour>
    <contour>
      <point x="496" y="252" type="line"/>
      <point x="74" y="252" type="line"/>
      <point x="74" y="224" type="line"/>
      <point x="496" y="224" type="line"/>
    </contour>
  </outline>
</glyph>
<glyph name="B" format="1">
  <advance width="740"/>
  <unicode hex="0042"/>
  <outline>
    <contour>
      <point x="26" y="700" type="line"/>
      <point x="26" y="680" type="line"/>
      <point x="63" y="672" type="line" smooth="yes"/>
      <point x="82" y="668"/>
      <point x="87" y="666"/>
      <point x="87" y="650" type="curve" smooth="yes"/>
      <point x="87" y="50" type="line" smooth="yes"/>
      <point x="87" y="34"/>
      <point x="82" y="32"/>
      <point x="63" y="28" type="curve" smooth="yes"/>
      <point x="26" y="20" type="line"/>
      <point x="26" y="0" type="line"/>
      <point x="327" y="0" type="line" smooth="yes"/>
      <point x="586" y="0"/>
      <point x="696" y="43"/>
      <point x="696" y="184" type="curve" smooth="yes"/>
      <point x="696" y="310"/>
      <point x="626" y="358"/>
      <point x="457" y="371" type="curve"/>
      <point x="594" y="385"/>
      <point x="658" y="429"/>
      <point x="658" y="538" type="curve" smooth="yes"/>
      <point x="658" y="655"/>
      <point x="574" y="700"/>
      <point x="333" y="700" type="curve" smooth="yes"/>
    </contour>
    <contour>
      <point x="344" y="354" type="line" smooth="yes"/>
      <point x="457" y="354"/>
      <point x="490" y="299"/>
      <point x="490" y="184" type="curve" smooth="yes"/>
      <point x="490" y="83"/>
      <point x="440" y="30"/>
      <point x="336" y="30" type="curve" smooth="yes"/>
      <point x="291" y="30" type="line"/>
      <point x="291" y="354" type="line"/>
    </contour>
    <contour>
      <point x="291" y="670" type="line"/>
      <point x="340" y="670" type="line" smooth="yes"/>
      <point x="425" y="670"/>
      <point x="462" y="627"/>
      <point x="462" y="538" type="curve" smooth="yes"/>
      <point x="462" y="435"/>
      <point x="423" y="384"/>
      <point x="340" y="384" type="curve" smooth="yes"/>
      <point x="291" y="384" type="line"/>
    </contour>
  </outline>
</glyph>
<glyph name="F" format="1">
  <advance width="674"/>
  <unicode hex="0046"/>
  <outline>
    <contour>
      <point x="630" y="700" type="line"/>
      <point x="26" y="700" type="line"/>
      <point x="26" y="680" type="line"/>
      <point x="63" y="672" type="line" smooth="yes"/>
      <point x="82" y="668"/>
      <point x="87" y="666"/>
      <point x="87" y="650" type="curve" smooth="yes"/>
      <point x="87" y="50" type="line" smooth="yes"/>
      <point x="87" y="34"/>
      <point x="82" y="32"/>
      <point x="63" y="28" type="curve" smooth="yes"/>
      <point x="26" y="20" type="line"/>
      <point x="26" y="0" type="line"/>
      <point x="358" y="0" type="line"/>
      <point x="358" y="20" type="line"/>
      <point x="315" y="29" type="line" smooth="yes"/>
      <point x="296" y="33"/>
      <point x="291" y="35"/>
      <point x="291" y="51" type="curve" smooth="yes"/>
      <point x="291" y="343" type="line"/>
      <point x="541" y="343" type="line"/>
      <point x="541" y="373" type="line"/>
      <point x="291" y="373" type="line"/>
      <point x="291" y="670" type="line"/>
      <point x="421" y="670" type="line" smooth="yes"/>
      <point x="544" y="670"/>
      <point x="568" y="617"/>
      <point x="605" y="505" type="curve"/>
      <point x="630" y="505" type="line"/>
    </contour>
  </outline>
</glyph>
<glyph name="J" format="1">
  <advance width="622"/>
  <unicode hex="004A"/>
  <outline>
    <contour>
      <point x="168" y="15"/>
      <point x="128" y="46"/>
      <point x="101" y="206" type="curve"/>
      <point x="75" y="206" type="line"/>
      <point x="52" y="30" type="line"/>
      <point x="110" y="4"/>
      <point x="190" y="-12"/>
      <point x="245" y="-12" type="curve" smooth="yes"/>
      <point x="405" y="-12"/>
      <point x="539" y="46"/>
      <point x="539" y="226" type="curve" smooth="yes"/>
      <point x="539" y="650" type="line" smooth="yes"/>
      <point x="539" y="666"/>
      <point x="544" y="668"/>
      <point x="563" y="672" type="curve" smooth="yes"/>
      <point x="600" y="680" type="line"/>
      <point x="600" y="700" type="line"/>
      <point x="268" y="700" type="line"/>
      <point x="268" y="680" type="line"/>
      <point x="311" y="671" type="line" smooth="yes"/>
      <point x="330" y="667"/>
      <point x="335" y="665"/>
      <point x="335" y="649" type="curve" smooth="yes"/>
      <point x="335" y="206" type="line" smooth="yes"/>
      <point x="335" y="52"/>
      <point x="305" y="15"/>
      <point x="237" y="15" type="curve" smooth="yes"/>
    </contour>
  </outline>
</glyph>
<glyph name="K" format="1">
  <advance width="788"/>
  <unicode hex="004B"/>
  <outline>
    <contour>
      <point x="661" y="652" type="line" smooth="yes"/>
      <point x="676" y="665"/>
      <point x="687" y="676"/>
      <point x="712" y="677" type="curve" smooth="yes"/>
      <point x="754" y="680" type="line"/>
      <point x="754" y="700" type="line"/>
      <point x="575" y="700" type="line"/>
      <point x="575" y="681" type="line"/>
      <point x="618" y="677" type="line" smooth="yes"/>
      <point x="631" y="676"/>
      <point x="634" y="665"/>
      <point x="621" y="653" type="curve" smooth="yes"/>
      <point x="291" y="367" type="line"/>
      <point x="291" y="651" type="line" smooth="yes"/>
      <point x="291" y="666"/>
      <point x="296" y="669"/>
      <point x="314" y="672" type="curve"/>
      <point x="350" y="680" type="line"/>
      <point x="350" y="700" type="line"/>
      <point x="26" y="700" type="line"/>
      <point x="26" y="680" type="line"/>
      <point x="63" y="672" type="line" smooth="yes"/>
      <point x="82" y="668"/>
      <point x="87" y="666"/>
      <point x="87" y="650" type="curve" smooth="yes"/>
      <point x="87" y="50" type="line" smooth="yes"/>
      <point x="87" y="34"/>
      <point x="82" y="32"/>
      <point x="63" y="28" type="curve" smooth="yes"/>
      <point x="26" y="20" type="line"/>
      <point x="26" y="0" type="line"/>
      <point x="350" y="0" type="line"/>
      <point x="350" y="20" type="line"/>
      <point x="314" y="28" type="line" smooth="yes"/>
      <point x="296" y="32"/>
      <point x="291" y="34"/>
      <point x="291" y="49" type="curve" smooth="yes"/>
      <point x="291" y="331" type="line"/>
      <point x="310" y="348" type="line"/>
      <point x="497" y="34" type="line"/>
      <point x="510" y="15"/>
      <point x="526" y="0"/>
      <point x="565" y="0" type="curve" smooth="yes"/>
      <point x="776" y="0" type="line"/>
      <point x="776" y="20" type="line"/>
      <point x="733" y="27" type="line"/>
      <point x="717" y="29"/>
      <point x="712" y="34"/>
      <point x="702" y="49" type="curve" smooth="yes"/>
      <point x="483" y="398" type="line" smooth="yes"/>
      <point x="465" y="425"/>
      <point x="450" y="439"/>
      <point x="427" y="449" type="curve"/>
    </contour>
  </outline>
</glyph>
<glyph name="P" format="1">
  <advance width="740"/>
  <unicode hex="0050"/>
  <outline>
    <contour>
      <point x="692" y="651"/>
      <point x="580" y="700"/>
      <point x="317" y="700" type="curve" smooth="yes"/>
      <point x="26" y="700" type="line"/>
      <point x="26" y="680" type="line"/>
      <point x="63" y="672" type="line" smooth="yes"/>
      <point x="82" y="668"/>
      <point x="87" y="666"/>
      <point x="87" y="650" type="curve" smooth="yes"/>
      <point x="87" y="50" type="line" smooth="yes"/>
      <point x="87" y="34"/>
      <point x="82" y="32"/>
      <point x="63" y="28" type="curve" smooth="yes"/>
      <point x="26" y="20" type="line"/>
      <point x="26" y="0" type="line"/>
      <point x="358" y="0" type="line"/>
      <point x="358" y="20" type="line"/>
      <point x="315" y="29" type="line" smooth="yes"/>
      <point x="296" y="33"/>
      <point x="291" y="35"/>
      <point x="291" y="51" type="curve" smooth="yes"/>
      <point x="291" y="278" type="line"/>
      <point x="317" y="278" type="line" smooth="yes"/>
      <point x="580" y="278"/>
      <point x="692" y="327"/>
      <point x="692" y="489" type="curve" smooth="yes"/>
    </contour>
    <contour>
      <point x="326" y="670" type="line" smooth="yes"/>
      <point x="443" y="670"/>
      <point x="482" y="620"/>
      <point x="482" y="489" type="curve" smooth="yes"/>
      <point x="482" y="358"/>
      <point x="443" y="308"/>
      <point x="326" y="308" type="curve" smooth="yes"/>
      <point x="291" y="308" type="line"/>
      <point x="291" y="670" type="line"/>
    </contour>
  </outline>
</glyph>
<glyph name="V" format="1">
  <advance width="762"/>
  <unicode hex="0056"/>
  <outline>
    <contour>
      <point x="18" y="700" type="line"/>
      <point x="18" y="680" type="line"/>
      <point x="55" y="676" type="line" smooth="yes"/>
      <point x="71" y="674"/>
      <point x="76" y="668"/>
      <point x="83" y="652" type="curve" smooth="yes"/>
      <point x="373" y="-11" type="line"/>
      <point x="405" y="-11" type="line"/>
      <point x="679" y="652" type="line" smooth="yes"/>
      <point x="686" y="668"/>
      <point x="691" y="674"/>
      <point x="707" y="676" type="curve" smooth="yes"/>
      <point x="744" y="680" type="line"/>
      <point x="744" y="700" type="line"/>
      <point x="592" y="700" type="line"/>
      <point x="592" y="680" type="line"/>
      <point x="635" y="676" type="line" smooth="yes"/>
      <point x="648" y="675"/>
      <point x="652" y="668"/>
      <point x="646" y="653" type="curve" smooth="yes"/>
      <point x="477" y="239" type="line"/>
      <point x="295" y="649" type="line" smooth="yes"/>
      <point x="288" y="664"/>
      <point x="294" y="675"/>
      <point x="307" y="676" type="curve" smooth="yes"/>
      <point x="348" y="680" type="line"/>
      <point x="348" y="700" type="line"/>
    </contour>
  </outline>
</glyph>
<glyph name="X" format="1">
  <advance width="818"/>
  <unicode hex="0058"/>
  <outline>
    <contour>
      <point x="320" y="651" type="line" smooth="yes"/>
      <point x="311" y="664"/>
      <point x="312" y="675"/>
      <point x="327" y="676" type="curve" smooth="yes"/>
      <point x="367" y="680" type="line"/>
      <point x="367" y="700" type="line"/>
      <point x="20" y="700" type="line"/>
      <point x="20" y="680" type="line"/>
      <point x="60" y="676" type="line" smooth="yes"/>
      <point x="75" y="674"/>
      <point x="81" y="668"/>
      <point x="92" y="652" type="curve" smooth="yes"/>
      <point x="321" y="312" type="line"/>
      <point x="111" y="48" type="line" smooth="yes"/>
      <point x="100" y="34"/>
      <point x="92" y="25"/>
      <point x="67" y="23" type="curve" smooth="yes"/>
      <point x="29" y="20" type="line"/>
      <point x="29" y="0" type="line"/>
      <point x="205" y="0" type="line"/>
      <point x="205" y="19" type="line"/>
      <point x="161" y="23" type="line" smooth="yes"/>
      <point x="148" y="24"/>
      <point x="141" y="35"/>
      <point x="151" y="47" type="curve" smooth="yes"/>
      <point x="338" y="286" type="line"/>
      <point x="498" y="49" type="line" smooth="yes"/>
      <point x="507" y="36"/>
      <point x="506" y="25"/>
      <point x="491" y="24" type="curve" smooth="yes"/>
      <point x="451" y="20" type="line"/>
      <point x="451" y="0" type="line"/>
      <point x="798" y="0" type="line"/>
      <point x="798" y="20" type="line"/>
      <point x="758" y="24" type="line" smooth="yes"/>
      <point x="743" y="26"/>
      <point x="737" y="32"/>
      <point x="726" y="48" type="curve" smooth="yes"/>
      <point x="474" y="422" type="line"/>
      <point x="660" y="652" type="line" smooth="yes"/>
      <point x="672" y="666"/>
      <point x="679" y="676"/>
      <point x="704" y="677" type="curve"/>
      <point x="742" y="680" type="line"/>
      <point x="742" y="700" type="line"/>
      <point x="566" y="700" type="line"/>
      <point x="566" y="681" type="line"/>
      <point x="610" y="677" type="line" smooth="yes"/>
      <point x="623" y="676"/>
      <point x="630" y="665"/>
      <point x="620" y="653" type="curve" smooth="yes"/>
      <point x="456" y="448" type="line"/>
    </contour>
  </outline>
</glyph>
<glyph name="bracketleft" format="1">
  <advance width="376"/>
  <unicode hex="005B"/>
  <outline>
    <contour>
      <point x="106" y="-102" type="line"/>
      <point x="330" y="-102" type="line"/>
      <point x="330" y="-72" type="line"/>
      <point x="239" y="-72" type="line"/>
      <point x="239" y="752" type="line"/>
      <point x="330" y="752" type="line"/>
      <point x="330" y="782" type="line"/>
      <point x="106" y="782" type="line"/>
    </contour>
  </outline>
</glyph>
<glyph name="bracketright" format="1">
  <advance width="376"/>
  <unicode hex="005D"/>
  <outline>
    <contour>
      <point x="270" y="782" type="line"/>
      <point x="46" y="782" type="line"/>
      <point x="46" y="752" type="line"/>
      <point x="137" y="752" type="line"/>
      <point x="137" y="-72" type="line"/>
      <point x="46" y="-72" type="line"/>
      <point x="46" y="-102" type="line"/>
      <point x="270" y="-102" type="line"/>
    </contour>
  </outline>
</glyph>
<glyph name="grave" format="1">
  <advance width="440"/>
  <unicode hex="0060"/>
  <outline>
    <contour>
      <point x="131" y="704"/>
      <point x="106" y="669"/>
      <point x="105" y="631" type="curve"/>
      <point x="166" y="603"/>
      <point x="270" y="576"/>
      <point x="331" y="566" type="curve"/>
      <point x="336" y="577" type="line"/>
      <point x="281" y="619"/>
      <point x="204" y="673"/>
      <point x="161" y="718" type="curve"/>
    </contour>
  </outline>
</glyph>
<glyph name="b" format="1">
  <advance width="746"/>
  <unicode hex="0062"/>
  <outline>
    <contour>
      <point x="83" y="48" type="line" smooth="yes"/>
      <point x="83" y="32"/>
      <point x="78" y="30"/>
      <point x="59" y="26" type="curve" smooth="yes"/>
      <point x="24" y="18" type="line"/>
      <point x="24" y="0" type="line"/>
      <point x="281" y="0" type="line"/>
      <point x="281" y="56" type="line"/>
      <point x="312" y="22"/>
      <point x="365" y="-12"/>
      <point x="455" y="-12" type="curve" smooth="yes"/>
      <point x="593" y="-12"/>
      <point x="696" y="61"/>
      <point x="696" y="248" type="curve" smooth="yes"/>
      <point x="696" y="429"/>
      <point x="593" y="498"/>
      <point x="455" y="498" type="curve" smooth="yes"/>
      <point x="366" y="498"/>
      <point x="315" y="472"/>
      <point x="283" y="448" type="curve"/>
      <point x="283" y="730" type="line"/>
      <point x="264" y="730" type="line"/>
      <point x="24" y="700" type="line"/>
      <point x="24" y="682" type="line"/>
      <point x="59" y="674" type="line" smooth="yes"/>
      <point x="78" y="670"/>
      <point x="83" y="668"/>
      <point x="83" y="652" type="curve" smooth="yes"/>
    </contour>
    <contour>
      <point x="465" y="456"/>
      <point x="490" y="394"/>
      <point x="490" y="248" type="curve" smooth="yes"/>
      <point x="490" y="96"/>
      <point x="469" y="31"/>
      <point x="396" y="31" type="curve" smooth="yes"/>
      <point x="351" y="31"/>
      <point x="311" y="57"/>
      <point x="283" y="87" type="curve"/>
      <point x="283" y="418" type="line"/>
      <point x="311" y="441"/>
      <point x="347" y="456"/>
      <point x="391" y="456" type="curve" smooth="yes"/>
    </contour>
  </outline>
</glyph>
<glyph name="c" format="1">
  <advance width="636"/>
  <unicode hex="0063"/>
  <outline>
    <contour>
      <point x="162" y="498"/>
      <point x="50" y="415"/>
      <point x="50" y="249" type="curve" smooth="yes"/>
      <point x="50" y="69"/>
      <point x="166" y="-12"/>
      <point x="348" y="-12" type="curve" smooth="yes"/>
      <point x="460" y="-12"/>
      <point x="534" y="23"/>
      <point x="590" y="66" type="curve"/>
      <point x="577" y="85" type="line"/>
      <point x="530" y="53"/>
      <point x="480" y="32"/>
      <point x="414" y="32" type="curve" smooth="yes"/>
      <point x="286" y="32"/>
      <point x="258" y="116"/>
      <point x="258" y="270" type="curve" smooth="yes"/>
      <point x="258" y="395"/>
      <point x="290" y="472"/>
      <point x="392" y="472" type="curve" smooth="yes"/>
      <point x="486" y="472"/>
      <point x="522" y="417"/>
      <point x="548" y="327" type="curve"/>
      <point x="567" y="327" type="line"/>
      <point x="579" y="458" type="line"/>
      <point x="539" y="478"/>
      <point x="476" y="498"/>
      <point x="374" y="498" type="curve" smooth="yes"/>
    </contour>
  </outline>
</glyph>
<glyph name="f" format="1">
  <advance width="450"/>
  <unicode hex="0066"/>
  <outline>
    <contour>
      <point x="20" y="460" type="line"/>
      <point x="85" y="460" type="line"/>
      <point x="85" y="48" type="line" smooth="yes"/>
      <point x="85" y="32"/>
      <point x="80" y="30"/>
      <point x="61" y="26" type="curve" smooth="yes"/>
      <point x="26" y="18" type="line"/>
      <point x="26" y="0" type="line"/>
      <point x="344" y="0" type="line"/>
      <point x="344" y="18" type="line"/>
      <point x="307" y="27" type="line" smooth="yes"/>
      <point x="288" y="31"/>
      <point x="283" y="33"/>
      <point x="283" y="49" type="curve" smooth="yes"/>
      <point x="283" y="460" type="line"/>
      <point x="404" y="460" type="line"/>
      <point x="404" y="486" type="line"/>
      <point x="283" y="486" type="line"/>
      <point x="283" y="515" type="line" smooth="yes"/>
      <point x="283" y="566"/>
      <point x="256" y="592"/>
      <point x="256" y="657" type="curve" smooth="yes"/>
      <point x="256" y="689"/>
      <point x="273" y="706"/>
      <point x="314" y="706" type="curve" smooth="yes"/>
      <point x="384" y="706"/>
      <point x="399" y="659"/>
      <point x="431" y="569" type="curve"/>
      <point x="452" y="569" type="line"/>
      <point x="464" y="700" type="line"/>
      <point x="435" y="714"/>
      <point x="382" y="730"/>
      <point x="305" y="730" type="curve" smooth="yes"/>
      <point x="144" y="730"/>
      <point x="85" y="674"/>
      <point x="85" y="566" type="curve" smooth="yes"/>
      <point x="85" y="486" type="line"/>
      <point x="20" y="486" type="line"/>
    </contour>
  </outline>
</glyph>
<glyph name="j" format="1">
  <advance width="388"/>
  <unicode hex="006A"/>
  <outline>
    <contour>
      <point x="266" y="562"/>
      <point x="308" y="589"/>
      <point x="308" y="646" type="curve" smooth="yes"/>
      <point x="308" y="703"/>
      <point x="266" y="730"/>
      <point x="205" y="730" type="curve" smooth="yes"/>
      <point x="144" y="730"/>
      <point x="102" y="703"/>
      <point x="102" y="646" type="curve" smooth="yes"/>
      <point x="102" y="589"/>
      <point x="144" y="562"/>
      <point x="205" y="562" type="curve" smooth="yes"/>
    </contour>
    <contour>
      <point x="105" y="-102" type="line" smooth="yes"/>
      <point x="105" y="-188"/>
      <point x="86" y="-204"/>
      <point x="48" y="-204" type="curve" smooth="yes"/>
      <point x="15" y="-204"/>
      <point x="-17" y="-189"/>
      <point x="-40" y="-169" type="curve"/>
      <point x="-53" y="-188" type="line"/>
      <point x="-28" y="-211"/>
      <point x="21" y="-240"/>
      <point x="110" y="-240" type="curve" smooth="yes"/>
      <point x="258" y="-240"/>
      <point x="305" y="-168"/>
      <point x="305" y="-31" type="curve" smooth="yes"/>
      <point x="305" y="504" type="line"/>
      <point x="286" y="504" type="line"/>
      <point x="46" y="474" type="line"/>
      <point x="46" y="456" type="line"/>
      <point x="81" y="448" type="line" smooth="yes"/>
      <point x="100" y="444"/>
      <point x="105" y="442"/>
      <point x="105" y="426" type="curve" smooth="yes"/>
    </contour>
  </outline>
</glyph>
<glyph name="k" format="1">
  <advance width="748"/>
  <unicode hex="006B"/>
  <outline>
    <contour>
      <point x="482" y="333"/>
      <point x="454" y="276"/>
      <point x="341" y="276" type="curve" smooth="yes"/>
      <point x="283" y="276" type="line"/>
      <point x="283" y="730" type="line"/>
      <point x="264" y="730" type="line"/>
      <point x="24" y="700" type="line"/>
      <point x="24" y="682" type="line"/>
      <point x="59" y="674" type="line" smooth="yes"/>
      <point x="78" y="670"/>
      <point x="83" y="668"/>
      <point x="83" y="652" type="curve" smooth="yes"/>
      <point x="83" y="48" type="line" smooth="yes"/>
      <point x="83" y="32"/>
      <point x="78" y="30"/>
      <point x="59" y="26" type="curve" smooth="yes"/>
      <point x="24" y="18" type="line"/>
      <point x="24" y="0" type="line"/>
      <point x="340" y="0" type="line"/>
      <point x="340" y="18" type="line"/>
      <point x="306" y="25" type="line" smooth="yes"/>
      <point x="287" y="29"/>
      <point x="283" y="33"/>
      <point x="283" y="48" type="curve" smooth="yes"/>
      <point x="283" y="250" type="line"/>
      <point x="317" y="250" type="line"/>
      <point x="472" y="34" type="line" smooth="yes"/>
      <point x="485" y="15"/>
      <point x="501" y="0"/>
      <point x="540" y="0" type="curve" smooth="yes"/>
      <point x="732" y="0" type="line"/>
      <point x="732" y="18" type="line"/>
      <point x="701" y="24" type="line" smooth="yes"/>
      <point x="687" y="27"/>
      <point x="681" y="31"/>
      <point x="669" y="46" type="curve" smooth="yes"/>
      <point x="558" y="192" type="line" smooth="yes"/>
      <point x="529" y="229"/>
      <point x="510" y="246"/>
      <point x="472" y="256" type="curve"/>
      <point x="627" y="278"/>
      <point x="661" y="356"/>
      <point x="661" y="416" type="curve" smooth="yes"/>
      <point x="661" y="465"/>
      <point x="640" y="498"/>
      <point x="556" y="498" type="curve" smooth="yes"/>
      <point x="514" y="498"/>
      <point x="469" y="489"/>
      <point x="439" y="480" type="curve"/>
      <point x="439" y="462" type="line"/>
      <point x="450" y="461" type="line" smooth="yes"/>
      <point x="468" y="459"/>
      <point x="482" y="446"/>
      <point x="482" y="408" type="curve" smooth="yes"/>
    </contour>
  </outline>
</glyph>
<glyph name="q" format="1">
  <advance width="746"/>
  <unicode hex="0071"/>
  <outline>
    <contour>
      <point x="467" y="483" type="line"/>
      <point x="467" y="446" type="line"/>
      <point x="434" y="471"/>
      <point x="384" y="498"/>
      <point x="293" y="498" type="curve" smooth="yes"/>
      <point x="155" y="498"/>
      <point x="52" y="430"/>
      <point x="52" y="249" type="curve" smooth="yes"/>
      <point x="52" y="62"/>
      <point x="155" y="-10"/>
      <point x="293" y="-10" type="curve" smooth="yes"/>
      <point x="381" y="-10"/>
      <point x="433" y="22"/>
      <point x="465" y="55" type="curve"/>
      <point x="465" y="-178" type="line" smooth="yes"/>
      <point x="465" y="-194"/>
      <point x="460" y="-196"/>
      <point x="441" y="-200" type="curve" smooth="yes"/>
      <point x="406" y="-208" type="line"/>
      <point x="406" y="-226" type="line"/>
      <point x="724" y="-226" type="line"/>
      <point x="724" y="-208" type="line"/>
      <point x="689" y="-200" type="line" smooth="yes"/>
      <point x="670" y="-196"/>
      <point x="665" y="-194"/>
      <point x="665" y="-178" type="curve" smooth="yes"/>
      <point x="665" y="504" type="line"/>
      <point x="648" y="504" type="line"/>
    </contour>
    <contour>
      <point x="279" y="33"/>
      <point x="258" y="97"/>
      <point x="258" y="249" type="curve" smooth="yes"/>
      <point x="258" y="395"/>
      <point x="283" y="456"/>
      <point x="357" y="456" type="curve" smooth="yes"/>
      <point x="401" y="456"/>
      <point x="436" y="441"/>
      <point x="465" y="418" type="curve"/>
      <point x="465" y="89" type="line"/>
      <point x="436" y="59"/>
      <point x="397" y="33"/>
      <point x="352" y="33" type="curve" smooth="yes"/>
    </contour>
  </outline>
</glyph>
<glyph name="r" format="1">
  <advance width="540"/>
  <unicode hex="0072"/>
  <outline>
    <contour>
      <point x="281" y="504" type="line"/>
      <point x="264" y="504" type="line"/>
      <point x="24" y="474" type="line"/>
      <point x="24" y="456" type="line"/>
      <point x="59" y="448" type="line" smooth="yes"/>
      <point x="78" y="444"/>
      <point x="83" y="442"/>
      <point x="83" y="426" type="curve" smooth="yes"/>
      <point x="83" y="48" type="line" smooth="yes"/>
      <point x="83" y="32"/>
      <point x="78" y="30"/>
      <point x="59" y="26" type="curve" smooth="yes"/>
      <point x="24" y="18" type="line"/>
      <point x="24" y="0" type="line"/>
      <point x="340" y="0" type="line"/>
      <point x="340" y="18" type="line"/>
      <point x="306" y="25" type="line" smooth="yes"/>
      <point x="287" y="29"/>
      <point x="283" y="33"/>
      <point x="283" y="48" type="curve" smooth="yes"/>
      <point x="283" y="376" type="line"/>
      <point x="488" y="331" type="line"/>
      <point x="495" y="331" type="line"/>
      <point x="510" y="487" type="line"/>
      <point x="498" y="492"/>
      <point x="479" y="495"/>
      <point x="458" y="495" type="curve" smooth="yes"/>
      <point x="381" y="495"/>
      <point x="322" y="448"/>
      <point x="281" y="406" type="curve"/>
    </contour>
  </outline>
</glyph>
<glyph name="x" format="1">
  <advance width="646"/>
  <unicode hex="0078"/>
  <outline>
    <contour>
      <point x="294" y="430" type="line" smooth="yes"/>
      <point x="278" y="453"/>
      <point x="285" y="461"/>
      <point x="303" y="465" type="curve" smooth="yes"/>
      <point x="335" y="471" type="line"/>
      <point x="335" y="486" type="line"/>
      <point x="10" y="486" type="line"/>
      <point x="10" y="471" type="line"/>
      <point x="43" y="462" type="line"/>
      <point x="53" y="460"/>
      <point x="63" y="458"/>
      <point x="73" y="444" type="curve" smooth="yes"/>
      <point x="245" y="204" type="line"/>
      <point x="94" y="38" type="line" smooth="yes"/>
      <point x="79" y="22"/>
      <point x="74" y="21"/>
      <point x="57" y="19" type="curve"/>
      <point x="33" y="15" type="line"/>
      <point x="33" y="0" type="line"/>
      <point x="153" y="0" type="line"/>
      <point x="153" y="15" type="line"/>
      <point x="126" y="17" type="line" smooth="yes"/>
      <point x="114" y="18"/>
      <point x="112" y="27"/>
      <point x="120" y="35" type="curve"/>
      <point x="258" y="186" type="line"/>
      <point x="352" y="56" type="line" smooth="yes"/>
      <point x="368" y="33"/>
      <point x="361" y="25"/>
      <point x="343" y="21" type="curve" smooth="yes"/>
      <point x="311" y="15" type="line"/>
      <point x="311" y="0" type="line"/>
      <point x="636" y="0" type="line"/>
      <point x="636" y="15" type="line"/>
      <point x="603" y="24" type="line"/>
      <point x="593" y="26"/>
      <point x="583" y="28"/>
      <point x="573" y="42" type="curve" smooth="yes"/>
      <point x="383" y="305" type="line"/>
      <point x="512" y="448" type="line" smooth="yes"/>
      <point x="527" y="464"/>
      <point x="532" y="465"/>
      <point x="549" y="467" type="curve"/>
      <point x="573" y="471" type="line"/>
      <point x="573" y="486" type="line"/>
      <point x="453" y="486" type="line"/>
      <point x="453" y="471" type="line"/>
      <point x="480" y="469" type="line" smooth="yes"/>
      <point x="492" y="468"/>
      <point x="494" y="459"/>
      <point x="486" y="451" type="curve"/>
      <point x="371" y="323" type="line"/>
    </contour>
  </outline>
</glyph>
<glyph name="braceright" format="1">
  <advance width="380"/>
  <unicode hex="007D"/>
  <outline>
    <contour>
      <point x="318" y="353" type="line"/>
      <point x="273" y="360" type="line" smooth="yes"/>
      <point x="251" y="363"/>
      <point x="245" y="376"/>
      <point x="245" y="395" type="curve" smooth="yes"/>
      <point x="245" y="404"/>
      <point x="246" y="414"/>
      <point x="248" y="425" type="curve" smooth="yes"/>
      <point x="262" y="507"/>
      <point x="278" y="574"/>
      <point x="278" y="630" type="curve" smooth="yes"/>
      <point x="278" y="711"/>
      <point x="241" y="773"/>
      <point x="116" y="779" type="curve" smooth="yes"/>
      <point x="50" y="782" type="line"/>
      <point x="50" y="754" type="line"/>
      <point x="113" y="750" type="line" smooth="yes"/>
      <point x="148" y="748"/>
      <point x="157" y="733"/>
      <point x="157" y="711" type="curve" smooth="yes"/>
      <point x="157" y="670"/>
      <point x="116" y="540"/>
      <point x="113" y="439" type="curve" smooth="yes"/>
      <point x="111" y="387"/>
      <point x="120" y="350"/>
      <point x="207" y="340" type="curve"/>
      <point x="120" y="330"/>
      <point x="111" y="293"/>
      <point x="113" y="241" type="curve" smooth="yes"/>
      <point x="116" y="140"/>
      <point x="157" y="10"/>
      <point x="157" y="-31" type="curve" smooth="yes"/>
      <point x="157" y="-53"/>
      <point x="148" y="-68"/>
      <point x="113" y="-70" type="curve" smooth="yes"/>
      <point x="50" y="-74" type="line"/>
      <point x="50" y="-102" type="line"/>
      <point x="116" y="-99" type="line" smooth="yes"/>
      <point x="241" y="-93"/>
      <point x="278" y="-31"/>
      <point x="278" y="50" type="curve" smooth="yes"/>
      <point x="278" y="106"/>
      <point x="262" y="173"/>
      <point x="248" y="255" type="curve" smooth="yes"/>
      <point x="246" y="266"/>
      <point x="245" y="276"/>
      <point x="245" y="285" type="curve" smooth="yes"/>
      <point x="245" y="304"/>
      <point x="251" y="317"/>
      <point x="273" y="320" type="curve" smooth="yes"/>
      <point x="318" y="327" type="line"/>
    </contour>
  </outline>
</glyph>
<glyph name="asciitilde" format="1">
  <advance width="570"/>
  <unicode hex="007E"/>
  <outline>
    <contour>
      <point x="349" y="330"/>
      <point x="255" y="406"/>
      <point x="202" y="406" type="curve" smooth="yes"/>
      <point x="133" y="406"/>
      <point x="89" y="335"/>
      <point x="76" y="275" type="curve"/>
      <point x="93" y="266" type="line"/>
      <point x="110" y="303"/>
      <point x="129" y="338"/>
      <point x="163" y="338" type="curve" smooth="yes"/>
      <point x="221" y="338"/>
      <point x="315" y="262"/>
      <point x="368" y="262" type="curve" smooth="yes"/>
      <point x="437" y="262"/>
      <point x="481" y="333"/>
      <point x="494" y="393" type="curve"/>
      <point x="477" y="402" type="line"/>
      <point x="460" y="365"/>
      <point x="441" y="330"/>
      <point x="407" y="330" type="curve" smooth="yes"/>
    </contour>
  </outline>
</glyph>
<glyph name="cent" format="1">
  <advance width="638"/>
  <unicode hex="00A2"/>
  <outline>
    <contour>
      <point x="393" y="-100" type="line"/>
      <point x="423" y="-100" type="line"/>
      <point x="423" y="-6" type="line"/>
      <point x="494" y="5"/>
      <point x="547" y="33"/>
      <point x="590" y="66" type="curve"/>
      <point x="577" y="85" type="line"/>
      <point x="532" y="54"/>
      <point x="484" y="34"/>
      <point x="423" y="32" type="curve"/>
      <point x="423" y="469" type="line"/>
      <point x="494" y="458"/>
      <point x="524" y="406"/>
      <point x="548" y="327" type="curve"/>
      <point x="567" y="327" type="line"/>
      <point x="579" y="458" type="line"/>
      <point x="546" y="474"/>
      <point x="497" y="491"/>
      <point x="423" y="496" type="curve"/>
      <point x="423" y="586" type="line"/>
      <point x="393" y="586" type="line"/>
      <point x="393" y="498" type="line"/>
      <point x="374" y="498" type="line" smooth="yes"/>
      <point x="162" y="498"/>
      <point x="50" y="415"/>
      <point x="50" y="249" type="curve" smooth="yes"/>
      <point x="50" y="69"/>
      <point x="166" y="-12"/>
      <point x="348" y="-12" type="curve" smooth="yes"/>
      <point x="363" y="-12"/>
      <point x="379" y="-11"/>
      <point x="393" y="-10" type="curve"/>
    </contour>
    <contour>
      <point x="258" y="395"/>
      <point x="290" y="472"/>
      <point x="392" y="472" type="curve" smooth="yes"/>
      <point x="393" y="472" type="line"/>
      <point x="393" y="33" type="line"/>
      <point x="283" y="42"/>
      <point x="258" y="125"/>
      <point x="258" y="270" type="curve" smooth="yes"/>
    </contour>
  </outline>
</glyph>
<glyph name="sterling" format="1">
  <advance width="668"/>
  <unicode hex="00A3"/>
  <outline>
    <contour>
      <point x="40" y="368" type="line"/>
      <point x="115" y="368" type="line"/>
      <point x="155" y="287"/>
      <point x="209" y="215"/>
      <point x="209" y="169" type="curve" smooth="yes"/>
      <point x="209" y="105"/>
      <point x="158" y="46"/>
      <point x="60" y="23" type="curve"/>
      <point x="65" y="0" type="line"/>
      <point x="534" y="0" type="line" smooth="yes"/>
      <point x="585" y="0"/>
      <point x="620" y="26"/>
      <point x="620" y="88" type="curve" smooth="yes"/>
      <point x="620" y="189" type="line"/>
      <point x="600" y="189" type="line"/>
      <point x="594" y="164" type="line" smooth="yes"/>
      <point x="590" y="145"/>
      <point x="588" y="140"/>
      <point x="572" y="140" type="curve" smooth="yes"/>
      <point x="255" y="140" type="line"/>
      <point x="303" y="174"/>
      <point x="338" y="220"/>
      <point x="338" y="270" type="curve" smooth="yes"/>
      <point x="338" y="305"/>
      <point x="329" y="337"/>
      <point x="316" y="368" type="curve"/>
      <point x="472" y="368" type="line"/>
      <point x="472" y="396" type="line"/>
      <point x="305" y="396" type="line"/>
      <point x="280" y="451"/>
      <point x="250" y="505"/>
      <point x="250" y="570" type="curve" smooth="yes"/>
      <point x="250" y="641"/>
      <point x="284" y="686"/>
      <point x="383" y="686" type="curve" smooth="yes"/>
      <point x="502" y="686"/>
      <point x="532" y="626"/>
      <point x="560" y="524" type="curve"/>
      <point x="583" y="524" type="line"/>
      <point x="597" y="676" type="line"/>
      <point x="549" y="701"/>
      <point x="466" y="712"/>
      <point x="381" y="712" type="curve" smooth="yes"/>
      <point x="208" y="712"/>
      <point x="73" y="655"/>
      <point x="73" y="516" type="curve" smooth="yes"/>
      <point x="73" y="476"/>
      <point x="85" y="435"/>
      <point x="102" y="396" type="curve"/>
      <point x="40" y="396" type="line"/>
    </contour>
  </outline>
</glyph>
<glyph name="yen" format="1">
  <advance width="722"/>
  <unicode hex="00A5"/>
  <outline>
    <contour>
      <point x="116" y="282" type="line"/>
      <point x="256" y="282" type="line"/>
      <point x="256" y="206" type="line"/>
      <point x="116" y="206" type="line"/>
      <point x="116" y="178" type="line"/>
      <point x="256" y="178" type="line"/>
      <point x="256" y="50" type="line" smooth="yes"/>
      <point x="256" y="34"/>
      <point x="251" y="32"/>
      <point x="232" y="28" type="curve" smooth="yes"/>
      <point x="195" y="20" type="line"/>
      <point x="195" y="0" type="line"/>
      <point x="521" y="0" type="line"/>
      <point x="521" y="20" type="line"/>
      <point x="484" y="28" type="line" smooth="yes"/>
      <point x="465" y="32"/>
      <point x="460" y="34"/>
      <point x="460" y="50" type="curve" smooth="yes"/>
      <point x="460" y="178" type="line"/>
      <point x="600" y="178" type="line"/>
      <point x="600" y="206" type="line"/>
      <point x="460" y="206" type="line"/>
      <point x="460" y="282" type="line"/>
      <point x="600" y="282" type="line"/>
      <point x="600" y="310" type="line"/>
      <point x="469" y="310" type="line"/>
      <point x="647" y="652" type="line"/>
      <point x="655" y="666"/>
      <point x="659" y="675"/>
      <point x="683" y="677" type="curve" smooth="yes"/>
      <point x="714" y="680" type="line"/>
      <point x="714" y="700" type="line"/>
      <point x="548" y="700" type="line"/>
      <point x="548" y="681" type="line"/>
      <point x="595" y="677" type="line" smooth="yes"/>
      <point x="609" y="676"/>
      <point x="620" y="665"/>
      <point x="613" y="653" type="curve"/>
      <point x="439" y="317" type="line"/>
      <point x="283" y="651" type="line"/>
      <point x="276" y="664"/>
      <point x="278" y="675"/>
      <point x="293" y="676" type="curve" smooth="yes"/>
      <point x="333" y="680" type="line"/>
      <point x="333" y="700" type="line"/>
      <point x="8" y="700" type="line"/>
      <point x="8" y="680" type="line"/>
      <point x="47" y="676" type="line"/>
      <point x="61" y="674"/>
      <point x="67" y="668"/>
      <point x="76" y="652" type="curve"/>
      <point x="244" y="310" type="line"/>
      <point x="116" y="310" type="line"/>
    </contour>
  </outline>
</glyph>
<glyph name="section" format="1">
  <advance width="580"/>
  <unicode hex="00A7"/>
  <outline>
    <contour>
      <point x="410" y="736"/>
      <point x="450" y="700"/>
      <point x="470" y="610" type="curve"/>
      <point x="485" y="610" type="line"/>
      <point x="499" y="736" type="line"/>
      <point x="456" y="748"/>
      <point x="387" y="760"/>
      <point x="322" y="760" type="curve" smooth="yes"/>
      <point x="162" y="760"/>
      <point x="72" y="706"/>
      <point x="72" y="606" type="curve" smooth="yes"/>
      <point x="72" y="521"/>
      <point x="113" y="488"/>
      <point x="226" y="440" type="curve"/>
      <point x="135" y="407"/>
      <point x="54" y="365"/>
      <point x="54" y="285" type="curve" smooth="yes"/>
      <point x="54" y="188"/>
      <point x="112" y="150"/>
      <point x="233" y="106" type="curve" smooth="yes"/>
      <point x="333" y="70"/>
      <point x="366" y="45"/>
      <point x="366" y="-4" type="curve" smooth="yes"/>
      <point x="366" y="-53"/>
      <point x="329" y="-76"/>
      <point x="260" y="-76" type="curve" smooth="yes"/>
      <point x="178" y="-76"/>
      <point x="123" y="-30"/>
      <point x="98" y="72" type="curve"/>
      <point x="83" y="72" type="line"/>
      <point x="69" y="-64" type="line"/>
      <point x="110" y="-82"/>
      <point x="201" y="-100"/>
      <point x="266" y="-100" type="curve" smooth="yes"/>
      <point x="426" y="-100"/>
      <point x="516" y="-43"/>
      <point x="516" y="49" type="curve" smooth="yes"/>
      <point x="516" y="140"/>
      <point x="471" y="175"/>
      <point x="359" y="223" type="curve"/>
      <point x="446" y="256"/>
      <point x="522" y="301"/>
      <point x="522" y="382" type="curve" smooth="yes"/>
      <point x="522" y="475"/>
      <point x="470" y="515"/>
      <point x="349" y="559" type="curve" smooth="yes"/>
      <point x="249" y="595"/>
      <point x="222" y="618"/>
      <point x="222" y="667" type="curve" smooth="yes"/>
      <point x="222" y="716"/>
      <point x="259" y="736"/>
      <point x="328" y="736" type="curve" smooth="yes"/>
    </contour>
    <contour>
      <point x="181" y="386"/>
      <point x="213" y="411"/>
      <point x="249" y="430" type="curve"/>
      <point x="272" y="421" type="line" smooth="yes"/>
      <point x="369" y="382"/>
      <point x="395" y="364"/>
      <point x="395" y="318" type="curve" smooth="yes"/>
      <point x="395" y="279"/>
      <point x="367" y="253"/>
      <point x="334" y="234" type="curve"/>
      <point x="326" y="237"/>
      <point x="318" y="240"/>
      <point x="310" y="244" type="curve"/>
      <point x="213" y="283"/>
      <point x="181" y="299"/>
      <point x="181" y="345" type="curve" smooth="yes"/>
    </contour>
  </outline>
</glyph>
<glyph name="dieresis" format="1">
  <advance width="440"/>
  <unicode hex="00A8"/>
  <outline>
    <contour>
      <point x="147" y="573"/>
      <point x="178" y="605"/>
      <point x="178" y="646" type="curve" smooth="yes"/>
      <point x="178" y="687"/>
      <point x="147" y="719"/>
      <point x="101" y="719" type="curve" smooth="yes"/>
      <point x="55" y="719"/>
      <point x="24" y="687"/>
      <point x="24" y="646" type="curve" smooth="yes"/>
      <point x="24" y="605"/>
      <point x="55" y="573"/>
      <point x="101" y="573" type="curve" smooth="yes"/>
    </contour>
    <contour>
      <point x="385" y="573"/>
      <point x="416" y="605"/>
      <point x="416" y="646" type="curve" smooth="yes"/>
      <point x="416" y="687"/>
      <point x="385" y="719"/>
      <point x="339" y="719" type="curve" smooth="yes"/>
      <point x="293" y="719"/>
      <point x="262" y="687"/>
      <point x="262" y="646" type="curve" smooth="yes"/>
      <point x="262" y="605"/>
      <point x="293" y="573"/>
      <point x="339" y="573" type="curve" smooth="yes"/>
    </contour>
  </outline>
</glyph>
<glyph name="guillemotleft" format="1">
  <advance width="486"/>
  <unicode hex="00AB"/>
  <outline>
    <contour>
      <point x="54" y="262" type="line"/>
      <point x="224" y="93" type="line"/>
      <point x="240" y="107" type="line"/>
      <point x="191" y="165"/>
      <point x="168" y="220"/>
      <point x="168" y="277" type="curve" smooth="yes"/>
      <point x="168" y="334"/>
      <point x="191" y="389"/>
      <point x="240" y="447" type="curve"/>
      <point x="224" y="461" type="line"/>
      <point x="54" y="292" type="line"/>
    </contour>
    <contour>
      <point x="240" y="262" type="line"/>
      <point x="410" y="93" type="line"/>
      <point x="426" y="107" type="line"/>
      <point x="377" y="165"/>
      <point x="354" y="220"/>
      <point x="354" y="277" type="curve" smooth="yes"/>
      <point x="354" y="334"/>
      <point x="377" y="389"/>
      <point x="426" y="447" type="curve"/>
      <point x="410" y="461" type="line"/>
      <point x="240" y="292" type="line"/>
    </contour>
  </outline>
</glyph>
<glyph name="logicalnot" format="1">
  <advance width="570"/>
  <unicode hex="00AC"/>
  <outline>
    <contour>
      <point x="492" y="342" type="line"/>
      <point x="74" y="342" type="line"/>
      <point x="74" y="314" type="line"/>
      <point x="462" y="314" type="line"/>
      <point x="462" y="171" type="line"/>
      <point x="492" y="171" type="line"/>
    </contour>
  </outline>
</glyph>
<glyph name="registered" format="1">
  <advance width="614"/>
  <unicode hex="00AE"/>
  <outline>
    <contour>
      <point x="52" y="314"/>
      <point x="160" y="200"/>
      <point x="307" y="200" type="curve" smooth="yes"/>
      <point x="454" y="200"/>
      <point x="562" y="314"/>
      <point x="562" y="455" type="curve" smooth="yes"/>
      <point x="562" y="596"/>
      <point x="454" y="710"/>
      <point x="307" y="710" type="curve" smooth="yes"/>
      <point x="160" y="710"/>
      <point x="52" y="596"/>
      <point x="52" y="455" type="curve" smooth="yes"/>
    </contour>
    <contour>
      <point x="71" y="585"/>
      <point x="171" y="691"/>
      <point x="307" y="691" type="curve" smooth="yes"/>
      <point x="443" y="691"/>
      <point x="543" y="585"/>
      <point x="543" y="455" type="curve" smooth="yes"/>
      <point x="543" y="325"/>
      <point x="443" y="219"/>
      <point x="307" y="219" type="curve" smooth="yes"/>
      <point x="171" y="219"/>
      <point x="71" y="325"/>
      <point x="71" y="455" type="curve" smooth="yes"/>
    </contour>
    <contour>
      <point x="194" y="348" type="line" smooth="yes"/>
      <point x="194" y="342"/>
      <point x="192" y="339"/>
      <point x="185" y="338" type="curve"/>
      <point x="171" y="335" type="line"/>
      <point x="171" y="325" type="line"/>
      <point x="305" y="325" type="line"/>
      <point x="305" y="335" type="line"/>
      <point x="291" y="338" type="line"/>
      <point x="284" y="339"/>
      <point x="282" y="342"/>
      <point x="282" y="348" type="curve" smooth="yes"/>
      <point x="282" y="454" type="line"/>
      <point x="300" y="454" type="line"/>
      <point x="326" y="452"/>
      <point x="329" y="445"/>
      <point x="335" y="414" type="curve" smooth="yes"/>
      <point x="340" y="385" type="line" smooth="yes"/>
      <point x="349" y="335"/>
      <point x="367" y="321"/>
      <point x="416" y="321" type="curve" smooth="yes"/>
      <point x="452" y="321"/>
      <point x="466" y="335"/>
      <point x="472" y="346" type="curve"/>
      <point x="462" y="354" type="line"/>
      <point x="458" y="345"/>
      <point x="451" y="341"/>
      <point x="444" y="341" type="curve" smooth="yes"/>
      <point x="433" y="341"/>
      <point x="434" y="347"/>
      <point x="429" y="373" type="curve" smooth="yes"/>
      <point x="425" y="397" type="line" smooth="yes"/>
      <point x="417" y="440"/>
      <point x="397" y="455"/>
      <point x="351" y="457" type="curve"/>
      <point x="406" y="465"/>
      <point x="430" y="486"/>
      <point x="430" y="525" type="curve" smooth="yes"/>
      <point x="430" y="579"/>
      <point x="389" y="597"/>
      <point x="287" y="597" type="curve" smooth="yes"/>
      <point x="171" y="597" type="line"/>
      <point x="171" y="587" type="line"/>
      <point x="185" y="584" type="line"/>
      <point x="192" y="583"/>
      <point x="194" y="580"/>
      <point x="194" y="574" type="curve" smooth="yes"/>
    </contour>
    <contour>
      <point x="290" y="583" type="line" smooth="yes"/>
      <point x="336" y="583"/>
      <point x="345" y="567"/>
      <point x="345" y="525" type="curve" smooth="yes"/>
      <point x="345" y="484"/>
      <point x="336" y="468"/>
      <point x="290" y="468" type="curve" smooth="yes"/>
      <point x="282" y="468" type="line"/>
      <point x="282" y="583" type="line"/>
    </contour>
  </outline>
</glyph>
<glyph name="mu" format="1">
  <advance width="750"/>
  <unicode hex="00B5"/>
  <outline>
    <contour>
      <point x="342" y="-226" type="line"/>
      <point x="342" y="-208" type="line"/>
      <point x="307" y="-200" type="line" smooth="yes"/>
      <point x="288" y="-196"/>
      <point x="283" y="-194"/>
      <point x="283" y="-178" type="curve" smooth="yes"/>
      <point x="283" y="-11" type="line"/>
      <point x="368" y="-4"/>
      <point x="432" y="32"/>
      <point x="469" y="63" type="curve"/>
      <point x="469" y="52" type="line" smooth="yes"/>
      <point x="469" y="16"/>
      <point x="483" y="0"/>
      <point x="523" y="0" type="curve" smooth="yes"/>
      <point x="726" y="0" type="line"/>
      <point x="726" y="18" type="line"/>
      <point x="691" y="26" type="line" smooth="yes"/>
      <point x="672" y="30"/>
      <point x="667" y="32"/>
      <point x="667" y="48" type="curve" smooth="yes"/>
      <point x="667" y="504" type="line"/>
      <point x="650" y="504" type="line"/>
      <point x="408" y="474" type="line"/>
      <point x="408" y="456" type="line"/>
      <point x="443" y="448" type="line" smooth="yes"/>
      <point x="462" y="444"/>
      <point x="467" y="442"/>
      <point x="467" y="426" type="curve" smooth="yes"/>
      <point x="467" y="93" type="line"/>
      <point x="434" y="66"/>
      <point x="391" y="43"/>
      <point x="346" y="43" type="curve" smooth="yes"/>
      <point x="300" y="43"/>
      <point x="283" y="66"/>
      <point x="283" y="126" type="curve" smooth="yes"/>
      <point x="283" y="504" type="line"/>
      <point x="266" y="504" type="line"/>
      <point x="24" y="474" type="line"/>
      <point x="24" y="456" type="line"/>
      <point x="59" y="448" type="line" smooth="yes"/>
      <point x="78" y="444"/>
      <point x="83" y="442"/>
      <point x="83" y="426" type="curve" smooth="yes"/>
      <point x="83" y="-178" type="line" smooth="yes"/>
      <point x="83" y="-194"/>
      <point x="78" y="-196"/>
      <point x="59" y="-200" type="curve" smooth="yes"/>
      <point x="24" y="-208" type="line"/>
      <point x="24" y="-226" type="line"/>
    </contour>
  </outline>
</glyph>
<glyph name="periodcentered" format="1">
  <advance width="268"/>
  <unicode hex="00B7"/>
  <outline>
    <contour>
      <point x="180" y="196"/>
      <point x="218" y="232"/>
      <point x="218" y="278" type="curve" smooth="yes"/>
      <point x="218" y="324"/>
      <point x="180" y="360"/>
      <point x="134" y="360" type="curve" smooth="yes"/>
      <point x="88" y="360"/>
      <point x="50" y="324"/>
      <point x="50" y="278" type="curve" smooth="yes"/>
      <point x="50" y="232"/>
      <point x="88" y="196"/>
      <point x="134" y="196" type="curve" smooth="yes"/>
    </contour>
  </outline>
</glyph>
<glyph name="cedilla" format="1">
  <advance width="440"/>
  <unicode hex="00B8"/>
  <outline>
    <contour>
      <point x="205" y="-76" type="line"/>
      <point x="252" y="-84"/>
      <point x="288" y="-99"/>
      <point x="288" y="-141" type="curve" smooth="yes"/>
      <point x="288" y="-172"/>
      <point x="270" y="-183"/>
      <point x="232" y="-183" type="curve" smooth="yes"/>
      <point x="202" y="-183"/>
      <point x="180" y="-178"/>
      <point x="163" y="-170" type="curve"/>
      <point x="156" y="-188" type="line"/>
      <point x="177" y="-199"/>
      <point x="217" y="-208"/>
      <point x="251" y="-208" type="curve" smooth="yes"/>
      <point x="315" y="-208"/>
      <point x="372" y="-182"/>
      <point x="372" y="-123" type="curve" smooth="yes"/>
      <point x="372" y="-67"/>
      <point x="318" y="-40"/>
      <point x="234" y="-36" type="curve"/>
      <point x="238" y="0" type="line"/>
      <point x="216" y="0" type="line"/>
    </contour>
  </outline>
</glyph>
<glyph name="guillemotright" format="1">
  <advance width="486"/>
  <unicode hex="00BB"/>
  <outline>
    <contour>
      <point x="246" y="292" type="line"/>
      <point x="76" y="461" type="line"/>
      <point x="60" y="447" type="line"/>
      <point x="109" y="389"/>
      <point x="132" y="334"/>
      <point x="132" y="277" type="curve" smooth="yes"/>
      <point x="132" y="220"/>
      <point x="109" y="165"/>
      <point x="60" y="107" type="curve"/>
      <point x="76" y="93" type="line"/>
      <point x="246" y="262" type="line"/>
    </contour>
    <contour>
      <point x="432" y="292" type="line"/>
      <point x="262" y="461" type="line"/>
      <point x="246" y="447" type="line"/>
      <point x="295" y="389"/>
      <point x="318" y="334"/>
      <point x="318" y="277" type="curve" smooth="yes"/>
      <point x="318" y="220"/>
      <point x="295" y="165"/>
      <point x="246" y="107" type="curve"/>
      <point x="262" y="93" type="line"/>
      <point x="432" y="262" type="line"/>
    </contour>
  </outline>
</glyph>
<glyph name="onequarter" format="1">
  <advance width="850"/>
  <unicode hex="00BC"/>
  <outline>
    <contour>
      <point x="234" y="0" type="line"/>
      <point x="264" y="0" type="line"/>
      <point x="664" y="700" type="line"/>
      <point x="634" y="700" type="line"/>
    </contour>
    <contour>
      <point x="96" y="359" type="line" smooth="yes"/>
      <point x="96" y="348"/>
      <point x="92" y="345"/>
      <point x="81" y="343" type="curve" smooth="yes"/>
      <point x="36" y="336" type="line"/>
      <point x="36" y="320" type="line"/>
      <point x="278" y="320" type="line"/>
      <point x="278" y="336" type="line"/>
      <point x="238" y="343" type="line" smooth="yes"/>
      <point x="228" y="345"/>
      <point x="225" y="349"/>
      <point x="225" y="358" type="curve" smooth="yes"/>
      <point x="225" y="701" type="line"/>
      <point x="210" y="706" type="line"/>
      <point x="160" y="687"/>
      <point x="97" y="673"/>
      <point x="38" y="667" type="curve"/>
      <point x="38" y="651" type="line"/>
      <point x="96" y="651" type="line"/>
    </contour>
    <contour>
      <point x="646" y="38" type="line" smooth="yes"/>
      <point x="646" y="27"/>
      <point x="642" y="24"/>
      <point x="631" y="22" type="curve" smooth="yes"/>
      <point x="592" y="16" type="line"/>
      <point x="592" y="0" type="line"/>
      <point x="824" y="0" type="line"/>
      <point x="824" y="16" type="line"/>
      <point x="788" y="22" type="line" smooth="yes"/>
      <point x="778" y="24"/>
      <point x="775" y="28"/>
      <point x="775" y="37" type="curve" smooth="yes"/>
      <point x="775" y="86" type="line"/>
      <point x="826" y="86" type="line"/>
      <point x="826" y="108" type="line"/>
      <point x="775" y="108" type="line"/>
      <point x="775" y="380" type="line"/>
      <point x="719" y="380" type="line"/>
      <point x="462" y="106" type="line"/>
      <point x="466" y="86" type="line"/>
      <point x="646" y="86" type="line"/>
    </contour>
    <contour>
      <point x="646" y="269" type="line"/>
      <point x="646" y="108" type="line"/>
      <point x="494" y="108" type="line"/>
    </contour>
  </outline>
</glyph>
<glyph name="threequarters" format="1">
  <advance width="850"/>
  <unicode hex="00BE"/>
  <outline>
    <contour>
      <point x="250" y="0" type="line"/>
      <point x="280" y="0" type="line"/>
      <point x="680" y="700" type="line"/>
      <point x="650" y="700" type="line"/>
    </contour>
    <contour>
      <point x="646" y="38" type="line" smooth="yes"/>
      <point x="646" y="27"/>
      <point x="642" y="24"/>
      <point x="631" y="22" type="curve" smooth="yes"/>
      <point x="592" y="16" type="line"/>
      <point x="592" y="0" type="line"/>
      <point x="824" y="0" type="line"/>
      <point x="824" y="16" type="line"/>
      <point x="788" y="22" type="line" smooth="yes"/>
      <point x="778" y="24"/>
      <point x="775" y="28"/>
      <point x="775" y="37" type="curve" smooth="yes"/>
      <point x="775" y="86" type="line"/>
      <point x="826" y="86" type="line"/>
      <point x="826" y="108" type="line"/>
      <point x="775" y="108" type="line"/>
      <point x="775" y="380" type="line"/>
      <point x="719" y="380" type="line"/>
      <point x="462" y="106" type="line"/>
      <point x="466" y="86" type="line"/>
      <point x="646" y="86" type="line"/>
    </contour>
    <contour>
      <point x="646" y="269" type="line"/>
      <point x="646" y="108" type="line"/>
      <point x="494" y="108" type="line"/>
    </contour>
    <contour>
      <point x="76" y="334"/>
      <point x="62" y="376"/>
      <point x="46" y="431" type="curve"/>
      <point x="30" y="431" type="line"/>
      <point x="22" y="337" type="line"/>
      <point x="55" y="323"/>
      <point x="104" y="314"/>
      <point x="157" y="314" type="curve" smooth="yes"/>
      <point x="275" y="314"/>
      <point x="346" y="341"/>
      <point x="346" y="429" type="curve" smooth="yes"/>
      <point x="346" y="487"/>
      <point x="304" y="516"/>
      <point x="243" y="522" type="curve"/>
      <point x="302" y="536"/>
      <point x="335" y="566"/>
      <point x="335" y="613" type="curve" smooth="yes"/>
      <point x="335" y="675"/>
      <point x="274" y="706"/>
      <point x="186" y="706" type="curve" smooth="yes"/>
      <point x="114" y="706"/>
      <point x="64" y="688"/>
      <point x="23" y="662" type="curve"/>
      <point x="35" y="645" type="line"/>
      <point x="69" y="664"/>
      <point x="98" y="675"/>
      <point x="139" y="675" type="curve" smooth="yes"/>
      <point x="182" y="675"/>
      <point x="206" y="655"/>
      <point x="206" y="606" type="curve" smooth="yes"/>
      <point x="206" y="554"/>
      <point x="188" y="532"/>
      <point x="145" y="532" type="curve" smooth="yes"/>
      <point x="113" y="532" type="line"/>
      <point x="113" y="510" type="line"/>
      <point x="144" y="510" type="line" smooth="yes"/>
      <point x="196" y="510"/>
      <point x="215" y="476"/>
      <point x="215" y="421" type="curve" smooth="yes"/>
      <point x="215" y="356"/>
      <point x="188" y="334"/>
      <point x="142" y="334" type="curve" smooth="yes"/>
    </contour>
  </outline>
</glyph>
<glyph name="questiondown" format="1">
  <advance width="566"/>
  <unicode hex="00BF"/>
  <outline>
    <contour>
      <point x="319" y="267" type="line"/>
      <point x="291" y="267" type="line"/>
      <point x="278" y="136" type="line"/>
      <point x="167" y="117"/>
      <point x="48" y="70"/>
      <point x="48" y="-67" type="curve" smooth="yes"/>
      <point x="48" y="-172"/>
      <point x="125" y="-224"/>
      <point x="260" y="-224" type="curve" smooth="yes"/>
      <point x="400" y="-224"/>
      <point x="474" y="-182"/>
      <point x="542" y="-133" type="curve"/>
      <point x="530" y="-114" type="line"/>
      <point x="473" y="-154"/>
      <point x="429" y="-174"/>
      <point x="352" y="-174" type="curve" smooth="yes"/>
      <point x="282" y="-174"/>
      <point x="238" y="-140"/>
      <point x="238" y="-58" type="curve" smooth="yes"/>
      <point x="238" y="13"/>
      <point x="262" y="82"/>
      <point x="330" y="136" type="curve"/>
    </contour>
    <contour>
      <point x="259" y="496"/>
      <point x="221" y="460"/>
      <point x="221" y="414" type="curve" smooth="yes"/>
      <point x="221" y="368"/>
      <point x="259" y="332"/>
      <point x="305" y="332" type="curve" smooth="yes"/>
      <point x="351" y="332"/>
      <point x="389" y="368"/>
      <point x="389" y="414" type="curve" smooth="yes"/>
      <point x="389" y="460"/>
      <point x="351" y="496"/>
      <point x="305" y="496" type="curve" smooth="yes"/>
    </contour>
  </outline>
</glyph>
<glyph name="Aring" format="1">
  <advance width="760"/>
  <unicode hex="00C5"/>
  <outline>
    <contour>
      <point x="311" y="875"/>
      <point x="257" y="847"/>
      <point x="257" y="780" type="curve" smooth="yes"/>
      <point x="257" y="722"/>
      <point x="297" y="694"/>
      <point x="346" y="687" type="curve"/>
      <point x="83" y="48" type="line" smooth="yes"/>
      <point x="76" y="32"/>
      <point x="71" y="26"/>
      <point x="55" y="24" type="curve" smooth="yes"/>
      <point x="18" y="20" type="line"/>
      <point x="18" y="0" type="line"/>
      <point x="168" y="0" type="line"/>
      <point x="168" y="20" type="line"/>
      <point x="125" y="24" type="line"/>
      <point x="112" y="26"/>
      <point x="108" y="32"/>
      <point x="114" y="47" type="curve" smooth="yes"/>
      <point x="178" y="203" type="line"/>
      <point x="397" y="203" type="line"/>
      <point x="466" y="47" type="line" smooth="yes"/>
      <point x="473" y="32"/>
      <point x="468" y="26"/>
      <point x="455" y="24" type="curve"/>
      <point x="412" y="20" type="line"/>
      <point x="412" y="0" type="line"/>
      <point x="742" y="0" type="line"/>
      <point x="742" y="20" type="line"/>
      <point x="705" y="24" type="line" smooth="yes"/>
      <point x="689" y="26"/>
      <point x="684" y="32"/>
      <point x="677" y="48" type="curve" smooth="yes"/>
      <point x="398" y="687" type="line"/>
      <point x="446" y="694"/>
      <point x="485" y="723"/>
      <point x="485" y="780" type="curve" smooth="yes"/>
      <point x="485" y="847"/>
      <point x="431" y="875"/>
      <point x="371" y="875" type="curve" smooth="yes"/>
    </contour>
    <contour>
      <point x="284" y="461" type="line"/>
      <point x="384" y="233" type="line"/>
      <point x="190" y="233" type="line"/>
    </contour>
    <contour>
      <point x="339" y="702"/>
      <point x="328" y="730"/>
      <point x="328" y="780" type="curve" smooth="yes"/>
      <point x="328" y="830"/>
      <point x="339" y="858"/>
      <point x="371" y="858" type="curve" smooth="yes"/>
      <point x="403" y="858"/>
      <point x="414" y="830"/>
      <point x="414" y="780" type="curve" smooth="yes"/>
      <point x="414" y="730"/>
      <point x="403" y="702"/>
      <point x="371" y="702" type="curve" smooth="yes"/>
    </contour>
  </outline>
</glyph>
<glyph name="Ccedilla" format="1">
  <advance width="754"/>
  <unicode hex="00C7"/>
  <outline>
    <contour>
      <point x="378" y="-76" type="line"/>
      <point x="425" y="-84"/>
      <point x="461" y="-99"/>
      <point x="461" y="-141" type="curve" smooth="yes"/>
      <point x="461" y="-172"/>
      <point x="443" y="-183"/>
      <point x="405" y="-183" type="curve" smooth="yes"/>
      <point x="375" y="-183"/>
      <point x="353" y="-178"/>
      <point x="336" y="-170" type="curve"/>
      <point x="329" y="-188" type="line"/>
      <point x="350" y="-199"/>
      <point x="390" y="-208"/>
      <point x="424" y="-208" type="curve" smooth="yes"/>
      <point x="488" y="-208"/>
      <point x="545" y="-182"/>
      <point x="545" y="-123" type="curve" smooth="yes"/>
      <point x="545" y="-67"/>
      <point x="491" y="-40"/>
      <point x="407" y="-36" type="curve"/>
      <point x="409" y="-11" type="line"/>
      <point x="419" y="-12"/>
      <point x="430" y="-12"/>
      <point x="440" y="-12" type="curve" smooth="yes"/>
      <point x="562" y="-12"/>
      <point x="657" y="35"/>
      <point x="710" y="84" type="curve"/>
      <point x="690" y="106" type="line"/>
      <point x="642" y="68"/>
      <point x="585" y="38"/>
      <point x="506" y="38" type="curve" smooth="yes"/>
      <point x="328" y="38"/>
      <point x="276" y="166"/>
      <point x="276" y="386" type="curve" smooth="yes"/>
      <point x="276" y="576"/>
      <point x="320" y="683"/>
      <point x="446" y="683" type="curve" smooth="yes"/>
      <point x="562" y="683"/>
      <point x="616" y="591"/>
      <point x="648" y="495" type="curve"/>
      <point x="676" y="495" type="line"/>
      <point x="690" y="667" type="line"/>
      <point x="640" y="692"/>
      <point x="541" y="712"/>
      <point x="445" y="712" type="curve" smooth="yes"/>
      <point x="231" y="712"/>
      <point x="56" y="616"/>
      <point x="56" y="360" type="curve" smooth="yes"/>
      <point x="56" y="104"/>
      <point x="209" y="6"/>
      <point x="387" y="-9" type="curve"/>
    </contour>
  </outline>
</glyph>
<glyph name="Egrave" format="1">
  <advance width="720"/>
  <unicode hex="00C8"/>
  <outline>
    <contour>
      <point x="26" y="0" type="line"/>
      <point x="656" y="0" type="line"/>
      <point x="656" y="199" type="line"/>
      <point x="630" y="199" type="line"/>
      <point x="593" y="87"/>
      <point x="566" y="30"/>
      <point x="443" y="30" type="curve" smooth="yes"/>
      <point x="291" y="30" type="line"/>
      <point x="291" y="343" type="line"/>
      <point x="549" y="343" type="line"/>
      <point x="549" y="373" type="line"/>
      <point x="291" y="373" type="line"/>
      <point x="291" y="670" type="line"/>
      <point x="433" y="670" type="line" smooth="yes"/>
      <point x="556" y="670"/>
      <point x="580" y="617"/>
      <point x="617" y="505" type="curve"/>
      <point x="642" y="505" type="line"/>
      <point x="642" y="700" type="line"/>
      <point x="26" y="700" type="line"/>
      <point x="26" y="680" type="line"/>
      <point x="63" y="672" type="line" smooth="yes"/>
      <point x="82" y="668"/>
      <point x="87" y="666"/>
      <point x="87" y="650" type="curve" smooth="yes"/>
      <point x="87" y="50" type="line" smooth="yes"/>
      <point x="87" y="34"/>
      <point x="82" y="32"/>
      <point x="63" y="28" type="curve" smooth="yes"/>
      <point x="26" y="20" type="line"/>
    </contour>
    <contour>
      <point x="282" y="898"/>
      <point x="257" y="863"/>
      <point x="256" y="825" type="curve"/>
      <point x="317" y="797"/>
      <point x="421" y="770"/>
      <point x="482" y="760" type="curve"/>
      <point x="487" y="771" type="line"/>
      <point x="432" y="813"/>
      <point x="355" y="867"/>
      <point x="312" y="912" type="curve"/>
    </contour>
  </outline>
</glyph>
<glyph name="Edieresis" format="1">
  <advance width="720"/>
  <unicode hex="00CB"/>
  <outline>
    <contour>
      <point x="26" y="0" type="line"/>
      <point x="656" y="0" type="line"/>
      <point x="656" y="199" type="line"/>
      <point x="630" y="199" type="line"/>
      <point x="593" y="87"/>
      <point x="566" y="30"/>
      <point x="443" y="30" type="curve" smooth="yes"/>
      <point x="291" y="30" type="line"/>
      <point x="291" y="343" type="line"/>
      <point x="549" y="343" type="line"/>
      <point x="549" y="373" type="line"/>
      <point x="291" y="373" type="line"/>
      <point x="291" y="670" type="line"/>
      <point x="433" y="670" type="line" smooth="yes"/>
      <point x="556" y="670"/>
      <point x="580" y="617"/>
      <point x="617" y="505" type="curve"/>
      <point x="642" y="505" type="line"/>
      <point x="642" y="700" type="line"/>
      <point x="26" y="700" type="line"/>
      <point x="26" y="680" type="line"/>
      <point x="63" y="672" type="line" smooth="yes"/>
      <point x="82" y="668"/>
      <point x="87" y="666"/>
      <point x="87" y="650" type="curve" smooth="yes"/>
      <point x="87" y="50" type="line" smooth="yes"/>
      <point x="87" y="34"/>
      <point x="82" y="32"/>
      <point x="63" y="28" type="curve" smooth="yes"/>
      <point x="26" y="20" type="line"/>
    </contour>
    <contour>
      <point x="297" y="767"/>
      <point x="328" y="799"/>
      <point x="328" y="840" type="curve" smooth="yes"/>
      <point x="328" y="881"/>
      <point x="297" y="913"/>
      <point x="251" y="913" type="curve" smooth="yes"/>
      <point x="205" y="913"/>
      <point x="174" y="881"/>
      <point x="174" y="840" type="curve" smooth="yes"/>
      <point x="174" y="799"/>
      <point x="205" y="767"/>
      <point x="251" y="767" type="curve" smooth="yes"/>
    </contour>
    <contour>
      <point x="535" y="767"/>
      <point x="566" y="799"/>
      <point x="566" y="840" type="curve" smooth="yes"/>
      <point x="566" y="881"/>
      <point x="535" y="913"/>
      <point x="489" y="913" type="curve" smooth="yes"/>
      <point x="443" y="913"/>
      <point x="412" y="881"/>
      <point x="412" y="840" type="curve" smooth="yes"/>
      <point x="412" y="799"/>
      <point x="443" y="767"/>
      <point x="489" y="767" type="curve" smooth="yes"/>
    </contour>
  </outline>
</glyph>
<glyph name="Idieresis" format="1">
  <advance width="386"/>
  <unicode hex="00CF"/>
  <outline>
    <contour>
      <point x="91" y="50" type="line" smooth="yes"/>
      <point x="91" y="34"/>
      <point x="86" y="32"/>
      <point x="67" y="28" type="curve" smooth="yes"/>
      <point x="30" y="20" type="line"/>
      <point x="30" y="0" type="line"/>
      <point x="356" y="0" type="line"/>
      <point x="356" y="20" type="line"/>
      <point x="319" y="28" type="line" smooth="yes"/>
      <point x="300" y="32"/>
      <point x="295" y="34"/>
      <point x="295" y="50" type="curve" smooth="yes"/>
      <point x="295" y="650" type="line" smooth="yes"/>
      <point x="295" y="666"/>
      <point x="300" y="668"/>
      <point x="319" y="672" type="curve" smooth="yes"/>
      <point x="356" y="680" type="line"/>
      <point x="356" y="700" type="line"/>
      <point x="30" y="700" type="line"/>
      <point x="30" y="680" type="line"/>
      <point x="67" y="672" type="line" smooth="yes"/>
      <point x="86" y="668"/>
      <point x="91" y="666"/>
      <point x="91" y="650" type="curve" smooth="yes"/>
    </contour>
    <contour>
      <point x="120" y="767"/>
      <point x="151" y="799"/>
      <point x="151" y="840" type="curve" smooth="yes"/>
      <point x="151" y="881"/>
      <point x="120" y="913"/>
      <point x="74" y="913" type="curve" smooth="yes"/>
      <point x="28" y="913"/>
      <point x="-3" y="881"/>
      <point x="-3" y="840" type="curve" smooth="yes"/>
      <point x="-3" y="799"/>
      <point x="28" y="767"/>
      <point x="74" y="767" type="curve" smooth="yes"/>
    </contour>
    <contour>
      <point x="358" y="767"/>
      <point x="389" y="799"/>
      <point x="389" y="840" type="curve" smooth="yes"/>
      <point x="389" y="881"/>
      <point x="358" y="913"/>
      <point x="312" y="913" type="curve" smooth="yes"/>
      <point x="266" y="913"/>
      <point x="235" y="881"/>
      <point x="235" y="840" type="curve" smooth="yes"/>
      <point x="235" y="799"/>
      <point x="266" y="767"/>
      <point x="312" y="767" type="curve" smooth="yes"/>
    </contour>
  </outline>
</glyph>
<glyph name="Ntilde" format="1">
  <advance width="744"/>
  <unicode hex="00D1"/>
  <outline>
    <contour>
      <point x="87" y="50" type="line" smooth="yes"/>
      <point x="87" y="34"/>
      <point x="82" y="32"/>
      <point x="63" y="28" type="curve" smooth="yes"/>
      <point x="26" y="20" type="line"/>
      <point x="26" y="0" type="line"/>
      <point x="178" y="0" type="line"/>
      <point x="178" y="20" type="line"/>
      <point x="142" y="28" type="line" smooth="yes"/>
      <point x="124" y="32"/>
      <point x="119" y="34"/>
      <point x="119" y="49" type="curve" smooth="yes"/>
      <point x="119" y="635" type="line"/>
      <point x="621" y="0" type="line"/>
      <point x="657" y="0" type="line"/>
      <point x="657" y="650" type="line" smooth="yes"/>
      <point x="657" y="666"/>
      <point x="662" y="668"/>
      <point x="681" y="672" type="curve" smooth="yes"/>
      <point x="718" y="680" type="line"/>
      <point x="718" y="700" type="line"/>
      <point x="566" y="700" type="line"/>
      <point x="566" y="680" type="line"/>
      <point x="602" y="672" type="line" smooth="yes"/>
      <point x="620" y="668"/>
      <point x="625" y="666"/>
      <point x="625" y="651" type="curve" smooth="yes"/>
      <point x="625" y="294" type="line"/>
      <point x="303" y="700" type="line"/>
      <point x="26" y="700" type="line"/>
      <point x="26" y="680" type="line"/>
      <point x="63" y="672" type="line" smooth="yes"/>
      <point x="82" y="668"/>
      <point x="87" y="666"/>
      <point x="87" y="650" type="curve" smooth="yes"/>
    </contour>
    <contour>
      <point x="516" y="758"/>
      <point x="542" y="833"/>
      <point x="561" y="883" type="curve"/>
      <point x="549" y="888" type="line"/>
      <point x="525" y="858" type="line"/>
      <point x="512" y="840"/>
      <point x="485" y="834"/>
      <point x="461" y="843" type="curve" smooth="yes"/>
      <point x="365" y="881"/>
      <point x="317" y="902"/>
      <point x="287" y="902" type="curve" smooth="yes"/>
      <point x="228" y="902"/>
      <point x="202" y="827"/>
      <point x="183" y="777" type="curve"/>
      <point x="195" y="772" type="line"/>
      <point x="219" y="802" type="line"/>
      <point x="232" y="820"/>
      <point x="259" y="826"/>
      <point x="283" y="817" type="curve" smooth="yes"/>
      <point x="379" y="779"/>
      <point x="427" y="758"/>
      <point x="457" y="758" type="curve" smooth="yes"/>
    </contour>
  </outline>
</glyph>
<glyph name="Ograve" format="1">
  <advance width="854"/>
  <unicode hex="00D2"/>
  <outline>
    <contour>
      <point x="222" y="712"/>
      <point x="56" y="620"/>
      <point x="56" y="350" type="curve" smooth="yes"/>
      <point x="56" y="80"/>
      <point x="221" y="-12"/>
      <point x="427" y="-12" type="curve" smooth="yes"/>
      <point x="633" y="-12"/>
      <point x="798" y="80"/>
      <point x="798" y="350" type="curve" smooth="yes"/>
      <point x="798" y="620"/>
      <point x="633" y="712"/>
      <point x="427" y="712" type="curve" smooth="yes"/>
    </contour>
    <contour>
      <point x="304" y="17"/>
      <point x="277" y="112"/>
      <point x="277" y="350" type="curve" smooth="yes"/>
      <point x="277" y="588"/>
      <point x="304" y="683"/>
      <point x="427" y="683" type="curve" smooth="yes"/>
      <point x="550" y="683"/>
      <point x="577" y="588"/>
      <point x="577" y="350" type="curve" smooth="yes"/>
      <point x="577" y="112"/>
      <point x="550" y="17"/>
      <point x="427" y="17" type="curve" smooth="yes"/>
    </contour>
    <contour>
      <point x="279" y="898"/>
      <point x="254" y="863"/>
      <point x="253" y="825" type="curve"/>
      <point x="314" y="797"/>
      <point x="418" y="770"/>
      <point x="479" y="760" type="curve"/>
      <point x="484" y="771" type="line"/>
      <point x="429" y="813"/>
      <point x="352" y="867"/>
      <point x="309" y="912" type="curve"/>
    </contour>
  </outline>
</glyph>
<glyph name="Otilde" format="1">
  <advance width="854"/>
  <unicode hex="00D5"/>
  <outline>
    <contour>
      <point x="222" y="712"/>
      <point x="56" y="620"/>
      <point x="56" y="350" type="curve" smooth="yes"/>
      <point x="56" y="80"/>
      <point x="221" y="-12"/>
      <point x="427" y="-12" type="curve" smooth="yes"/>
      <point x="633" y="-12"/>
      <point x="798" y="80"/>
      <point x="798" y="350" type="curve" smooth="yes"/>
      <point x="798" y="620"/>
      <point x="633" y="712"/>
      <point x="427" y="712" type="curve" smooth="yes"/>
    </contour>
    <contour>
      <point x="304" y="17"/>
      <point x="277" y="112"/>
      <point x="277" y="350" type="curve" smooth="yes"/>
      <point x="277" y="588"/>
      <point x="304" y="683"/>
      <point x="427" y="683" type="curve" smooth="yes"/>
      <point x="550" y="683"/>
      <point x="577" y="588"/>
      <point x="577" y="350" type="curve" smooth="yes"/>
      <point x="577" y="112"/>
      <point x="550" y="17"/>
      <point x="427" y="17" type="curve" smooth="yes"/>
    </contour>
    <contour>
      <point x="571" y="758"/>
      <point x="597" y="833"/>
      <point x="616" y="883" type="curve"/>
      <point x="604" y="888" type="line"/>
      <point x="580" y="858" type="line"/>
      <point x="567" y="840"/>
      <point x="540" y="834"/>
      <point x="516" y="843" type="curve" smooth="yes"/>
      <point x="420" y="881"/>
      <point x="372" y="902"/>
      <point x="342" y="902" type="curve" smooth="yes"/>
      <point x="283" y="902"/>
      <point x="257" y="827"/>
      <point x="238" y="777" type="curve"/>
      <point x="250" y="772" type="line"/>
      <point x="274" y="802" type="line"/>
      <point x="287" y="820"/>
      <point x="314" y="826"/>
      <point x="338" y="817" type="curve" smooth="yes"/>
      <point x="434" y="779"/>
      <point x="482" y="758"/>
      <point x="512" y="758" type="curve" smooth="yes"/>
    </contour>
  </outline>
</glyph>
<glyph name="Odieresis" format="1">
  <advance width="854"/>
  <unicode hex="00D6"/>
  <outline>
    <contour>
      <point x="222" y="712"/>
      <point x="56" y="620"/>
      <point x="56" y="350" type="curve" smooth="yes"/>
      <point x="56" y="80"/>
      <point x="221" y="-12"/>
      <point x="427" y="-12" type="curve" smooth="yes"/>
      <point x="633" y="-12"/>
      <point x="798" y="80"/>
      <point x="798" y="350" type="curve" smooth="yes"/>
      <point x="798" y="620"/>
      <point x="633" y="712"/>
      <point x="427" y="712" type="curve" smooth="yes"/>
    </contour>
    <contour>
      <point x="304" y="17"/>
      <point x="277" y="112"/>
      <point x="277" y="350" type="curve" smooth="yes"/>
      <point x="277" y="588"/>
      <point x="304" y="683"/>
      <point x="427" y="683" type="curve" smooth="yes"/>
      <point x="550" y="683"/>
      <point x="577" y="588"/>
      <point x="577" y="350" type="curve" smooth="yes"/>
      <point x="577" y="112"/>
      <point x="550" y="17"/>
      <point x="427" y="17" type="curve" smooth="yes"/>
    </contour>
    <contour>
      <point x="354" y="767"/>
      <point x="385" y="799"/>
      <point x="385" y="840" type="curve" smooth="yes"/>
      <point x="385" y="881"/>
      <point x="354" y="913"/>
      <point x="308" y="913" type="curve" smooth="yes"/>
      <point x="262" y="913"/>
      <point x="231" y="881"/>
      <point x="231" y="840" type="curve" smooth="yes"/>
      <point x="231" y="799"/>
      <point x="262" y="767"/>
      <point x="308" y="767" type="curve" smooth="yes"/>
    </contour>
    <contour>
      <point x="592" y="767"/>
      <point x="623" y="799"/>
      <point x="623" y="840" type="curve" smooth="yes"/>
      <point x="623" y="881"/>
      <point x="592" y="913"/>
      <point x="546" y="913" type="curve" smooth="yes"/>
      <point x="500" y="913"/>
      <point x="469" y="881"/>
      <point x="469" y="840" type="curve" smooth="yes"/>
      <point x="469" y="799"/>
      <point x="500" y="767"/>
      <point x="546" y="767" type="curve" smooth="yes"/>
    </contour>
  </outline>
</glyph>
<glyph name="Oslash" format="1">
  <advance width="854"/>
  <unicode hex="00D8"/>
  <outline>
    <contour>
      <point x="222" y="712"/>
      <point x="56" y="620"/>
      <point x="56" y="350" type="curve" smooth="yes"/>
      <point x="56" y="182"/>
      <point x="120" y="83"/>
      <point x="218" y="32" type="curve"/>
      <point x="176" y="-38" type="line"/>
      <point x="201" y="-53" type="line"/>
      <point x="244" y="19" type="line"/>
      <point x="298" y="-2"/>
      <point x="360" y="-12"/>
      <point x="427" y="-12" type="curve" smooth="yes"/>
      <point x="633" y="-12"/>
      <point x="798" y="80"/>
      <point x="798" y="350" type="curve" smooth="yes"/>
      <point x="798" y="518"/>
      <point x="734" y="617"/>
      <point x="636" y="668" type="curve"/>
      <point x="678" y="738" type="line"/>
      <point x="653" y="753" type="line"/>
      <point x="609" y="680" type="line"/>
      <point x="555" y="702"/>
      <point x="493" y="712"/>
      <point x="427" y="712" type="curve" smooth="yes"/>
    </contour>
    <contour>
      <point x="359" y="17"/>
      <point x="320" y="45"/>
      <point x="299" y="111" type="curve"/>
      <point x="564" y="549" type="line"/>
      <point x="573" y="498"/>
      <point x="577" y="433"/>
      <point x="577" y="350" type="curve" smooth="yes"/>
      <point x="577" y="112"/>
      <point x="550" y="17"/>
      <point x="427" y="17" type="curve" smooth="yes"/>
    </contour>
    <contour>
      <point x="277" y="588"/>
      <point x="304" y="683"/>
      <point x="427" y="683" type="curve" smooth="yes"/>
      <point x="494" y="683"/>
      <point x="533" y="654"/>
      <point x="554" y="589" type="curve"/>
      <point x="290" y="151" type="line"/>
      <point x="280" y="201"/>
      <point x="277" y="267"/>
      <point x="277" y="350" type="curve" smooth="yes"/>
    </contour>
  </outline>
</glyph>
<glyph name="Ugrave" format="1">
  <advance width="754"/>
  <unicode hex="00D9"/>
  <outline>
    <contour>
      <point x="675" y="651" type="line" smooth="yes"/>
      <point x="675" y="666"/>
      <point x="680" y="668"/>
      <point x="698" y="672" type="curve" smooth="yes"/>
      <point x="734" y="680" type="line"/>
      <point x="734" y="700" type="line"/>
      <point x="582" y="700" type="line"/>
      <point x="582" y="680" type="line"/>
      <point x="619" y="672" type="line" smooth="yes"/>
      <point x="638" y="668"/>
      <point x="643" y="666"/>
      <point x="643" y="650" type="curve" smooth="yes"/>
      <point x="643" y="252" type="line" smooth="yes"/>
      <point x="643" y="117"/>
      <point x="576" y="22"/>
      <point x="445" y="22" type="curve" smooth="yes"/>
      <point x="309" y="22"/>
      <point x="285" y="88"/>
      <point x="285" y="246" type="curve" smooth="yes"/>
      <point x="285" y="651" type="line" smooth="yes"/>
      <point x="285" y="666"/>
      <point x="290" y="668"/>
      <point x="308" y="672" type="curve" smooth="yes"/>
      <point x="344" y="680" type="line"/>
      <point x="344" y="700" type="line"/>
      <point x="20" y="700" type="line"/>
      <point x="20" y="680" type="line"/>
      <point x="57" y="672" type="line" smooth="yes"/>
      <point x="76" y="668"/>
      <point x="81" y="666"/>
      <point x="81" y="650" type="curve" smooth="yes"/>
      <point x="81" y="264" type="line" smooth="yes"/>
      <point x="81" y="67"/>
      <point x="184" y="-12"/>
      <point x="394" y="-12" type="curve" smooth="yes"/>
      <point x="601" y="-12"/>
      <point x="673" y="104"/>
      <point x="675" y="260" type="curve" smooth="yes"/>
    </contour>
    <contour>
      <point x="289" y="898"/>
      <point x="264" y="863"/>
      <point x="263" y="825" type="curve"/>
      <point x="324" y="797"/>
      <point x="428" y="770"/>
      <point x="489" y="760" type="curve"/>
      <point x="494" y="771" type="line"/>
      <point x="439" y="813"/>
      <point x="362" y="867"/>
      <point x="319" y="912" type="curve"/>
    </contour>
  </outline>
</glyph>
<glyph name="Uacute" format="1">
  <advance width="754"/>
  <unicode hex="00DA"/>
  <outline>
    <contour>
      <point x="675" y="651" type="line" smooth="yes"/>
      <point x="675" y="666"/>
      <point x="680" y="668"/>
      <point x="698" y="672" type="curve" smooth="yes"/>
      <point x="734" y="680" type="line"/>
      <point x="734" y="700" type="line"/>
      <point x="582" y="700" type="line"/>
      <point x="582" y="680" type="line"/>
      <point x="619" y="672" type="line" smooth="yes"/>
      <point x="638" y="668"/>
      <point x="643" y="666"/>
      <point x="643" y="650" type="curve" smooth="yes"/>
      <point x="643" y="252" type="line" smooth="yes"/>
      <point x="643" y="117"/>
      <point x="576" y="22"/>
      <point x="445" y="22" type="curve" smooth="yes"/>
      <point x="309" y="22"/>
      <point x="285" y="88"/>
      <point x="285" y="246" type="curve" smooth="yes"/>
      <point x="285" y="651" type="line" smooth="yes"/>
      <point x="285" y="666"/>
      <point x="290" y="668"/>
      <point x="308" y="672" type="curve" smooth="yes"/>
      <point x="344" y="680" type="line"/>
      <point x="344" y="700" type="line"/>
      <point x="20" y="700" type="line"/>
      <point x="20" y="680" type="line"/>
      <point x="57" y="672" type="line" smooth="yes"/>
      <point x="76" y="668"/>
      <point x="81" y="666"/>
      <point x="81" y="650" type="curve" smooth="yes"/>
      <point x="81" y="264" type="line" smooth="yes"/>
      <point x="81" y="67"/>
      <point x="184" y="-12"/>
      <point x="394" y="-12" type="curve" smooth="yes"/>
      <point x="601" y="-12"/>
      <point x="673" y="104"/>
      <point x="675" y="260" type="curve" smooth="yes"/>
    </contour>
    <contour>
      <point x="532" y="867"/>
      <point x="455" y="813"/>
      <point x="400" y="771" type="curve"/>
      <point x="405" y="760" type="line"/>
      <point x="466" y="770"/>
      <point x="570" y="797"/>
      <point x="631" y="825" type="curve"/>
      <point x="630" y="863"/>
      <point x="605" y="898"/>
      <point x="575" y="912" type="curve"/>
    </contour>
  </outline>
</glyph>
<glyph name="Udieresis" format="1">
  <advance width="748"/>
  <unicode hex="00DC"/>
  <outline>
    <contour>
      <point x="675" y="651" type="line" smooth="yes"/>
      <point x="675" y="666"/>
      <point x="680" y="668"/>
      <point x="698" y="672" type="curve" smooth="yes"/>
      <point x="734" y="680" type="line"/>
      <point x="734" y="700" type="line"/>
      <point x="582" y="700" type="line"/>
      <point x="582" y="680" type="line"/>
      <point x="619" y="672" type="line" smooth="yes"/>
      <point x="638" y="668"/>
      <point x="643" y="666"/>
      <point x="643" y="650" type="curve" smooth="yes"/>
      <point x="643" y="252" type="line" smooth="yes"/>
      <point x="643" y="117"/>
      <point x="576" y="22"/>
      <point x="445" y="22" type="curve" smooth="yes"/>
      <point x="309" y="22"/>
      <point x="285" y="88"/>
      <point x="285" y="246" type="curve" smooth="yes"/>
      <point x="285" y="651" type="line" smooth="yes"/>
      <point x="285" y="666"/>
      <point x="290" y="668"/>
      <point x="308" y="672" type="curve" smooth="yes"/>
      <point x="344" y="680" type="line"/>
      <point x="344" y="700" type="line"/>
      <point x="20" y="700" type="line"/>
      <point x="20" y="680" type="line"/>
      <point x="57" y="672" type="line" smooth="yes"/>
      <point x="76" y="668"/>
      <point x="81" y="666"/>
      <point x="81" y="650" type="curve" smooth="yes"/>
      <point x="81" y="264" type="line" smooth="yes"/>
      <point x="81" y="67"/>
      <point x="184" y="-12"/>
      <point x="394" y="-12" type="curve" smooth="yes"/>
      <point x="601" y="-12"/>
      <point x="673" y="104"/>
      <point x="675" y="260" type="curve" smooth="yes"/>
    </contour>
    <contour>
      <point x="361" y="767"/>
      <point x="392" y="799"/>
      <point x="392" y="840" type="curve" smooth="yes"/>
      <point x="392" y="881"/>
      <point x="361" y="913"/>
      <point x="315" y="913" type="curve" smooth="yes"/>
      <point x="269" y="913"/>
      <point x="238" y="881"/>
      <point x="238" y="840" type="curve" smooth="yes"/>
      <point x="238" y="799"/>
      <point x="269" y="767"/>
      <point x="315" y="767" type="curve" smooth="yes"/>
    </contour>
    <contour>
      <point x="599" y="767"/>
      <point x="630" y="799"/>
      <point x="630" y="840" type="curve" smooth="yes"/>
      <point x="630" y="881"/>
      <point x="599" y="913"/>
      <point x="553" y="913" type="curve" smooth="yes"/>
      <point x="507" y="913"/>
      <point x="476" y="881"/>
      <point x="476" y="840" type="curve" smooth="yes"/>
      <point x="476" y="799"/>
      <point x="507" y="767"/>
      <point x="553" y="767" type="curve" smooth="yes"/>
    </contour>
  </outline>
</glyph>
<glyph name="Yacute" format="1">
  <advance width="720"/>
  <unicode hex="00DD"/>
  <outline>
    <contour>
      <point x="439" y="349" type="line"/>
      <point x="279" y="651" type="line" smooth="yes"/>
      <point x="272" y="664"/>
      <point x="274" y="675"/>
      <point x="289" y="676" type="curve" smooth="yes"/>
      <point x="329" y="680" type="line"/>
      <point x="329" y="700" type="line"/>
      <point x="4" y="700" type="line"/>
      <point x="4" y="680" type="line"/>
      <point x="43" y="676" type="line"/>
      <point x="57" y="674"/>
      <point x="63" y="668"/>
      <point x="72" y="652" type="curve" smooth="yes"/>
      <point x="256" y="318" type="line"/>
      <point x="256" y="50" type="line" smooth="yes"/>
      <point x="256" y="34"/>
      <point x="251" y="32"/>
      <point x="232" y="28" type="curve" smooth="yes"/>
      <point x="195" y="20" type="line"/>
      <point x="195" y="0" type="line"/>
      <point x="521" y="0" type="line"/>
      <point x="521" y="20" type="line"/>
      <point x="484" y="28" type="line" smooth="yes"/>
      <point x="465" y="32"/>
      <point x="460" y="34"/>
      <point x="460" y="50" type="curve" smooth="yes"/>
      <point x="460" y="324" type="line"/>
      <point x="651" y="652" type="line" smooth="yes"/>
      <point x="659" y="666"/>
      <point x="663" y="675"/>
      <point x="687" y="677" type="curve" smooth="yes"/>
      <point x="718" y="680" type="line"/>
      <point x="718" y="700" type="line"/>
      <point x="552" y="700" type="line"/>
      <point x="552" y="681" type="line"/>
      <point x="599" y="677" type="line" smooth="yes"/>
      <point x="613" y="676"/>
      <point x="624" y="665"/>
      <point x="617" y="653" type="curve" smooth="yes"/>
    </contour>
    <contour>
      <point x="506" y="867"/>
      <point x="429" y="813"/>
      <point x="374" y="771" type="curve"/>
      <point x="379" y="760" type="line"/>
      <point x="440" y="770"/>
      <point x="544" y="797"/>
      <point x="605" y="825" type="curve"/>
      <point x="604" y="863"/>
      <point x="579" y="898"/>
      <point x="549" y="912" type="curve"/>
    </contour>
  </outline>
</glyph>
<glyph name="Thorn" format="1">
  <advance width="736"/>
  <unicode hex="00DE"/>
  <outline>
    <contour>
      <point x="291" y="649" type="line" smooth="yes"/>
      <point x="291" y="665"/>
      <point x="296" y="667"/>
      <point x="315" y="671" type="curve" smooth="yes"/>
      <point x="358" y="680" type="line"/>
      <point x="358" y="700" type="line"/>
      <point x="26" y="700" type="line"/>
      <point x="26" y="680" type="line"/>
      <point x="63" y="672" type="line" smooth="yes"/>
      <point x="82" y="668"/>
      <point x="87" y="666"/>
      <point x="87" y="650" type="curve" smooth="yes"/>
      <point x="87" y="50" type="line" smooth="yes"/>
      <point x="87" y="34"/>
      <point x="82" y="32"/>
      <point x="63" y="28" type="curve" smooth="yes"/>
      <point x="26" y="20" type="line"/>
      <point x="26" y="0" type="line"/>
      <point x="358" y="0" type="line"/>
      <point x="358" y="20" type="line"/>
      <point x="315" y="29" type="line" smooth="yes"/>
      <point x="296" y="33"/>
      <point x="291" y="35"/>
      <point x="291" y="51" type="curve" smooth="yes"/>
      <point x="291" y="162" type="line"/>
      <point x="313" y="162" type="line" smooth="yes"/>
      <point x="576" y="162"/>
      <point x="686" y="205"/>
      <point x="686" y="359" type="curve" smooth="yes"/>
      <point x="686" y="513"/>
      <point x="576" y="556"/>
      <point x="313" y="556" type="curve" smooth="yes"/>
      <point x="291" y="556" type="line"/>
    </contour>
    <contour>
      <point x="476" y="236"/>
      <point x="439" y="192"/>
      <point x="322" y="192" type="curve" smooth="yes"/>
      <point x="291" y="192" type="line"/>
      <point x="291" y="526" type="line"/>
      <point x="322" y="526" type="line" smooth="yes"/>
      <point x="439" y="526"/>
      <point x="476" y="482"/>
      <point x="476" y="359" type="curve" smooth="yes"/>
    </contour>
  </outline>
</glyph>
<glyph name="adieresis" format="1">
  <advance width="644"/>
  <unicode hex="00E4"/>
  <outline>
    <contour>
      <point x="624" y="0" type="line"/>
      <point x="624" y="18" type="line"/>
      <point x="589" y="26" type="line" smooth="yes"/>
      <point x="570" y="30"/>
      <point x="565" y="32"/>
      <point x="565" y="48" type="curve" smooth="yes"/>
      <point x="565" y="325" type="line" smooth="yes"/>
      <point x="565" y="430"/>
      <point x="515" y="498"/>
      <point x="356" y="498" type="curve" smooth="yes"/>
      <point x="236" y="498"/>
      <point x="147" y="464"/>
      <point x="89" y="423" type="curve"/>
      <point x="102" y="404" type="line"/>
      <point x="153" y="435"/>
      <point x="203" y="454"/>
      <point x="268" y="454" type="curve" smooth="yes"/>
      <point x="342" y="454"/>
      <point x="367" y="423"/>
      <point x="367" y="349" type="curve" smooth="yes"/>
      <point x="367" y="276" type="line"/>
      <point x="151" y="270"/>
      <point x="38" y="239"/>
      <point x="38" y="111" type="curve" smooth="yes"/>
      <point x="38" y="26"/>
      <point x="92" y="-10"/>
      <point x="176" y="-10" type="curve" smooth="yes"/>
      <point x="273" y="-10"/>
      <point x="332" y="21"/>
      <point x="367" y="55" type="curve"/>
      <point x="367" y="50" type="line" smooth="yes"/>
      <point x="367" y="14"/>
      <point x="381" y="0"/>
      <point x="418" y="0" type="curve" smooth="yes"/>
    </contour>
    <contour>
      <point x="249" y="53"/>
      <point x="232" y="74"/>
      <point x="232" y="125" type="curve" smooth="yes"/>
      <point x="232" y="206"/>
      <point x="253" y="241"/>
      <point x="367" y="249" type="curve"/>
      <point x="367" y="87" type="line"/>
      <point x="345" y="66"/>
      <point x="319" y="53"/>
      <point x="288" y="53" type="curve" smooth="yes"/>
    </contour>
    <contour>
      <point x="259" y="573"/>
      <point x="290" y="605"/>
      <point x="290" y="646" type="curve" smooth="yes"/>
      <point x="290" y="687"/>
      <point x="259" y="719"/>
      <point x="213" y="719" type="curve" smooth="yes"/>
      <point x="167" y="719"/>
      <point x="136" y="687"/>
      <point x="136" y="646" type="curve" smooth="yes"/>
      <point x="136" y="605"/>
      <point x="167" y="573"/>
      <point x="213" y="573" type="curve" smooth="yes"/>
    </contour>
    <contour>
      <point x="497" y="573"/>
      <point x="528" y="605"/>
      <point x="528" y="646" type="curve" smooth="yes"/>
      <point x="528" y="687"/>
      <point x="497" y="719"/>
      <point x="451" y="719" type="curve" smooth="yes"/>
      <point x="405" y="719"/>
      <point x="374" y="687"/>
      <point x="374" y="646" type="curve" smooth="yes"/>
      <point x="374" y="605"/>
      <point x="405" y="573"/>
      <point x="451" y="573" type="curve" smooth="yes"/>
    </contour>
  </outline>
</glyph>
<glyph name="ae" format="1">
  <advance width="964"/>
  <unicode hex="00E6"/>
  <outline>
    <contour>
      <point x="911" y="256" type="line"/>
      <point x="914" y="270"/>
      <point x="916" y="291"/>
      <point x="916" y="306" type="curve" smooth="yes"/>
      <point x="916" y="409"/>
      <point x="834" y="498"/>
      <point x="670" y="498" type="curve" smooth="yes"/>
      <point x="601" y="498"/>
      <point x="544" y="486"/>
      <point x="499" y="463" type="curve"/>
      <point x="468" y="484"/>
      <point x="422" y="498"/>
      <point x="356" y="498" type="curve" smooth="yes"/>
      <point x="242" y="498"/>
      <point x="147" y="464"/>
      <point x="89" y="423" type="curve"/>
      <point x="102" y="404" type="line"/>
      <point x="153" y="435"/>
      <point x="207" y="454"/>
      <point x="272" y="454" type="curve" smooth="yes"/>
      <point x="346" y="454"/>
      <point x="375" y="423"/>
      <point x="375" y="349" type="curve" smooth="yes"/>
      <point x="375" y="276" type="line"/>
      <point x="159" y="270"/>
      <point x="38" y="239"/>
      <point x="38" y="111" type="curve" smooth="yes"/>
      <point x="38" y="26"/>
      <point x="96" y="-10"/>
      <point x="180" y="-10" type="curve" smooth="yes"/>
      <point x="248" y="-10"/>
      <point x="334" y="18"/>
      <point x="432" y="79" type="curve"/>
      <point x="481" y="20"/>
      <point x="559" y="-12"/>
      <point x="659" y="-12" type="curve" smooth="yes"/>
      <point x="768" y="-12"/>
      <point x="845" y="20"/>
      <point x="899" y="64" type="curve"/>
      <point x="886" y="83" type="line"/>
      <point x="841" y="53"/>
      <point x="794" y="29"/>
      <point x="733" y="29" type="curve" smooth="yes"/>
      <point x="602" y="29"/>
      <point x="575" y="126"/>
      <point x="574" y="256" type="curve"/>
    </contour>
    <contour>
      <point x="716" y="474"/>
      <point x="730" y="431"/>
      <point x="730" y="357" type="curve" smooth="yes"/>
      <point x="730" y="282" type="line"/>
      <point x="574" y="282" type="line"/>
      <point x="575" y="406"/>
      <point x="596" y="474"/>
      <point x="664" y="474" type="curve" smooth="yes"/>
    </contour>
    <contour>
      <point x="253" y="53"/>
      <point x="232" y="74"/>
      <point x="232" y="125" type="curve" smooth="yes"/>
      <point x="232" y="206"/>
      <point x="261" y="241"/>
      <point x="375" y="249" type="curve"/>
      <point x="375" y="83" type="line"/>
      <point x="351" y="65"/>
      <point x="323" y="53"/>
      <point x="292" y="53" type="curve" smooth="yes"/>
    </contour>
  </outline>
</glyph>
<glyph name="eacute" format="1">
  <advance width="658"/>
  <unicode hex="00E9"/>
  <outline>
    <contour>
      <point x="605" y="256" type="line"/>
      <point x="608" y="270"/>
      <point x="610" y="291"/>
      <point x="610" y="306" type="curve" smooth="yes"/>
      <point x="610" y="409"/>
      <point x="531" y="498"/>
      <point x="358" y="498" type="curve" smooth="yes"/>
      <point x="166" y="498"/>
      <point x="50" y="413"/>
      <point x="50" y="249" type="curve" smooth="yes"/>
      <point x="50" y="75"/>
      <point x="167" y="-12"/>
      <point x="347" y="-12" type="curve" smooth="yes"/>
      <point x="463" y="-12"/>
      <point x="539" y="20"/>
      <point x="593" y="64" type="curve"/>
      <point x="580" y="83" type="line"/>
      <point x="535" y="53"/>
      <point x="489" y="29"/>
      <point x="421" y="29" type="curve" smooth="yes"/>
      <point x="284" y="29"/>
      <point x="257" y="126"/>
      <point x="256" y="256" type="curve"/>
    </contour>
    <contour>
      <point x="413" y="474"/>
      <point x="424" y="431"/>
      <point x="424" y="357" type="curve" smooth="yes"/>
      <point x="424" y="282" type="line"/>
      <point x="256" y="282" type="line"/>
      <point x="257" y="406"/>
      <point x="275" y="474"/>
      <point x="352" y="474" type="curve" smooth="yes"/>
    </contour>
    <contour>
      <point x="364" y="673"/>
      <point x="287" y="619"/>
      <point x="232" y="577" type="curve"/>
      <point x="237" y="566" type="line"/>
      <point x="298" y="576"/>
      <point x="402" y="603"/>
      <point x="463" y="631" type="curve"/>
      <point x="462" y="669"/>
      <point x="437" y="704"/>
      <point x="407" y="718" type="curve"/>
    </contour>
  </outline>
</glyph>
<glyph name="igrave" format="1">
  <advance width="370"/>
  <unicode hex="00EC"/>
  <outline>
    <contour>
      <point x="344" y="0" type="line"/>
      <point x="344" y="18" type="line"/>
      <point x="309" y="26" type="line" smooth="yes"/>
      <point x="290" y="30"/>
      <point x="285" y="32"/>
      <point x="285" y="48" type="curve" smooth="yes"/>
      <point x="285" y="504" type="line"/>
      <point x="266" y="504" type="line"/>
      <point x="26" y="474" type="line"/>
      <point x="26" y="456" type="line"/>
      <point x="61" y="448" type="line" smooth="yes"/>
      <point x="80" y="444"/>
      <point x="85" y="442"/>
      <point x="85" y="426" type="curve" smooth="yes"/>
      <point x="85" y="48" type="line" smooth="yes"/>
      <point x="85" y="32"/>
      <point x="80" y="30"/>
      <point x="61" y="26" type="curve" smooth="yes"/>
      <point x="26" y="18" type="line"/>
      <point x="26" y="0" type="line"/>
    </contour>
    <contour>
      <point x="57" y="704"/>
      <point x="32" y="669"/>
      <point x="31" y="631" type="curve"/>
      <point x="92" y="603"/>
      <point x="196" y="576"/>
      <point x="257" y="566" type="curve"/>
      <point x="262" y="577" type="line"/>
      <point x="207" y="619"/>
      <point x="130" y="673"/>
      <point x="87" y="718" type="curve"/>
    </contour>
  </outline>
</glyph>
<glyph name="icircumflex" format="1">
  <advance width="370"/>
  <unicode hex="00EE"/>
  <outline>
    <contour>
      <point x="344" y="0" type="line"/>
      <point x="344" y="18" type="line"/>
      <point x="309" y="26" type="line" smooth="yes"/>
      <point x="290" y="30"/>
      <point x="285" y="32"/>
      <point x="285" y="48" type="curve" smooth="yes"/>
      <point x="285" y="504" type="line"/>
      <point x="266" y="504" type="line"/>
      <point x="26" y="474" type="line"/>
      <point x="26" y="456" type="line"/>
      <point x="61" y="448" type="line" smooth="yes"/>
      <point x="80" y="444"/>
      <point x="85" y="442"/>
      <point x="85" y="426" type="curve" smooth="yes"/>
      <point x="85" y="48" type="line" smooth="yes"/>
      <point x="85" y="32"/>
      <point x="80" y="30"/>
      <point x="61" y="26" type="curve" smooth="yes"/>
      <point x="26" y="18" type="line"/>
      <point x="26" y="0" type="line"/>
    </contour>
    <contour>
      <point x="159" y="718" type="line"/>
      <point x="120" y="669"/>
      <point x="75" y="622"/>
      <point x="25" y="581" type="curve"/>
      <point x="36" y="566" type="line"/>
      <point x="86" y="583"/>
      <point x="135" y="606"/>
      <point x="185" y="635" type="curve"/>
      <point x="235" y="606"/>
      <point x="284" y="583"/>
      <point x="334" y="566" type="curve"/>
      <point x="345" y="581" type="line"/>
      <point x="296" y="622"/>
      <point x="250" y="669"/>
      <point x="211" y="718" type="curve"/>
    </contour>
  </outline>
</glyph>
<glyph name="ograve" format="1">
  <advance width="724"/>
  <unicode hex="00F2"/>
  <outline>
    <contour>
      <point x="674" y="419"/>
      <point x="559" y="498"/>
      <point x="362" y="498" type="curve" smooth="yes"/>
      <point x="165" y="498"/>
      <point x="50" y="419"/>
      <point x="50" y="243" type="curve" smooth="yes"/>
      <point x="50" y="67"/>
      <point x="165" y="-12"/>
      <point x="362" y="-12" type="curve" smooth="yes"/>
      <point x="559" y="-12"/>
      <point x="674" y="67"/>
      <point x="674" y="243" type="curve" smooth="yes"/>
    </contour>
    <contour>
      <point x="258" y="412"/>
      <point x="277" y="472"/>
      <point x="362" y="472" type="curve" smooth="yes"/>
      <point x="448" y="472"/>
      <point x="466" y="412"/>
      <point x="466" y="243" type="curve" smooth="yes"/>
      <point x="466" y="74"/>
      <point x="448" y="14"/>
      <point x="362" y="14" type="curve" smooth="yes"/>
      <point x="276" y="14"/>
      <point x="258" y="74"/>
      <point x="258" y="243" type="curve" smooth="yes"/>
    </contour>
    <contour>
      <point x="214" y="704"/>
      <point x="189" y="669"/>
      <point x="188" y="631" type="curve"/>
      <point x="249" y="603"/>
      <point x="353" y="576"/>
      <point x="414" y="566" type="curve"/>
      <point x="419" y="577" type="line"/>
      <point x="364" y="619"/>
      <point x="287" y="673"/>
      <point x="244" y="718" type="curve"/>
    </contour>
  </outline>
</glyph>
<glyph name="otilde" format="1">
  <advance width="724"/>
  <unicode hex="00F5"/>
  <outline>
    <contour>
      <point x="674" y="419"/>
      <point x="559" y="498"/>
      <point x="362" y="498" type="curve" smooth="yes"/>
      <point x="165" y="498"/>
      <point x="50" y="419"/>
      <point x="50" y="243" type="curve" smooth="yes"/>
      <point x="50" y="67"/>
      <point x="165" y="-12"/>
      <point x="362" y="-12" type="curve" smooth="yes"/>
      <point x="559" y="-12"/>
      <point x="674" y="67"/>
      <point x="674" y="243" type="curve" smooth="yes"/>
    </contour>
    <contour>
      <point x="258" y="412"/>
      <point x="277" y="472"/>
      <point x="362" y="472" type="curve" smooth="yes"/>
      <point x="448" y="472"/>
      <point x="466" y="412"/>
      <point x="466" y="243" type="curve" smooth="yes"/>
      <point x="466" y="74"/>
      <point x="448" y="14"/>
      <point x="362" y="14" type="curve" smooth="yes"/>
      <point x="276" y="14"/>
      <point x="258" y="74"/>
      <point x="258" y="243" type="curve" smooth="yes"/>
    </contour>
    <contour>
      <point x="506" y="564"/>
      <point x="532" y="639"/>
      <point x="551" y="689" type="curve"/>
      <point x="539" y="694" type="line"/>
      <point x="515" y="664" type="line"/>
      <point x="502" y="646"/>
      <point x="475" y="640"/>
      <point x="451" y="649" type="curve" smooth="yes"/>
      <point x="355" y="687"/>
      <point x="307" y="708"/>
      <point x="277" y="708" type="curve" smooth="yes"/>
      <point x="218" y="708"/>
      <point x="192" y="633"/>
      <point x="173" y="583" type="curve"/>
      <point x="185" y="578" type="line"/>
      <point x="209" y="608" type="line"/>
      <point x="222" y="626"/>
      <point x="249" y="632"/>
      <point x="273" y="623" type="curve" smooth="yes"/>
      <point x="369" y="585"/>
      <point x="417" y="564"/>
      <point x="447" y="564" type="curve" smooth="yes"/>
    </contour>
  </outline>
</glyph>
<glyph name="divide" format="1">
  <advance width="572"/>
  <unicode hex="00F7"/>
  <outline>
    <contour>
      <point x="496" y="342" type="line"/>
      <point x="74" y="342" type="line"/>
      <point x="74" y="314" type="line"/>
      <point x="496" y="314" type="line"/>
    </contour>
    <contour>
      <point x="496" y="342" type="line"/>
      <point x="74" y="342" type="line"/>
      <point x="74" y="314" type="line"/>
      <point x="496" y="314" type="line"/>
    </contour>
    <contour>
      <point x="332" y="74"/>
      <point x="370" y="110"/>
      <point x="370" y="156" type="curve" smooth="yes"/>
      <point x="370" y="202"/>
      <point x="332" y="238"/>
      <point x="286" y="238" type="curve" smooth="yes"/>
      <point x="240" y="238"/>
      <point x="202" y="202"/>
      <point x="202" y="156" type="curve" smooth="yes"/>
      <point x="202" y="110"/>
      <point x="240" y="74"/>
      <point x="286" y="74" type="curve" smooth="yes"/>
    </contour>
    <contour>
      <point x="332" y="418"/>
      <point x="370" y="454"/>
      <point x="370" y="500" type="curve" smooth="yes"/>
      <point x="370" y="546"/>
      <point x="332" y="582"/>
      <point x="286" y="582" type="curve" smooth="yes"/>
      <point x="240" y="582"/>
      <point x="202" y="546"/>
      <point x="202" y="500" type="curve" smooth="yes"/>
      <point x="202" y="454"/>
      <point x="240" y="418"/>
      <point x="286" y="418" type="curve" smooth="yes"/>
    </contour>
  </outline>
</glyph>
<glyph name="uacute" format="1">
  <advance width="746"/>
  <unicode hex="00FA"/>
  <outline>
    <contour>
      <point x="463" y="93" type="line"/>
      <point x="430" y="66"/>
      <point x="387" y="43"/>
      <point x="342" y="43" type="curve" smooth="yes"/>
      <point x="296" y="43"/>
      <point x="279" y="66"/>
      <point x="279" y="126" type="curve" smooth="yes"/>
      <point x="279" y="504" type="line"/>
      <point x="262" y="504" type="line"/>
      <point x="20" y="474" type="line"/>
      <point x="20" y="456" type="line"/>
      <point x="55" y="448" type="line" smooth="yes"/>
      <point x="74" y="444"/>
      <point x="79" y="442"/>
      <point x="79" y="426" type="curve" smooth="yes"/>
      <point x="79" y="144" type="line" smooth="yes"/>
      <point x="79" y="45"/>
      <point x="123" y="-12"/>
      <point x="252" y="-12" type="curve" smooth="yes"/>
      <point x="351" y="-12"/>
      <point x="425" y="29"/>
      <point x="465" y="63" type="curve"/>
      <point x="465" y="52" type="line" smooth="yes"/>
      <point x="465" y="16"/>
      <point x="479" y="0"/>
      <point x="519" y="0" type="curve" smooth="yes"/>
      <point x="722" y="0" type="line"/>
      <point x="722" y="18" type="line"/>
      <point x="687" y="26" type="line" smooth="yes"/>
      <point x="668" y="30"/>
      <point x="663" y="32"/>
      <point x="663" y="48" type="curve" smooth="yes"/>
      <point x="663" y="504" type="line"/>
      <point x="646" y="504" type="line"/>
      <point x="404" y="474" type="line"/>
      <point x="404" y="456" type="line"/>
      <point x="439" y="448" type="line" smooth="yes"/>
      <point x="458" y="444"/>
      <point x="463" y="442"/>
      <point x="463" y="426" type="curve" smooth="yes"/>
    </contour>
    <contour>
      <point x="418" y="673"/>
      <point x="341" y="619"/>
      <point x="286" y="577" type="curve"/>
      <point x="291" y="566" type="line"/>
      <point x="352" y="576"/>
      <point x="456" y="603"/>
      <point x="517" y="631" type="curve"/>
      <point x="516" y="669"/>
      <point x="491" y="704"/>
      <point x="461" y="718" type="curve"/>
    </contour>
  </outline>
</glyph>
<glyph name="yacute" format="1">
  <advance width="582"/>
  <unicode hex="00FD"/>
  <outline>
    <contour>
      <point x="318" y="486" type="line"/>
      <point x="4" y="486" type="line"/>
      <point x="4" y="471" type="line"/>
      <point x="34" y="463" type="line"/>
      <point x="44" y="461"/>
      <point x="55" y="458"/>
      <point x="62" y="444" type="curve" smooth="yes"/>
      <point x="303" y="-16" type="line"/>
      <point x="246" y="-55"/>
      <point x="163" y="-84"/>
      <point x="69" y="-88" type="curve"/>
      <point x="123" y="-240" type="line"/>
      <point x="229" y="-215"/>
      <point x="257" y="-167"/>
      <point x="330" y="0" type="curve" smooth="yes"/>
      <point x="525" y="448" type="line" smooth="yes"/>
      <point x="532" y="464"/>
      <point x="537" y="465"/>
      <point x="552" y="467" type="curve" smooth="yes"/>
      <point x="578" y="471" type="line"/>
      <point x="578" y="486" type="line"/>
      <point x="463" y="486" type="line"/>
      <point x="463" y="471" type="line"/>
      <point x="489" y="468" type="line" smooth="yes"/>
      <point x="504" y="466"/>
      <point x="504" y="463"/>
      <point x="499" y="451" type="curve" smooth="yes"/>
      <point x="390" y="197" type="line"/>
      <point x="274" y="430" type="line" smooth="yes"/>
      <point x="263" y="452"/>
      <point x="273" y="461"/>
      <point x="292" y="465" type="curve" smooth="yes"/>
      <point x="318" y="471" type="line"/>
    </contour>
    <contour>
      <point x="447" y="673"/>
      <point x="370" y="619"/>
      <point x="315" y="577" type="curve"/>
      <point x="320" y="566" type="line"/>
      <point x="381" y="576"/>
      <point x="485" y="603"/>
      <point x="546" y="631" type="curve"/>
      <point x="545" y="669"/>
      <point x="520" y="704"/>
      <point x="490" y="718" type="curve"/>
    </contour>
  </outline>
</glyph>
<glyph name="thorn" format="1">
  <advance width="746"/>
  <unicode hex="00FE"/>
  <outline>
    <contour>
      <point x="283" y="730" type="line"/>
      <point x="264" y="730" type="line"/>
      <point x="24" y="700" type="line"/>
      <point x="24" y="682" type="line"/>
      <point x="59" y="674" type="line" smooth="yes"/>
      <point x="78" y="670"/>
      <point x="83" y="668"/>
      <point x="83" y="652" type="curve" smooth="yes"/>
      <point x="83" y="-178" type="line" smooth="yes"/>
      <point x="83" y="-194"/>
      <point x="78" y="-196"/>
      <point x="59" y="-200" type="curve" smooth="yes"/>
      <point x="24" y="-208" type="line"/>
      <point x="24" y="-226" type="line"/>
      <point x="342" y="-226" type="line"/>
      <point x="342" y="-208" type="line"/>
      <point x="307" y="-200" type="line" smooth="yes"/>
      <point x="288" y="-196"/>
      <point x="283" y="-194"/>
      <point x="283" y="-178" type="curve" smooth="yes"/>
      <point x="283" y="55" type="line"/>
      <point x="314" y="22"/>
      <point x="367" y="-10"/>
      <point x="455" y="-10" type="curve" smooth="yes"/>
      <point x="593" y="-10"/>
      <point x="696" y="62"/>
      <point x="696" y="249" type="curve" smooth="yes"/>
      <point x="696" y="430"/>
      <point x="593" y="498"/>
      <point x="455" y="498" type="curve" smooth="yes"/>
      <point x="366" y="498"/>
      <point x="315" y="472"/>
      <point x="283" y="448" type="curve"/>
    </contour>
    <contour>
      <point x="465" y="456"/>
      <point x="490" y="395"/>
      <point x="490" y="249" type="curve" smooth="yes"/>
      <point x="490" y="97"/>
      <point x="469" y="33"/>
      <point x="396" y="33" type="curve" smooth="yes"/>
      <point x="351" y="33"/>
      <point x="311" y="59"/>
      <point x="283" y="89" type="curve"/>
      <point x="283" y="418" type="line"/>
      <point x="311" y="441"/>
      <point x="347" y="456"/>
      <point x="391" y="456" type="curve" smooth="yes"/>
    </contour>
  </outline>
</glyph>
<glyph name="aogonek" format="1">
  <advance width="644"/>
  <unicode hex="0105"/>
  <outline>
    <contour>
      <point x="587" y="-142" type="line"/>
      <point x="573" y="-153"/>
      <point x="553" y="-165"/>
      <point x="534" y="-165" type="curve" smooth="yes"/>
      <point x="493" y="-165"/>
      <point x="476" y="-147"/>
      <point x="476" y="-106" type="curve" smooth="yes"/>
      <point x="476" y="-57"/>
      <point x="491" y="-22"/>
      <point x="537" y="0" type="curve"/>
      <point x="624" y="0" type="line"/>
      <point x="624" y="18" type="line"/>
      <point x="589" y="26" type="line" smooth="yes"/>
      <point x="570" y="30"/>
      <point x="565" y="32"/>
      <point x="565" y="48" type="curve" smooth="yes"/>
      <point x="565" y="325" type="line" smooth="yes"/>
      <point x="565" y="430"/>
      <point x="515" y="498"/>
      <point x="356" y="498" type="curve" smooth="yes"/>
      <point x="236" y="498"/>
      <point x="147" y="464"/>
      <point x="89" y="423" type="curve"/>
      <point x="102" y="404" type="line"/>
      <point x="153" y="435"/>
      <point x="203" y="454"/>
      <point x="268" y="454" type="curve" smooth="yes"/>
      <point x="342" y="454"/>
      <point x="367" y="423"/>
      <point x="367" y="349" type="curve" smooth="yes"/>
      <point x="367" y="276" type="line"/>
      <point x="151" y="270"/>
      <point x="38" y="239"/>
      <point x="38" y="111" type="curve" smooth="yes"/>
      <point x="38" y="26"/>
      <point x="92" y="-10"/>
      <point x="176" y="-10" type="curve" smooth="yes"/>
      <point x="273" y="-10"/>
      <point x="332" y="21"/>
      <point x="367" y="55" type="curve"/>
      <point x="367" y="50" type="line" smooth="yes"/>
      <point x="367" y="14"/>
      <point x="381" y="0"/>
      <point x="418" y="0" type="curve" smooth="yes"/>
      <point x="510" y="0" type="line"/>
      <point x="438" y="-21"/>
      <point x="378" y="-63"/>
      <point x="378" y="-131" type="curve" smooth="yes"/>
      <point x="378" y="-178"/>
      <point x="414" y="-205"/>
      <point x="484" y="-205" type="curve" smooth="yes"/>
      <point x="536" y="-205"/>
      <point x="570" y="-180"/>
      <point x="594" y="-153" type="curve"/>
    </contour>
    <contour>
      <point x="249" y="53"/>
      <point x="232" y="74"/>
      <point x="232" y="125" type="curve" smooth="yes"/>
      <point x="232" y="206"/>
      <point x="253" y="241"/>
      <point x="367" y="249" type="curve"/>
      <point x="367" y="87" type="line"/>
      <point x="345" y="66"/>
      <point x="319" y="53"/>
      <point x="288" y="53" type="curve" smooth="yes"/>
    </contour>
  </outline>
</glyph>
<glyph name="Cacute" format="1">
  <advance width="754"/>
  <unicode hex="0106"/>
  <outline>
    <contour>
      <point x="328" y="38"/>
      <point x="276" y="166"/>
      <point x="276" y="386" type="curve" smooth="yes"/>
      <point x="276" y="576"/>
      <point x="320" y="683"/>
      <point x="446" y="683" type="curve" smooth="yes"/>
      <point x="562" y="683"/>
      <point x="616" y="591"/>
      <point x="648" y="495" type="curve"/>
      <point x="676" y="495" type="line"/>
      <point x="690" y="667" type="line"/>
      <point x="640" y="692"/>
      <point x="541" y="712"/>
      <point x="445" y="712" type="curve" smooth="yes"/>
      <point x="231" y="712"/>
      <point x="56" y="616"/>
      <point x="56" y="360" type="curve" smooth="yes"/>
      <point x="56" y="80"/>
      <point x="240" y="-12"/>
      <point x="440" y="-12" type="curve" smooth="yes"/>
      <point x="562" y="-12"/>
      <point x="657" y="35"/>
      <point x="710" y="84" type="curve"/>
      <point x="690" y="106" type="line"/>
      <point x="642" y="68"/>
      <point x="585" y="38"/>
      <point x="506" y="38" type="curve" smooth="yes"/>
    </contour>
    <contour>
      <point x="493" y="867"/>
      <point x="416" y="813"/>
      <point x="361" y="771" type="curve"/>
      <point x="366" y="760" type="line"/>
      <point x="427" y="770"/>
      <point x="531" y="797"/>
      <point x="592" y="825" type="curve"/>
      <point x="591" y="863"/>
      <point x="566" y="898"/>
      <point x="536" y="912" type="curve"/>
    </contour>
  </outline>
</glyph>
<glyph name="Cdotaccent" format="1">
  <advance width="754"/>
  <unicode hex="010A"/>
  <outline>
    <contour>
      <point x="328" y="38"/>
      <point x="276" y="166"/>
      <point x="276" y="386" type="curve" smooth="yes"/>
      <point x="276" y="576"/>
      <point x="320" y="683"/>
      <point x="446" y="683" type="curve" smooth="yes"/>
      <point x="562" y="683"/>
      <point x="616" y="591"/>
      <point x="648" y="495" type="curve"/>
      <point x="676" y="495" type="line"/>
      <point x="690" y="667" type="line"/>
      <point x="640" y="692"/>
      <point x="541" y="712"/>
      <point x="445" y="712" type="curve" smooth="yes"/>
      <point x="231" y="712"/>
      <point x="56" y="616"/>
      <point x="56" y="360" type="curve" smooth="yes"/>
      <point x="56" y="80"/>
      <point x="240" y="-12"/>
      <point x="440" y="-12" type="curve" smooth="yes"/>
      <point x="562" y="-12"/>
      <point x="657" y="35"/>
      <point x="710" y="84" type="curve"/>
      <point x="690" y="106" type="line"/>
      <point x="642" y="68"/>
      <point x="585" y="38"/>
      <point x="506" y="38" type="curve" smooth="yes"/>
    </contour>
    <contour>
      <point x="487" y="763"/>
      <point x="524" y="787"/>
      <point x="524" y="838" type="curve" smooth="yes"/>
      <point x="524" y="889"/>
      <point x="487" y="913"/>
      <point x="437" y="913" type="curve" smooth="yes"/>
      <point x="387" y="913"/>
      <point x="350" y="889"/>
      <point x="350" y="838" type="curve" smooth="yes"/>
      <point x="350" y="787"/>
      <point x="387" y="763"/>
      <point x="437" y="763" type="curve" smooth="yes"/>
    </contour>
  </outline>
</glyph>
<glyph name="Dcaron" format="1">
  <advance width="818"/>
  <unicode hex="010E"/>
  <outline>
    <contour>
      <point x="26" y="0" type="line"/>
      <point x="332" y="0" type="line" smooth="yes"/>
      <point x="592" y="0"/>
      <point x="762" y="80"/>
      <point x="762" y="350" type="curve" smooth="yes"/>
      <point x="762" y="620"/>
      <point x="592" y="700"/>
      <point x="332" y="700" type="curve" smooth="yes"/>
      <point x="26" y="700" type="line"/>
      <point x="26" y="680" type="line"/>
      <point x="63" y="672" type="line" smooth="yes"/>
      <point x="82" y="668"/>
      <point x="87" y="666"/>
      <point x="87" y="650" type="curve" smooth="yes"/>
      <point x="87" y="50" type="line" smooth="yes"/>
      <point x="87" y="34"/>
      <point x="82" y="32"/>
      <point x="63" y="28" type="curve" smooth="yes"/>
      <point x="26" y="20" type="line"/>
    </contour>
    <contour>
      <point x="332" y="670" type="line" smooth="yes"/>
      <point x="497" y="670"/>
      <point x="541" y="592"/>
      <point x="541" y="350" type="curve" smooth="yes"/>
      <point x="541" y="108"/>
      <point x="497" y="30"/>
      <point x="332" y="30" type="curve" smooth="yes"/>
      <point x="291" y="30" type="line"/>
      <point x="291" y="670" type="line"/>
    </contour>
    <contour>
      <point x="435" y="760" type="line"/>
      <point x="474" y="809"/>
      <point x="520" y="856"/>
      <point x="569" y="897" type="curve"/>
      <point x="558" y="912" type="line"/>
      <point x="508" y="895"/>
      <point x="459" y="872"/>
      <point x="409" y="843" type="curve"/>
      <point x="359" y="872"/>
      <point x="310" y="895"/>
      <point x="260" y="912" type="curve"/>
      <point x="249" y="897" type="line"/>
      <point x="299" y="856"/>
      <point x="344" y="809"/>
      <point x="383" y="760" type="curve"/>
    </contour>
  </outline>
</glyph>
<glyph name="dcaron" format="1">
  <advance width="936"/>
  <unicode hex="010F"/>
  <outline>
    <contour>
      <point x="722" y="0" type="line"/>
      <point x="722" y="18" type="line"/>
      <point x="687" y="26" type="line" smooth="yes"/>
      <point x="668" y="30"/>
      <point x="663" y="32"/>
      <point x="663" y="48" type="curve" smooth="yes"/>
      <point x="663" y="730" type="line"/>
      <point x="644" y="730" type="line"/>
      <point x="404" y="700" type="line"/>
      <point x="404" y="682" type="line"/>
      <point x="439" y="674" type="line" smooth="yes"/>
      <point x="458" y="670"/>
      <point x="463" y="668"/>
      <point x="463" y="652" type="curve" smooth="yes"/>
      <point x="463" y="448" type="line"/>
      <point x="430" y="472"/>
      <point x="380" y="498"/>
      <point x="291" y="498" type="curve" smooth="yes"/>
      <point x="153" y="498"/>
      <point x="50" y="429"/>
      <point x="50" y="248" type="curve" smooth="yes"/>
      <point x="50" y="61"/>
      <point x="153" y="-12"/>
      <point x="291" y="-12" type="curve" smooth="yes"/>
      <point x="381" y="-12"/>
      <point x="433" y="22"/>
      <point x="465" y="56" type="curve"/>
      <point x="465" y="20"/>
      <point x="479" y="0"/>
      <point x="516" y="0" type="curve" smooth="yes"/>
    </contour>
    <contour>
      <point x="277" y="31"/>
      <point x="256" y="96"/>
      <point x="256" y="248" type="curve" smooth="yes"/>
      <point x="256" y="394"/>
      <point x="281" y="456"/>
      <point x="355" y="456" type="curve" smooth="yes"/>
      <point x="399" y="456"/>
      <point x="434" y="441"/>
      <point x="463" y="418" type="curve"/>
      <point x="463" y="87" type="line"/>
      <point x="434" y="57"/>
      <point x="395" y="31"/>
      <point x="350" y="31" type="curve" smooth="yes"/>
    </contour>
    <contour>
      <point x="836" y="515"/>
      <point x="823" y="486"/>
      <point x="778" y="440" type="curve"/>
      <point x="796" y="423" type="line"/>
      <point x="858" y="471"/>
      <point x="910" y="546"/>
      <point x="910" y="624" type="curve" smooth="yes"/>
      <point x="910" y="680"/>
      <point x="876" y="708"/>
      <point x="826" y="708" type="curve" smooth="yes"/>
      <point x="774" y="708"/>
      <point x="746" y="673"/>
      <point x="746" y="632" type="curve" smooth="yes"/>
      <point x="746" y="590"/>
      <point x="773" y="553"/>
      <point x="837" y="560" type="curve"/>
    </contour>
  </outline>
</glyph>
<glyph name="Ebreve" format="1">
  <advance width="720"/>
  <unicode hex="0114"/>
  <outline>
    <contour>
      <point x="26" y="0" type="line"/>
      <point x="656" y="0" type="line"/>
      <point x="656" y="199" type="line"/>
      <point x="630" y="199" type="line"/>
      <point x="593" y="87"/>
      <point x="566" y="30"/>
      <point x="443" y="30" type="curve" smooth="yes"/>
      <point x="291" y="30" type="line"/>
      <point x="291" y="343" type="line"/>
      <point x="549" y="343" type="line"/>
      <point x="549" y="373" type="line"/>
      <point x="291" y="373" type="line"/>
      <point x="291" y="670" type="line"/>
      <point x="433" y="670" type="line" smooth="yes"/>
      <point x="556" y="670"/>
      <point x="580" y="617"/>
      <point x="617" y="505" type="curve"/>
      <point x="642" y="505" type="line"/>
      <point x="642" y="700" type="line"/>
      <point x="26" y="700" type="line"/>
      <point x="26" y="680" type="line"/>
      <point x="63" y="672" type="line" smooth="yes"/>
      <point x="82" y="668"/>
      <point x="87" y="666"/>
      <point x="87" y="650" type="curve" smooth="yes"/>
      <point x="87" y="50" type="line" smooth="yes"/>
      <point x="87" y="34"/>
      <point x="82" y="32"/>
      <point x="63" y="28" type="curve" smooth="yes"/>
      <point x="26" y="20" type="line"/>
    </contour>
    <contour>
      <point x="473" y="760"/>
      <point x="516" y="820"/>
      <point x="518" y="913" type="curve"/>
      <point x="498" y="913" type="line"/>
      <point x="485" y="862"/>
      <point x="459" y="837"/>
      <point x="380" y="837" type="curve" smooth="yes"/>
      <point x="301" y="837"/>
      <point x="275" y="862"/>
      <point x="262" y="913" type="curve"/>
      <point x="242" y="913" type="line"/>
      <point x="244" y="820"/>
      <point x="287" y="760"/>
      <point x="380" y="760" type="curve" smooth="yes"/>
    </contour>
  </outline>
</glyph>
<glyph name="Eogonek" format="1">
  <advance width="720"/>
  <unicode hex="0118"/>
  <outline>
    <contour>
      <point x="26" y="0" type="line"/>
      <point x="552" y="0" type="line"/>
      <point x="480" y="-21"/>
      <point x="420" y="-63"/>
      <point x="420" y="-131" type="curve" smooth="yes"/>
      <point x="420" y="-178"/>
      <point x="456" y="-205"/>
      <point x="526" y="-205" type="curve" smooth="yes"/>
      <point x="578" y="-205"/>
      <point x="612" y="-180"/>
      <point x="636" y="-153" type="curve"/>
      <point x="629" y="-142" type="line"/>
      <point x="615" y="-153"/>
      <point x="595" y="-165"/>
      <point x="576" y="-165" type="curve" smooth="yes"/>
      <point x="535" y="-165"/>
      <point x="518" y="-147"/>
      <point x="518" y="-106" type="curve" smooth="yes"/>
      <point x="518" y="-57"/>
      <point x="533" y="-22"/>
      <point x="579" y="0" type="curve"/>
      <point x="656" y="0" type="line"/>
      <point x="656" y="199" type="line"/>
      <point x="630" y="199" type="line"/>
      <point x="593" y="87"/>
      <point x="566" y="30"/>
      <point x="443" y="30" type="curve" smooth="yes"/>
      <point x="291" y="30" type="line"/>
      <point x="291" y="343" type="line"/>
      <point x="549" y="343" type="line"/>
      <point x="549" y="373" type="line"/>
      <point x="291" y="373" type="line"/>
      <point x="291" y="670" type="line"/>
      <point x="433" y="670" type="line" smooth="yes"/>
      <point x="556" y="670"/>
      <point x="580" y="617"/>
      <point x="617" y="505" type="curve"/>
      <point x="642" y="505" type="line"/>
      <point x="642" y="700" type="line"/>
      <point x="26" y="700" type="line"/>
      <point x="26" y="680" type="line"/>
      <point x="63" y="672" type="line" smooth="yes"/>
      <point x="82" y="668"/>
      <point x="87" y="666"/>
      <point x="87" y="650" type="curve" smooth="yes"/>
      <point x="87" y="50" type="line" smooth="yes"/>
      <point x="87" y="34"/>
      <point x="82" y="32"/>
      <point x="63" y="28" type="curve" smooth="yes"/>
      <point x="26" y="20" type="line"/>
    </contour>
  </outline>
</glyph>
<glyph name="Gcircumflex" format="1">
  <advance width="790"/>
  <unicode hex="011C"/>
  <outline>
    <contour>
      <point x="276" y="576"/>
      <point x="322" y="683"/>
      <point x="453" y="683" type="curve" smooth="yes"/>
      <point x="575" y="683"/>
      <point x="630" y="591"/>
      <point x="662" y="495" type="curve"/>
      <point x="690" y="495" type="line"/>
      <point x="704" y="667" type="line"/>
      <point x="654" y="692"/>
      <point x="553" y="712"/>
      <point x="452" y="712" type="curve" smooth="yes"/>
      <point x="233" y="712"/>
      <point x="56" y="616"/>
      <point x="56" y="360" type="curve" smooth="yes"/>
      <point x="56" y="80"/>
      <point x="246" y="-12"/>
      <point x="444" y="-12" type="curve" smooth="yes"/>
      <point x="523" y="-12"/>
      <point x="633" y="27"/>
      <point x="722" y="44" type="curve"/>
      <point x="722" y="307" type="line"/>
      <point x="449" y="307" type="line"/>
      <point x="449" y="277" type="line"/>
      <point x="548" y="277" type="line"/>
      <point x="548" y="31" type="line"/>
      <point x="516" y="31" type="line" smooth="yes"/>
      <point x="338" y="31"/>
      <point x="276" y="134"/>
      <point x="276" y="386" type="curve" smooth="yes"/>
    </contour>
    <contour>
      <point x="419" y="912" type="line"/>
      <point x="380" y="863"/>
      <point x="335" y="816"/>
      <point x="285" y="775" type="curve"/>
      <point x="296" y="760" type="line"/>
      <point x="346" y="777"/>
      <point x="395" y="800"/>
      <point x="445" y="829" type="curve"/>
      <point x="495" y="800"/>
      <point x="544" y="777"/>
      <point x="594" y="760" type="curve"/>
      <point x="605" y="775" type="line"/>
      <point x="556" y="816"/>
      <point x="510" y="863"/>
      <point x="471" y="912" type="curve"/>
    </contour>
  </outline>
</glyph>
<glyph name="Gbreve" format="1">
  <advance width="790"/>
  <unicode hex="011E"/>
  <outline>
    <contour>
      <point x="276" y="576"/>
      <point x="322" y="683"/>
      <point x="453" y="683" type="curve" smooth="yes"/>
      <point x="575" y="683"/>
      <point x="630" y="591"/>
      <point x="662" y="495" type="curve"/>
      <point x="690" y="495" type="line"/>
      <point x="704" y="667" type="line"/>
      <point x="654" y="692"/>
      <point x="553" y="712"/>
      <point x="452" y="712" type="curve" smooth="yes"/>
      <point x="233" y="712"/>
      <point x="56" y="616"/>
      <point x="56" y="360" type="curve" smooth="yes"/>
      <point x="56" y="80"/>
      <point x="246" y="-12"/>
      <point x="444" y="-12" type="curve" smooth="yes"/>
      <point x="523" y="-12"/>
      <point x="633" y="27"/>
      <point x="722" y="44" type="curve"/>
      <point x="722" y="307" type="line"/>
      <point x="449" y="307" type="line"/>
      <point x="449" y="277" type="line"/>
      <point x="548" y="277" type="line"/>
      <point x="548" y="31" type="line"/>
      <point x="516" y="31" type="line" smooth="yes"/>
      <point x="338" y="31"/>
      <point x="276" y="134"/>
      <point x="276" y="386" type="curve" smooth="yes"/>
    </contour>
    <contour>
      <point x="548" y="760"/>
      <point x="591" y="820"/>
      <point x="593" y="913" type="curve"/>
      <point x="573" y="913" type="line"/>
      <point x="560" y="862"/>
      <point x="534" y="837"/>
      <point x="455" y="837" type="curve" smooth="yes"/>
      <point x="376" y="837"/>
      <point x="350" y="862"/>
      <point x="337" y="913" type="curve"/>
      <point x="317" y="913" type="line"/>
      <point x="319" y="820"/>
      <point x="362" y="760"/>
      <point x="455" y="760" type="curve" smooth="yes"/>
    </contour>
  </outline>
</glyph>
<glyph name="Hbar" format="1">
  <advance width="844"/>
  <unicode hex="0126"/>
  <outline>
    <contour>
      <point x="26" y="528" type="line"/>
      <point x="87" y="528" type="line"/>
      <point x="87" y="50" type="line" smooth="yes"/>
      <point x="87" y="34"/>
      <point x="82" y="32"/>
      <point x="63" y="28" type="curve" smooth="yes"/>
      <point x="26" y="20" type="line"/>
      <point x="26" y="0" type="line"/>
      <point x="350" y="0" type="line"/>
      <point x="350" y="20" type="line"/>
      <point x="314" y="28" type="line" smooth="yes"/>
      <point x="296" y="32"/>
      <point x="291" y="34"/>
      <point x="291" y="49" type="curve" smooth="yes"/>
      <point x="291" y="343" type="line"/>
      <point x="553" y="343" type="line"/>
      <point x="553" y="49" type="line" smooth="yes"/>
      <point x="553" y="34"/>
      <point x="548" y="32"/>
      <point x="530" y="28" type="curve" smooth="yes"/>
      <point x="494" y="20" type="line"/>
      <point x="494" y="0" type="line"/>
      <point x="818" y="0" type="line"/>
      <point x="818" y="20" type="line"/>
      <point x="781" y="28" type="line" smooth="yes"/>
      <point x="762" y="32"/>
      <point x="757" y="34"/>
      <point x="757" y="50" type="curve" smooth="yes"/>
      <point x="757" y="528" type="line"/>
      <point x="818" y="528" type="line"/>
      <point x="818" y="552" type="line"/>
      <point x="757" y="552" type="line"/>
      <point x="757" y="650" type="line" smooth="yes"/>
      <point x="757" y="666"/>
      <point x="762" y="668"/>
      <point x="781" y="672" type="curve" smooth="yes"/>
      <point x="818" y="680" type="line"/>
      <point x="818" y="700" type="line"/>
      <point x="494" y="700" type="line"/>
      <point x="494" y="680" type="line"/>
      <point x="530" y="672" type="line"/>
      <point x="548" y="669"/>
      <point x="553" y="666"/>
      <point x="553" y="651" type="curve" smooth="yes"/>
      <point x="553" y="552" type="line"/>
      <point x="291" y="552" type="line"/>
      <point x="291" y="651" type="line" smooth="yes"/>
      <point x="291" y="666"/>
      <point x="296" y="669"/>
      <point x="314" y="672" type="curve"/>
      <point x="350" y="680" type="line"/>
      <point x="350" y="700" type="line"/>
      <point x="26" y="700" type="line"/>
      <point x="26" y="680" type="line"/>
      <point x="63" y="672" type="line" smooth="yes"/>
      <point x="82" y="668"/>
      <point x="87" y="666"/>
      <point x="87" y="650" type="curve" smooth="yes"/>
      <point x="87" y="552" type="line"/>
      <point x="26" y="552" type="line"/>
    </contour>
    <contour>
      <point x="291" y="373" type="line"/>
      <point x="291" y="528" type="line"/>
      <point x="553" y="528" type="line"/>
      <point x="553" y="373" type="line"/>
    </contour>
  </outline>
</glyph>
<glyph name="hbar" format="1">
  <advance width="750"/>
  <unicode hex="0127"/>
  <outline>
    <contour>
      <point x="24" y="578" type="line"/>
      <point x="83" y="578" type="line"/>
      <point x="83" y="48" type="line" smooth="yes"/>
      <point x="83" y="32"/>
      <point x="78" y="30"/>
      <point x="59" y="26" type="curve" smooth="yes"/>
      <point x="24" y="18" type="line"/>
      <point x="24" y="0" type="line"/>
      <point x="340" y="0" type="line"/>
      <point x="340" y="18" type="line"/>
      <point x="306" y="25" type="line" smooth="yes"/>
      <point x="287" y="29"/>
      <point x="283" y="33"/>
      <point x="283" y="48" type="curve" smooth="yes"/>
      <point x="283" y="393" type="line"/>
      <point x="317" y="420"/>
      <point x="361" y="443"/>
      <point x="406" y="443" type="curve" smooth="yes"/>
      <point x="452" y="443"/>
      <point x="469" y="420"/>
      <point x="469" y="360" type="curve" smooth="yes"/>
      <point x="469" y="56" type="line" smooth="yes"/>
      <point x="469" y="20"/>
      <point x="483" y="0"/>
      <point x="520" y="0" type="curve" smooth="yes"/>
      <point x="728" y="0" type="line"/>
      <point x="728" y="18" type="line"/>
      <point x="693" y="26" type="line" smooth="yes"/>
      <point x="674" y="30"/>
      <point x="669" y="32"/>
      <point x="669" y="48" type="curve" smooth="yes"/>
      <point x="669" y="342" type="line" smooth="yes"/>
      <point x="669" y="441"/>
      <point x="625" y="498"/>
      <point x="496" y="498" type="curve" smooth="yes"/>
      <point x="398" y="498"/>
      <point x="325" y="458"/>
      <point x="283" y="424" type="curve"/>
      <point x="283" y="578" type="line"/>
      <point x="444" y="578" type="line"/>
      <point x="444" y="602" type="line"/>
      <point x="283" y="602" type="line"/>
      <point x="283" y="730" type="line"/>
      <point x="264" y="730" type="line"/>
      <point x="24" y="700" type="line"/>
      <point x="24" y="682" type="line"/>
      <point x="59" y="674" type="line" smooth="yes"/>
      <point x="78" y="670"/>
      <point x="83" y="668"/>
      <point x="83" y="652" type="curve" smooth="yes"/>
      <point x="83" y="602" type="line"/>
      <point x="24" y="602" type="line"/>
    </contour>
  </outline>
</glyph>
<glyph name="Idotaccent" format="1">
  <advance width="386"/>
  <unicode hex="0130"/>
  <outline>
    <contour>
      <point x="91" y="50" type="line" smooth="yes"/>
      <point x="91" y="34"/>
      <point x="86" y="32"/>
      <point x="67" y="28" type="curve" smooth="yes"/>
      <point x="30" y="20" type="line"/>
      <point x="30" y="0" type="line"/>
      <point x="356" y="0" type="line"/>
      <point x="356" y="20" type="line"/>
      <point x="319" y="28" type="line" smooth="yes"/>
      <point x="300" y="32"/>
      <point x="295" y="34"/>
      <point x="295" y="50" type="curve" smooth="yes"/>
      <point x="295" y="650" type="line" smooth="yes"/>
      <point x="295" y="666"/>
      <point x="300" y="668"/>
      <point x="319" y="672" type="curve" smooth="yes"/>
      <point x="356" y="680" type="line"/>
      <point x="356" y="700" type="line"/>
      <point x="30" y="700" type="line"/>
      <point x="30" y="680" type="line"/>
      <point x="67" y="672" type="line" smooth="yes"/>
      <point x="86" y="668"/>
      <point x="91" y="666"/>
      <point x="91" y="650" type="curve" smooth="yes"/>
    </contour>
    <contour>
      <point x="243" y="763"/>
      <point x="280" y="787"/>
      <point x="280" y="838" type="curve" smooth="yes"/>
      <point x="280" y="889"/>
      <point x="243" y="913"/>
      <point x="193" y="913" type="curve" smooth="yes"/>
      <point x="143" y="913"/>
      <point x="106" y="889"/>
      <point x="106" y="838" type="curve" smooth="yes"/>
      <point x="106" y="787"/>
      <point x="143" y="763"/>
      <point x="193" y="763" type="curve" smooth="yes"/>
    </contour>
  </outline>
</glyph>
<glyph name="dotlessi" format="1">
  <advance width="370"/>
  <unicode hex="0131"/>
  <outline>
    <contour>
      <point x="344" y="0" type="line"/>
      <point x="344" y="18" type="line"/>
      <point x="309" y="26" type="line" smooth="yes"/>
      <point x="290" y="30"/>
      <point x="285" y="32"/>
      <point x="285" y="48" type="curve" smooth="yes"/>
      <point x="285" y="504" type="line"/>
      <point x="266" y="504" type="line"/>
      <point x="26" y="474" type="line"/>
      <point x="26" y="456" type="line"/>
      <point x="61" y="448" type="line" smooth="yes"/>
      <point x="80" y="444"/>
      <point x="85" y="442"/>
      <point x="85" y="426" type="curve" smooth="yes"/>
      <point x="85" y="48" type="line" smooth="yes"/>
      <point x="85" y="32"/>
      <point x="80" y="30"/>
      <point x="61" y="26" type="curve" smooth="yes"/>
      <point x="26" y="18" type="line"/>
      <point x="26" y="0" type="line"/>
    </contour>
  </outline>
</glyph>
<glyph name="IJ" format="1">
  <advance width="1008"/>
  <unicode hex="0132"/>
  <outline>
    <contour>
      <point x="91" y="50" type="line" smooth="yes"/>
      <point x="91" y="34"/>
      <point x="86" y="32"/>
      <point x="67" y="28" type="curve" smooth="yes"/>
      <point x="30" y="20" type="line"/>
      <point x="30" y="0" type="line"/>
      <point x="356" y="0" type="line"/>
      <point x="356" y="20" type="line"/>
      <point x="319" y="28" type="line" smooth="yes"/>
      <point x="300" y="32"/>
      <point x="295" y="34"/>
      <point x="295" y="50" type="curve" smooth="yes"/>
      <point x="295" y="650" type="line" smooth="yes"/>
      <point x="295" y="666"/>
      <point x="300" y="668"/>
      <point x="319" y="672" type="curve" smooth="yes"/>
      <point x="356" y="680" type="line"/>
      <point x="356" y="700" type="line"/>
      <point x="30" y="700" type="line"/>
      <point x="30" y="680" type="line"/>
      <point x="67" y="672" type="line" smooth="yes"/>
      <point x="86" y="668"/>
      <point x="91" y="666"/>
      <point x="91" y="650" type="curve" smooth="yes"/>
    </contour>
    <contour>
      <point x="554" y="15"/>
      <point x="514" y="46"/>
      <point x="487" y="206" type="curve"/>
      <point x="461" y="206" type="line"/>
      <point x="438" y="30" type="line"/>
      <point x="496" y="4"/>
      <point x="576" y="-12"/>
      <point x="631" y="-12" type="curve" smooth="yes"/>
      <point x="791" y="-12"/>
      <point x="925" y="46"/>
      <point x="925" y="226" type="curve" smooth="yes"/>
      <point x="925" y="650" type="line" smooth="yes"/>
      <point x="925" y="666"/>
      <point x="930" y="668"/>
      <point x="949" y="672" type="curve" smooth="yes"/>
      <point x="986" y="680" type="line"/>
      <point x="986" y="700" type="line"/>
      <point x="654" y="700" type="line"/>
      <point x="654" y="680" type="line"/>
      <point x="697" y="671" type="line" smooth="yes"/>
      <point x="716" y="667"/>
      <point x="721" y="665"/>
      <point x="721" y="649" type="curve" smooth="yes"/>
      <point x="721" y="206" type="line" smooth="yes"/>
      <point x="721" y="52"/>
      <point x="691" y="15"/>
      <point x="623" y="15" type="curve" smooth="yes"/>
    </contour>
  </outline>
</glyph>
<glyph name="lcommaaccent" format="1">
  <advance width="366"/>
  <unicode hex="013C"/>
  <outline>
    <contour>
      <point x="342" y="0" type="line"/>
      <point x="342" y="18" type="line"/>
      <point x="307" y="26" type="line" smooth="yes"/>
      <point x="288" y="30"/>
      <point x="283" y="32"/>
      <point x="283" y="48" type="curve" smooth="yes"/>
      <point x="283" y="730" type="line"/>
      <point x="264" y="730" type="line"/>
      <point x="24" y="700" type="line"/>
      <point x="24" y="682" type="line"/>
      <point x="59" y="674" type="line" smooth="yes"/>
      <point x="78" y="670"/>
      <point x="83" y="668"/>
      <point x="83" y="652" type="curve" smooth="yes"/>
      <point x="83" y="48" type="line" smooth="yes"/>
      <point x="83" y="32"/>
      <point x="78" y="30"/>
      <point x="59" y="26" type="curve" smooth="yes"/>
      <point x="24" y="18" type="line"/>
      <point x="24" y="0" type="line"/>
    </contour>
    <contour>
      <point x="191" y="-251"/>
      <point x="178" y="-280"/>
      <point x="133" y="-326" type="curve"/>
      <point x="151" y="-343" type="line"/>
      <point x="213" y="-295"/>
      <point x="265" y="-220"/>
      <point x="265" y="-142" type="curve" smooth="yes"/>
      <point x="265" y="-86"/>
      <point x="231" y="-58"/>
      <point x="181" y="-58" type="curve" smooth="yes"/>
      <point x="129" y="-58"/>
      <point x="101" y="-93"/>
      <point x="101" y="-134" type="curve" smooth="yes"/>
      <point x="101" y="-176"/>
      <point x="128" y="-213"/>
      <point x="192" y="-206" type="curve"/>
    </contour>
  </outline>
</glyph>
<glyph name="Lcaron" format="1">
  <advance width="668"/>
  <unicode hex="013D"/>
  <outline>
    <contour>
      <point x="87" y="50" type="line" smooth="yes"/>
      <point x="87" y="34"/>
      <point x="82" y="32"/>
      <point x="63" y="28" type="curve" smooth="yes"/>
      <point x="26" y="20" type="line"/>
      <point x="26" y="0" type="line"/>
      <point x="630" y="0" type="line"/>
      <point x="630" y="199" type="line"/>
      <point x="602" y="199" type="line"/>
      <point x="563" y="87"/>
      <point x="540" y="30"/>
      <point x="417" y="30" type="curve" smooth="yes"/>
      <point x="291" y="30" type="line"/>
      <point x="291" y="649" type="line" smooth="yes"/>
      <point x="291" y="665"/>
      <point x="296" y="667"/>
      <point x="315" y="671" type="curve" smooth="yes"/>
      <point x="358" y="680" type="line"/>
      <point x="358" y="700" type="line"/>
      <point x="26" y="700" type="line"/>
      <point x="26" y="680" type="line"/>
      <point x="63" y="672" type="line" smooth="yes"/>
      <point x="82" y="668"/>
      <point x="87" y="666"/>
      <point x="87" y="650" type="curve" smooth="yes"/>
    </contour>
    <contour>
      <point x="546" y="515"/>
      <point x="533" y="486"/>
      <point x="488" y="440" type="curve"/>
      <point x="506" y="423" type="line"/>
      <point x="568" y="471"/>
      <point x="620" y="546"/>
      <point x="620" y="624" type="curve" smooth="yes"/>
      <point x="620" y="680"/>
      <point x="586" y="708"/>
      <point x="536" y="708" type="curve" smooth="yes"/>
      <point x="484" y="708"/>
      <point x="456" y="673"/>
      <point x="456" y="632" type="curve" smooth="yes"/>
      <point x="456" y="590"/>
      <point x="483" y="553"/>
      <point x="547" y="560" type="curve"/>
    </contour>
  </outline>
</glyph>
<glyph name="Ldot" format="1">
  <advance width="668"/>
  <unicode hex="013F"/>
  <outline>
    <contour>
      <point x="87" y="50" type="line" smooth="yes"/>
      <point x="87" y="34"/>
      <point x="82" y="32"/>
      <point x="63" y="28" type="curve" smooth="yes"/>
      <point x="26" y="20" type="line"/>
      <point x="26" y="0" type="line"/>
      <point x="630" y="0" type="line"/>
      <point x="630" y="199" type="line"/>
      <point x="602" y="199" type="line"/>
      <point x="563" y="87"/>
      <point x="540" y="30"/>
      <point x="417" y="30" type="curve" smooth="yes"/>
      <point x="291" y="30" type="line"/>
      <point x="291" y="649" type="line" smooth="yes"/>
      <point x="291" y="665"/>
      <point x="296" y="667"/>
      <point x="315" y="671" type="curve" smooth="yes"/>
      <point x="358" y="680" type="line"/>
      <point x="358" y="700" type="line"/>
      <point x="26" y="700" type="line"/>
      <point x="26" y="680" type="line"/>
      <point x="63" y="672" type="line" smooth="yes"/>
      <point x="82" y="668"/>
      <point x="87" y="666"/>
      <point x="87" y="650" type="curve" smooth="yes"/>
    </contour>
    <contour>
      <point x="496" y="196"/>
      <point x="534" y="232"/>
      <point x="534" y="278" type="curve" smooth="yes"/>
      <point x="534" y="324"/>
      <point x="496" y="360"/>
      <point x="450" y="360" type="curve" smooth="yes"/>
      <point x="404" y="360"/>
      <point x="366" y="324"/>
      <point x="366" y="278" type="curve" smooth="yes"/>
      <point x="366" y="232"/>
      <point x="404" y="196"/>
      <point x="450" y="196" type="curve" smooth="yes"/>
    </contour>
  </outline>
</glyph>
<glyph name="Lslash" format="1">
  <advance width="668"/>
  <unicode hex="0141"/>
  <outline>
    <contour>
      <point x="87" y="50" type="line" smooth="yes"/>
      <point x="87" y="34"/>
      <point x="82" y="32"/>
      <point x="63" y="28" type="curve" smooth="yes"/>
      <point x="26" y="20" type="line"/>
      <point x="26" y="0" type="line"/>
      <point x="630" y="0" type="line"/>
      <point x="630" y="199" type="line"/>
      <point x="602" y="199" type="line"/>
      <point x="563" y="87"/>
      <point x="540" y="30"/>
      <point x="417" y="30" type="curve" smooth="yes"/>
      <point x="291" y="30" type="line"/>
      <point x="291" y="366" type="line"/>
      <point x="398" y="404" type="line"/>
      <point x="398" y="432" type="line"/>
      <point x="291" y="394" type="line"/>
      <point x="291" y="649" type="line" smooth="yes"/>
      <point x="291" y="665"/>
      <point x="296" y="667"/>
      <point x="315" y="671" type="curve" smooth="yes"/>
      <point x="358" y="680" type="line"/>
      <point x="358" y="700" type="line"/>
      <point x="26" y="700" type="line"/>
      <point x="26" y="680" type="line"/>
      <point x="63" y="672" type="line" smooth="yes"/>
      <point x="82" y="668"/>
      <point x="87" y="666"/>
      <point x="87" y="650" type="curve" smooth="yes"/>
      <point x="87" y="323" type="line"/>
      <point x="26" y="302" type="line"/>
      <point x="26" y="274" type="line"/>
      <point x="87" y="295" type="line"/>
    </contour>
  </outline>
</glyph>
<glyph name="nacute" format="1">
  <advance width="750"/>
  <unicode hex="0144"/>
  <outline>
    <contour>
      <point x="669" y="342" type="line" smooth="yes"/>
      <point x="669" y="441"/>
      <point x="625" y="498"/>
      <point x="496" y="498" type="curve" smooth="yes"/>
      <point x="397" y="498"/>
      <point x="323" y="457"/>
      <point x="281" y="423" type="curve"/>
      <point x="281" y="504" type="line"/>
      <point x="264" y="504" type="line"/>
      <point x="24" y="474" type="line"/>
      <point x="24" y="456" type="line"/>
      <point x="59" y="448" type="line" smooth="yes"/>
      <point x="78" y="444"/>
      <point x="83" y="442"/>
      <point x="83" y="426" type="curve" smooth="yes"/>
      <point x="83" y="48" type="line" smooth="yes"/>
      <point x="83" y="32"/>
      <point x="78" y="30"/>
      <point x="59" y="26" type="curve" smooth="yes"/>
      <point x="24" y="18" type="line"/>
      <point x="24" y="0" type="line"/>
      <point x="340" y="0" type="line"/>
      <point x="340" y="18" type="line"/>
      <point x="306" y="25" type="line" smooth="yes"/>
      <point x="287" y="29"/>
      <point x="283" y="33"/>
      <point x="283" y="48" type="curve" smooth="yes"/>
      <point x="283" y="393" type="line"/>
      <point x="317" y="420"/>
      <point x="361" y="443"/>
      <point x="406" y="443" type="curve" smooth="yes"/>
      <point x="452" y="443"/>
      <point x="469" y="420"/>
      <point x="469" y="360" type="curve" smooth="yes"/>
      <point x="469" y="56" type="line" smooth="yes"/>
      <point x="469" y="20"/>
      <point x="483" y="0"/>
      <point x="520" y="0" type="curve" smooth="yes"/>
      <point x="728" y="0" type="line"/>
      <point x="728" y="18" type="line"/>
      <point x="693" y="26" type="line" smooth="yes"/>
      <point x="674" y="30"/>
      <point x="669" y="32"/>
      <point x="669" y="48" type="curve" smooth="yes"/>
    </contour>
    <contour>
      <point x="461" y="673"/>
      <point x="384" y="619"/>
      <point x="329" y="577" type="curve"/>
      <point x="334" y="566" type="line"/>
      <point x="395" y="576"/>
      <point x="499" y="603"/>
      <point x="560" y="631" type="curve"/>
      <point x="559" y="669"/>
      <point x="534" y="704"/>
      <point x="504" y="718" type="curve"/>
    </contour>
  </outline>
</glyph>
<glyph name="Ncaron" format="1">
  <advance width="744"/>
  <unicode hex="0147"/>
  <outline>
    <contour>
      <point x="87" y="50" type="line" smooth="yes"/>
      <point x="87" y="34"/>
      <point x="82" y="32"/>
      <point x="63" y="28" type="curve" smooth="yes"/>
      <point x="26" y="20" type="line"/>
      <point x="26" y="0" type="line"/>
      <point x="178" y="0" type="line"/>
      <point x="178" y="20" type="line"/>
      <point x="142" y="28" type="line" smooth="yes"/>
      <point x="124" y="32"/>
      <point x="119" y="34"/>
      <point x="119" y="49" type="curve" smooth="yes"/>
      <point x="119" y="635" type="line"/>
      <point x="621" y="0" type="line"/>
      <point x="657" y="0" type="line"/>
      <point x="657" y="650" type="line" smooth="yes"/>
      <point x="657" y="666"/>
      <point x="662" y="668"/>
      <point x="681" y="672" type="curve" smooth="yes"/>
      <point x="718" y="680" type="line"/>
      <point x="718" y="700" type="line"/>
      <point x="566" y="700" type="line"/>
      <point x="566" y="680" type="line"/>
      <point x="602" y="672" type="line" smooth="yes"/>
      <point x="620" y="668"/>
      <point x="625" y="666"/>
      <point x="625" y="651" type="curve" smooth="yes"/>
      <point x="625" y="294" type="line"/>
      <point x="303" y="700" type="line"/>
      <point x="26" y="700" type="line"/>
      <point x="26" y="680" type="line"/>
      <point x="63" y="672" type="line" smooth="yes"/>
      <point x="82" y="668"/>
      <point x="87" y="666"/>
      <point x="87" y="650" type="curve" smooth="yes"/>
    </contour>
    <contour>
      <point x="408" y="760" type="line"/>
      <point x="447" y="809"/>
      <point x="493" y="856"/>
      <point x="542" y="897" type="curve"/>
      <point x="531" y="912" type="line"/>
      <point x="481" y="895"/>
      <point x="432" y="872"/>
      <point x="382" y="843" type="curve"/>
      <point x="332" y="872"/>
      <point x="283" y="895"/>
      <point x="233" y="912" type="curve"/>
      <point x="222" y="897" type="line"/>
      <point x="272" y="856"/>
      <point x="317" y="809"/>
      <point x="356" y="760" type="curve"/>
    </contour>
  </outline>
</glyph>
<glyph name="Eng" format="1">
  <advance width="744"/>
  <unicode hex="014A"/>
  <outline>
    <contour>
      <point x="657" y="650" type="line" smooth="yes"/>
      <point x="657" y="666"/>
      <point x="662" y="668"/>
      <point x="681" y="672" type="curve" smooth="yes"/>
      <point x="718" y="680" type="line"/>
      <point x="718" y="700" type="line"/>
      <point x="566" y="700" type="line"/>
      <point x="566" y="680" type="line"/>
      <point x="602" y="672" type="line" smooth="yes"/>
      <point x="620" y="668"/>
      <point x="625" y="666"/>
      <point x="625" y="651" type="curve" smooth="yes"/>
      <point x="625" y="294" type="line"/>
      <point x="303" y="700" type="line"/>
      <point x="26" y="700" type="line"/>
      <point x="26" y="680" type="line"/>
      <point x="63" y="672" type="line" smooth="yes"/>
      <point x="82" y="668"/>
      <point x="87" y="666"/>
      <point x="87" y="650" type="curve" smooth="yes"/>
      <point x="87" y="50" type="line" smooth="yes"/>
      <point x="87" y="34"/>
      <point x="82" y="32"/>
      <point x="63" y="28" type="curve" smooth="yes"/>
      <point x="26" y="20" type="line"/>
      <point x="26" y="0" type="line"/>
      <point x="178" y="0" type="line"/>
      <point x="178" y="20" type="line"/>
      <point x="142" y="28" type="line" smooth="yes"/>
      <point x="124" y="32"/>
      <point x="119" y="34"/>
      <point x="119" y="49" type="curve" smooth="yes"/>
      <point x="119" y="635" type="line"/>
      <point x="625" y="-5" type="line"/>
      <point x="625" y="-40" type="line" smooth="yes"/>
      <point x="625" y="-171"/>
      <point x="571" y="-198"/>
      <point x="507" y="-198" type="curve" smooth="yes"/>
      <point x="466" y="-198"/>
      <point x="427" y="-184"/>
      <point x="401" y="-167" type="curve"/>
      <point x="387" y="-195" type="line"/>
      <point x="417" y="-214"/>
      <point x="460" y="-230"/>
      <point x="508" y="-230" type="curve" smooth="yes"/>
      <point x="592" y="-230"/>
      <point x="657" y="-192"/>
      <point x="657" y="-41" type="curve" smooth="yes"/>
    </contour>
  </outline>
</glyph>
<glyph name="eng" format="1">
  <advance width="750"/>
  <unicode hex="014B"/>
  <outline>
    <contour>
      <point x="469" y="-102" type="line" smooth="yes"/>
      <point x="469" y="-188"/>
      <point x="450" y="-204"/>
      <point x="412" y="-204" type="curve" smooth="yes"/>
      <point x="379" y="-204"/>
      <point x="347" y="-189"/>
      <point x="324" y="-169" type="curve"/>
      <point x="311" y="-188" type="line"/>
      <point x="336" y="-211"/>
      <point x="385" y="-240"/>
      <point x="474" y="-240" type="curve" smooth="yes"/>
      <point x="622" y="-240"/>
      <point x="669" y="-168"/>
      <point x="669" y="-31" type="curve" smooth="yes"/>
      <point x="669" y="342" type="line" smooth="yes"/>
      <point x="669" y="441"/>
      <point x="625" y="498"/>
      <point x="496" y="498" type="curve" smooth="yes"/>
      <point x="397" y="498"/>
      <point x="323" y="457"/>
      <point x="281" y="423" type="curve"/>
      <point x="281" y="504" type="line"/>
      <point x="264" y="504" type="line"/>
      <point x="24" y="474" type="line"/>
      <point x="24" y="456" type="line"/>
      <point x="59" y="448" type="line" smooth="yes"/>
      <point x="78" y="444"/>
      <point x="83" y="442"/>
      <point x="83" y="426" type="curve" smooth="yes"/>
      <point x="83" y="48" type="line" smooth="yes"/>
      <point x="83" y="32"/>
      <point x="78" y="30"/>
      <point x="59" y="26" type="curve" smooth="yes"/>
      <point x="24" y="18" type="line"/>
      <point x="24" y="0" type="line"/>
      <point x="340" y="0" type="line"/>
      <point x="340" y="18" type="line"/>
      <point x="306" y="25" type="line" smooth="yes"/>
      <point x="287" y="29"/>
      <point x="283" y="33"/>
      <point x="283" y="48" type="curve" smooth="yes"/>
      <point x="283" y="393" type="line"/>
      <point x="317" y="420"/>
      <point x="361" y="443"/>
      <point x="406" y="443" type="curve" smooth="yes"/>
      <point x="452" y="443"/>
      <point x="469" y="420"/>
      <point x="469" y="360" type="curve" smooth="yes"/>
    </contour>
  </outline>
</glyph>
<glyph name="Omacron" format="1">
  <advance width="854"/>
  <unicode hex="014C"/>
  <outline>
    <contour>
      <point x="222" y="712"/>
      <point x="56" y="620"/>
      <point x="56" y="350" type="curve" smooth="yes"/>
      <point x="56" y="80"/>
      <point x="221" y="-12"/>
      <point x="427" y="-12" type="curve" smooth="yes"/>
      <point x="633" y="-12"/>
      <point x="798" y="80"/>
      <point x="798" y="350" type="curve" smooth="yes"/>
      <point x="798" y="620"/>
      <point x="633" y="712"/>
      <point x="427" y="712" type="curve" smooth="yes"/>
    </contour>
    <contour>
      <point x="304" y="17"/>
      <point x="277" y="112"/>
      <point x="277" y="350" type="curve" smooth="yes"/>
      <point x="277" y="588"/>
      <point x="304" y="683"/>
      <point x="427" y="683" type="curve" smooth="yes"/>
      <point x="550" y="683"/>
      <point x="577" y="588"/>
      <point x="577" y="350" type="curve" smooth="yes"/>
      <point x="577" y="112"/>
      <point x="550" y="17"/>
      <point x="427" y="17" type="curve" smooth="yes"/>
    </contour>
    <contour>
      <point x="237" y="778" type="line"/>
      <point x="617" y="778" type="line"/>
      <point x="617" y="802" type="line"/>
      <point x="237" y="802" type="line"/>
    </contour>
  </outline>
</glyph>
<glyph name="omacron" format="1">
  <advance width="724"/>
  <unicode hex="014D"/>
  <outline>
    <contour>
      <point x="674" y="419"/>
      <point x="559" y="498"/>
      <point x="362" y="498" type="curve" smooth="yes"/>
      <point x="165" y="498"/>
      <point x="50" y="419"/>
      <point x="50" y="243" type="curve" smooth="yes"/>
      <point x="50" y="67"/>
      <point x="165" y="-12"/>
      <point x="362" y="-12" type="curve" smooth="yes"/>
      <point x="559" y="-12"/>
      <point x="674" y="67"/>
      <point x="674" y="243" type="curve" smooth="yes"/>
    </contour>
    <contour>
      <point x="258" y="412"/>
      <point x="277" y="472"/>
      <point x="362" y="472" type="curve" smooth="yes"/>
      <point x="448" y="472"/>
      <point x="466" y="412"/>
      <point x="466" y="243" type="curve" smooth="yes"/>
      <point x="466" y="74"/>
      <point x="448" y="14"/>
      <point x="362" y="14" type="curve" smooth="yes"/>
      <point x="276" y="14"/>
      <point x="258" y="74"/>
      <point x="258" y="243" type="curve" smooth="yes"/>
    </contour>
    <contour>
      <point x="172" y="584" type="line"/>
      <point x="552" y="584" type="line"/>
      <point x="552" y="608" type="line"/>
      <point x="172" y="608" type="line"/>
    </contour>
  </outline>
</glyph>
<glyph name="Obreve" format="1">
  <advance width="854"/>
  <unicode hex="014E"/>
  <outline>
    <contour>
      <point x="222" y="712"/>
      <point x="56" y="620"/>
      <point x="56" y="350" type="curve" smooth="yes"/>
      <point x="56" y="80"/>
      <point x="221" y="-12"/>
      <point x="427" y="-12" type="curve" smooth="yes"/>
      <point x="633" y="-12"/>
      <point x="798" y="80"/>
      <point x="798" y="350" type="curve" smooth="yes"/>
      <point x="798" y="620"/>
      <point x="633" y="712"/>
      <point x="427" y="712" type="curve" smooth="yes"/>
    </contour>
    <contour>
      <point x="304" y="17"/>
      <point x="277" y="112"/>
      <point x="277" y="350" type="curve" smooth="yes"/>
      <point x="277" y="588"/>
      <point x="304" y="683"/>
      <point x="427" y="683" type="curve" smooth="yes"/>
      <point x="550" y="683"/>
      <point x="577" y="588"/>
      <point x="577" y="350" type="curve" smooth="yes"/>
      <point x="577" y="112"/>
      <point x="550" y="17"/>
      <point x="427" y="17" type="curve" smooth="yes"/>
    </contour>
    <contour>
      <point x="520" y="760"/>
      <point x="563" y="820"/>
      <point x="565" y="913" type="curve"/>
      <point x="545" y="913" type="line"/>
      <point x="532" y="862"/>
      <point x="506" y="837"/>
      <point x="427" y="837" type="curve" smooth="yes"/>
      <point x="348" y="837"/>
      <point x="322" y="862"/>
      <point x="309" y="913" type="curve"/>
      <point x="289" y="913" type="line"/>
      <point x="291" y="820"/>
      <point x="334" y="760"/>
      <point x="427" y="760" type="curve" smooth="yes"/>
    </contour>
  </outline>
</glyph>
<glyph name="obreve" format="1">
  <advance width="724"/>
  <unicode hex="014F"/>
  <outline>
    <contour>
      <point x="674" y="419"/>
      <point x="559" y="498"/>
      <point x="362" y="498" type="curve" smooth="yes"/>
      <point x="165" y="498"/>
      <point x="50" y="419"/>
      <point x="50" y="243" type="curve" smooth="yes"/>
      <point x="50" y="67"/>
      <point x="165" y="-12"/>
      <point x="362" y="-12" type="curve" smooth="yes"/>
      <point x="559" y="-12"/>
      <point x="674" y="67"/>
      <point x="674" y="243" type="curve" smooth="yes"/>
    </contour>
    <contour>
      <point x="258" y="412"/>
      <point x="277" y="472"/>
      <point x="362" y="472" type="curve" smooth="yes"/>
      <point x="448" y="472"/>
      <point x="466" y="412"/>
      <point x="466" y="243" type="curve" smooth="yes"/>
      <point x="466" y="74"/>
      <point x="448" y="14"/>
      <point x="362" y="14" type="curve" smooth="yes"/>
      <point x="276" y="14"/>
      <point x="258" y="74"/>
      <point x="258" y="243" type="curve" smooth="yes"/>
    </contour>
    <contour>
      <point x="455" y="566"/>
      <point x="498" y="626"/>
      <point x="500" y="719" type="curve"/>
      <point x="480" y="719" type="line"/>
      <point x="467" y="668"/>
      <point x="441" y="643"/>
      <point x="362" y="643" type="curve" smooth="yes"/>
      <point x="283" y="643"/>
      <point x="257" y="668"/>
      <point x="244" y="719" type="curve"/>
      <point x="224" y="719" type="line"/>
      <point x="226" y="626"/>
      <point x="269" y="566"/>
      <point x="362" y="566" type="curve" smooth="yes"/>
    </contour>
  </outline>
</glyph>
<glyph name="Ohungarumlaut" format="1">
  <advance width="854"/>
  <unicode hex="0150"/>
  <outline>
    <contour>
      <point x="222" y="712"/>
      <point x="56" y="620"/>
      <point x="56" y="350" type="curve" smooth="yes"/>
      <point x="56" y="80"/>
      <point x="221" y="-12"/>
      <point x="427" y="-12" type="curve" smooth="yes"/>
      <point x="633" y="-12"/>
      <point x="798" y="80"/>
      <point x="798" y="350" type="curve" smooth="yes"/>
      <point x="798" y="620"/>
      <point x="633" y="712"/>
      <point x="427" y="712" type="curve" smooth="yes"/>
    </contour>
    <contour>
      <point x="304" y="17"/>
      <point x="277" y="112"/>
      <point x="277" y="350" type="curve" smooth="yes"/>
      <point x="277" y="588"/>
      <point x="304" y="683"/>
      <point x="427" y="683" type="curve" smooth="yes"/>
      <point x="550" y="683"/>
      <point x="577" y="588"/>
      <point x="577" y="350" type="curve" smooth="yes"/>
      <point x="577" y="112"/>
      <point x="550" y="17"/>
      <point x="427" y="17" type="curve" smooth="yes"/>
    </contour>
    <contour>
      <point x="395" y="906"/>
      <point x="344" y="842"/>
      <point x="302" y="787" type="curve"/>
      <point x="310" y="778" type="line"/>
      <point x="366" y="803"/>
      <point x="451" y="849"/>
      <point x="507" y="892" type="curve"/>
      <point x="496" y="928"/>
      <point x="463" y="955"/>
      <point x="430" y="961" type="curve"/>
    </contour>
    <contour>
      <point x="600" y="906"/>
      <point x="549" y="842"/>
      <point x="507" y="787" type="curve"/>
      <point x="515" y="778" type="line"/>
      <point x="571" y="803"/>
      <point x="656" y="849"/>
      <point x="712" y="892" type="curve"/>
      <point x="701" y="928"/>
      <point x="668" y="955"/>
      <point x="635" y="961" type="curve"/>
    </contour>
  </outline>
</glyph>
<glyph name="ohungarumlaut" format="1">
  <advance width="724"/>
  <unicode hex="0151"/>
  <outline>
    <contour>
      <point x="674" y="419"/>
      <point x="559" y="498"/>
      <point x="362" y="498" type="curve" smooth="yes"/>
      <point x="165" y="498"/>
      <point x="50" y="419"/>
      <point x="50" y="243" type="curve" smooth="yes"/>
      <point x="50" y="67"/>
      <point x="165" y="-12"/>
      <point x="362" y="-12" type="curve" smooth="yes"/>
      <point x="559" y="-12"/>
      <point x="674" y="67"/>
      <point x="674" y="243" type="curve" smooth="yes"/>
    </contour>
    <contour>
      <point x="258" y="412"/>
      <point x="277" y="472"/>
      <point x="362" y="472" type="curve" smooth="yes"/>
      <point x="448" y="472"/>
      <point x="466" y="412"/>
      <point x="466" y="243" type="curve" smooth="yes"/>
      <point x="466" y="74"/>
      <point x="448" y="14"/>
      <point x="362" y="14" type="curve" smooth="yes"/>
      <point x="276" y="14"/>
      <point x="258" y="74"/>
      <point x="258" y="243" type="curve" smooth="yes"/>
    </contour>
    <contour>
      <point x="320" y="692"/>
      <point x="269" y="628"/>
      <point x="227" y="573" type="curve"/>
      <point x="235" y="564" type="line"/>
      <point x="291" y="589"/>
      <point x="376" y="635"/>
      <point x="432" y="678" type="curve"/>
      <point x="421" y="714"/>
      <point x="388" y="741"/>
      <point x="355" y="747" type="curve"/>
    </contour>
    <contour>
      <point x="525" y="692"/>
      <point x="474" y="628"/>
      <point x="432" y="573" type="curve"/>
      <point x="440" y="564" type="line"/>
      <point x="496" y="589"/>
      <point x="581" y="635"/>
      <point x="637" y="678" type="curve"/>
      <point x="626" y="714"/>
      <point x="593" y="741"/>
      <point x="560" y="747" type="curve"/>
    </contour>
  </outline>
</glyph>
<glyph name="OE" format="1">
  <advance width="1166"/>
  <unicode hex="0152"/>
  <outline>
    <contour>
      <point x="1102" y="0" type="line"/>
      <point x="1102" y="199" type="line"/>
      <point x="1074" y="199" type="line"/>
      <point x="1035" y="87"/>
      <point x="1012" y="30"/>
      <point x="889" y="30" type="curve" smooth="yes"/>
      <point x="769" y="30" type="line"/>
      <point x="769" y="343" type="line"/>
      <point x="995" y="343" type="line"/>
      <point x="995" y="373" type="line"/>
      <point x="769" y="373" type="line"/>
      <point x="769" y="670" type="line"/>
      <point x="879" y="670" type="line" smooth="yes"/>
      <point x="1002" y="670"/>
      <point x="1022" y="617"/>
      <point x="1061" y="505" type="curve"/>
      <point x="1088" y="505" type="line"/>
      <point x="1088" y="700" type="line"/>
      <point x="486" y="700" type="line" smooth="yes"/>
      <point x="226" y="700"/>
      <point x="56" y="620"/>
      <point x="56" y="350" type="curve" smooth="yes"/>
      <point x="56" y="80"/>
      <point x="226" y="0"/>
      <point x="486" y="0" type="curve" smooth="yes"/>
    </contour>
    <contour>
      <point x="277" y="592"/>
      <point x="321" y="670"/>
      <point x="486" y="670" type="curve" smooth="yes"/>
      <point x="546" y="670" type="line" smooth="yes"/>
      <point x="559" y="670"/>
      <point x="565" y="663"/>
      <point x="565" y="650" type="curve" smooth="yes"/>
      <point x="565" y="50" type="line" smooth="yes"/>
      <point x="565" y="37"/>
      <point x="559" y="30"/>
      <point x="546" y="30" type="curve" smooth="yes"/>
      <point x="486" y="30" type="line" smooth="yes"/>
      <point x="321" y="30"/>
      <point x="277" y="108"/>
      <point x="277" y="350" type="curve" smooth="yes"/>
    </contour>
  </outline>
</glyph>
<glyph name="oe" format="1">
  <advance width="1068"/>
  <unicode hex="0153"/>
  <outline>
    <contour>
      <point x="165" y="498"/>
      <point x="50" y="419"/>
      <point x="50" y="243" type="curve" smooth="yes"/>
      <point x="50" y="67"/>
      <point x="165" y="-12"/>
      <point x="362" y="-12" type="curve" smooth="yes"/>
      <point x="448" y="-12"/>
      <point x="516" y="7"/>
      <point x="566" y="41" type="curve"/>
      <point x="614" y="6"/>
      <point x="678" y="-12"/>
      <point x="757" y="-12" type="curve" smooth="yes"/>
      <point x="873" y="-12"/>
      <point x="949" y="20"/>
      <point x="1003" y="64" type="curve"/>
      <point x="990" y="83" type="line"/>
      <point x="945" y="53"/>
      <point x="899" y="29"/>
      <point x="831" y="29" type="curve" smooth="yes"/>
      <point x="694" y="29"/>
      <point x="667" y="126"/>
      <point x="666" y="256" type="curve"/>
      <point x="1015" y="256" type="line"/>
      <point x="1018" y="270"/>
      <point x="1020" y="291"/>
      <point x="1020" y="306" type="curve" smooth="yes"/>
      <point x="1020" y="409"/>
      <point x="941" y="498"/>
      <point x="768" y="498" type="curve" smooth="yes"/>
      <point x="683" y="498"/>
      <point x="615" y="479"/>
      <point x="565" y="445" type="curve"/>
      <point x="515" y="479"/>
      <point x="447" y="498"/>
      <point x="362" y="498" type="curve" smooth="yes"/>
    </contour>
    <contour>
      <point x="258" y="412"/>
      <point x="277" y="472"/>
      <point x="362" y="472" type="curve" smooth="yes"/>
      <point x="448" y="472"/>
      <point x="466" y="412"/>
      <point x="466" y="243" type="curve" smooth="yes"/>
      <point x="466" y="74"/>
      <point x="448" y="14"/>
      <point x="362" y="14" type="curve" smooth="yes"/>
      <point x="276" y="14"/>
      <point x="258" y="74"/>
      <point x="258" y="243" type="curve" smooth="yes"/>
    </contour>
    <contour>
      <point x="823" y="474"/>
      <point x="834" y="431"/>
      <point x="834" y="357" type="curve" smooth="yes"/>
      <point x="834" y="282" type="line"/>
      <point x="666" y="282" type="line"/>
      <point x="667" y="406"/>
      <point x="685" y="474"/>
      <point x="762" y="474" type="curve" smooth="yes"/>
    </contour>
  </outline>
</glyph>
<glyph name="rcommaaccent" format="1">
  <advance width="540"/>
  <unicode hex="0157"/>
  <outline>
    <contour>
      <point x="281" y="504" type="line"/>
      <point x="264" y="504" type="line"/>
      <point x="24" y="474" type="line"/>
      <point x="24" y="456" type="line"/>
      <point x="59" y="448" type="line" smooth="yes"/>
      <point x="78" y="444"/>
      <point x="83" y="442"/>
      <point x="83" y="426" type="curve" smooth="yes"/>
      <point x="83" y="48" type="line" smooth="yes"/>
      <point x="83" y="32"/>
      <point x="78" y="30"/>
      <point x="59" y="26" type="curve" smooth="yes"/>
      <point x="24" y="18" type="line"/>
      <point x="24" y="0" type="line"/>
      <point x="340" y="0" type="line"/>
      <point x="340" y="18" type="line"/>
      <point x="306" y="25" type="line" smooth="yes"/>
      <point x="287" y="29"/>
      <point x="283" y="33"/>
      <point x="283" y="48" type="curve" smooth="yes"/>
      <point x="283" y="376" type="line"/>
      <point x="488" y="331" type="line"/>
      <point x="495" y="331" type="line"/>
      <point x="510" y="487" type="line"/>
      <point x="498" y="492"/>
      <point x="479" y="495"/>
      <point x="458" y="495" type="curve" smooth="yes"/>
      <point x="381" y="495"/>
      <point x="322" y="448"/>
      <point x="281" y="406" type="curve"/>
    </contour>
    <contour>
      <point x="189" y="-251"/>
      <point x="176" y="-280"/>
      <point x="131" y="-326" type="curve"/>
      <point x="149" y="-343" type="line"/>
      <point x="211" y="-295"/>
      <point x="263" y="-220"/>
      <point x="263" y="-142" type="curve" smooth="yes"/>
      <point x="263" y="-86"/>
      <point x="229" y="-58"/>
      <point x="179" y="-58" type="curve" smooth="yes"/>
      <point x="127" y="-58"/>
      <point x="99" y="-93"/>
      <point x="99" y="-134" type="curve" smooth="yes"/>
      <point x="99" y="-176"/>
      <point x="126" y="-213"/>
      <point x="190" y="-206" type="curve"/>
    </contour>
  </outline>
</glyph>
<glyph name="Rcaron" format="1">
  <advance width="796"/>
  <unicode hex="0158"/>
  <outline>
    <contour>
      <point x="460" y="156" type="line" smooth="yes"/>
      <point x="482" y="24"/>
      <point x="527" y="-10"/>
      <point x="651" y="-10" type="curve" smooth="yes"/>
      <point x="747" y="-10"/>
      <point x="772" y="25"/>
      <point x="786" y="55" type="curve"/>
      <point x="765" y="73" type="line"/>
      <point x="755" y="51"/>
      <point x="742" y="36"/>
      <point x="723" y="36" type="curve" smooth="yes"/>
      <point x="695" y="36"/>
      <point x="693" y="57"/>
      <point x="681" y="125" type="curve" smooth="yes"/>
      <point x="670" y="185" type="line" smooth="yes"/>
      <point x="649" y="298"/>
      <point x="604" y="334"/>
      <point x="489" y="341" type="curve"/>
      <point x="627" y="361"/>
      <point x="684" y="413"/>
      <point x="684" y="516" type="curve" smooth="yes"/>
      <point x="684" y="653"/>
      <point x="583" y="700"/>
      <point x="320" y="700" type="curve" smooth="yes"/>
      <point x="26" y="700" type="line"/>
      <point x="26" y="680" type="line"/>
      <point x="63" y="672" type="line" smooth="yes"/>
      <point x="82" y="668"/>
      <point x="87" y="666"/>
      <point x="87" y="650" type="curve" smooth="yes"/>
      <point x="87" y="50" type="line" smooth="yes"/>
      <point x="87" y="34"/>
      <point x="82" y="32"/>
      <point x="63" y="28" type="curve" smooth="yes"/>
      <point x="26" y="20" type="line"/>
      <point x="26" y="0" type="line"/>
      <point x="358" y="0" type="line"/>
      <point x="358" y="20" type="line"/>
      <point x="315" y="29" type="line" smooth="yes"/>
      <point x="296" y="33"/>
      <point x="291" y="35"/>
      <point x="291" y="51" type="curve" smooth="yes"/>
      <point x="291" y="332" type="line"/>
      <point x="320" y="332" type="line" smooth="yes"/>
      <point x="420" y="332"/>
      <point x="432" y="323"/>
      <point x="448" y="231" type="curve" smooth="yes"/>
    </contour>
    <contour>
      <point x="329" y="670" type="line" smooth="yes"/>
      <point x="446" y="670"/>
      <point x="474" y="622"/>
      <point x="474" y="516" type="curve" smooth="yes"/>
      <point x="474" y="410"/>
      <point x="446" y="362"/>
      <point x="329" y="362" type="curve" smooth="yes"/>
      <point x="291" y="362" type="line"/>
      <point x="291" y="670" type="line"/>
    </contour>
    <contour>
      <point x="424" y="760" type="line"/>
      <point x="463" y="809"/>
      <point x="509" y="856"/>
      <point x="558" y="897" type="curve"/>
      <point x="547" y="912" type="line"/>
      <point x="497" y="895"/>
      <point x="448" y="872"/>
      <point x="398" y="843" type="curve"/>
      <point x="348" y="872"/>
      <point x="299" y="895"/>
      <point x="249" y="912" type="curve"/>
      <point x="238" y="897" type="line"/>
      <point x="288" y="856"/>
      <point x="333" y="809"/>
      <point x="372" y="760" type="curve"/>
    </contour>
  </outline>
</glyph>
<glyph name="Tcedilla" format="1">
  <advance width="724"/>
  <unicode hex="0162"/>
  <outline>
    <contour>
      <point x="464" y="672" type="line"/>
      <point x="487" y="672" type="line" smooth="yes"/>
      <point x="615" y="672"/>
      <point x="636" y="604"/>
      <point x="676" y="498" type="curve"/>
      <point x="698" y="498" type="line"/>
      <point x="698" y="700" type="line"/>
      <point x="26" y="700" type="line"/>
      <point x="26" y="498" type="line"/>
      <point x="48" y="498" type="line"/>
      <point x="88" y="604"/>
      <point x="109" y="672"/>
      <point x="237" y="672" type="curve" smooth="yes"/>
      <point x="260" y="672" type="line"/>
      <point x="260" y="50" type="line" smooth="yes"/>
      <point x="260" y="34"/>
      <point x="255" y="32"/>
      <point x="236" y="28" type="curve" smooth="yes"/>
      <point x="199" y="20" type="line"/>
      <point x="199" y="0" type="line"/>
      <point x="525" y="0" type="line"/>
      <point x="525" y="20" type="line"/>
      <point x="488" y="28" type="line" smooth="yes"/>
      <point x="469" y="32"/>
      <point x="464" y="34"/>
      <point x="464" y="50" type="curve" smooth="yes"/>
    </contour>
    <contour>
      <point x="370" y="-251"/>
      <point x="357" y="-280"/>
      <point x="312" y="-326" type="curve"/>
      <point x="330" y="-343" type="line"/>
      <point x="392" y="-295"/>
      <point x="444" y="-220"/>
      <point x="444" y="-142" type="curve" smooth="yes"/>
      <point x="444" y="-86"/>
      <point x="410" y="-58"/>
      <point x="360" y="-58" type="curve" smooth="yes"/>
      <point x="308" y="-58"/>
      <point x="280" y="-93"/>
      <point x="280" y="-134" type="curve" smooth="yes"/>
      <point x="280" y="-176"/>
      <point x="307" y="-213"/>
      <point x="371" y="-206" type="curve"/>
    </contour>
  </outline>
</glyph>
<glyph name="tcedilla" format="1">
  <advance width="446"/>
  <unicode hex="0163"/>
  <outline>
    <contour>
      <point x="87" y="132" type="line" smooth="yes"/>
      <point x="87" y="34"/>
      <point x="130" y="-13"/>
      <point x="246" y="-12" type="curve" smooth="yes"/>
      <point x="331" y="-11"/>
      <point x="389" y="16"/>
      <point x="428" y="58" type="curve"/>
      <point x="412" y="77" type="line"/>
      <point x="385" y="48"/>
      <point x="365" y="37"/>
      <point x="336" y="37" type="curve" smooth="yes"/>
      <point x="298" y="37"/>
      <point x="285" y="61"/>
      <point x="285" y="124" type="curve" smooth="yes"/>
      <point x="285" y="460" type="line"/>
      <point x="414" y="460" type="line"/>
      <point x="414" y="486" type="line"/>
      <point x="285" y="486" type="line"/>
      <point x="285" y="669" type="line"/>
      <point x="276" y="669" type="line"/>
      <point x="98" y="509" type="line" smooth="yes"/>
      <point x="79" y="492"/>
      <point x="64" y="486"/>
      <point x="22" y="486" type="curve"/>
      <point x="22" y="460" type="line"/>
      <point x="87" y="460" type="line"/>
    </contour>
    <contour>
      <point x="221" y="-251"/>
      <point x="208" y="-280"/>
      <point x="163" y="-326" type="curve"/>
      <point x="181" y="-343" type="line"/>
      <point x="243" y="-295"/>
      <point x="295" y="-220"/>
      <point x="295" y="-142" type="curve" smooth="yes"/>
      <point x="295" y="-86"/>
      <point x="261" y="-58"/>
      <point x="211" y="-58" type="curve" smooth="yes"/>
      <point x="159" y="-58"/>
      <point x="131" y="-93"/>
      <point x="131" y="-134" type="curve" smooth="yes"/>
      <point x="131" y="-176"/>
      <point x="158" y="-213"/>
      <point x="222" y="-206" type="curve"/>
    </contour>
  </outline>
</glyph>
